<?xml version="1.0" encoding="UTF-8" standalone="no"?>
<!DOCTYPE svg PUBLIC "-//W3C//DTD SVG 1.1//EN"
 "http://www.w3.org/Graphics/SVG/1.1/DTD/svg11.dtd">
<!-- Generated by graphviz version 12.2.1 (20241206.2353)
 -->
<!-- Title: imported_1767731023.440887 Pages: 1 -->
<svg width="1118pt" height="236pt"
 viewBox="0.00 0.00 1117.50 236.00" xmlns="http://www.w3.org/2000/svg" xmlns:xlink="http://www.w3.org/1999/xlink">
<g id="graph0" class="graph" transform="scale(1 1) rotate(0) translate(4 232)">
<title>imported_1767731023.440887</title>
<polygon fill="white" stroke="none" points="-4,4 -4,-232 1113.5,-232 1113.5,4 -4,4"/>
<!-- 6240662112 -->
<g id="node1" class="node">
<title>6240662112</title>
<polygon fill="white" stroke="black" points="197.5,-45 90,-45 90,-9 197.5,-9 197.5,-45"/>
<text text-anchor="middle" x="143.75" y="-21.6" font-family="Times,serif" font-size="12.00">Submit Application</text>
</g>
<!-- 6242212352 -->
<g id="node8" class="node">
<title>6242212352</title>
<ellipse fill="white" stroke="black" cx="260.5" cy="-95" rx="27" ry="27"/>
</g>
<!-- 6240662112&#45;&gt;6242212352 -->
<g id="edge2" class="edge">
<title>6240662112&#45;&gt;6242212352</title>
<path fill="none" stroke="black" d="M175.8,-45.4C191.74,-54.85 211.14,-66.34 227.25,-75.89"/>
<polygon fill="black" stroke="black" points="225.11,-78.69 235.49,-80.77 228.68,-72.67 225.11,-78.69"/>
</g>
<!-- 6242212400 -->
<g id="node9" class="node">
<title>6242212400</title>
<ellipse fill="white" stroke="black" cx="869.75" cy="-93" rx="27" ry="27"/>
</g>
<!-- 6240662112&#45;&gt;6242212400 -->
<g id="edge3" class="edge">
<title>6240662112&#45;&gt;6242212400</title>
<path fill="none" stroke="black" d="M197.65,-16.72C241.5,-9.09 305.56,0 362,0 362,0 362,0 679.75,0 741.85,0 804.73,-40.93 840.03,-68.48"/>
<polygon fill="black" stroke="black" points="837.64,-71.05 847.63,-74.56 842.01,-65.58 837.64,-71.05"/>
</g>
<!-- 6247150080 -->
<g id="node2" class="node">
<title>6247150080</title>
<polygon fill="white" stroke="black" points="1019.5,-111 936.75,-111 936.75,-75 1019.5,-75 1019.5,-111"/>
<text text-anchor="middle" x="978.12" y="-87.6" font-family="Times,serif" font-size="12.00">Initial Review</text>
</g>
<!-- 6242221088 -->
<g id="node10" class="node">
<title>6242221088</title>
<ellipse fill="white" stroke="black" cx="1082.5" cy="-65" rx="27" ry="27"/>
</g>
<!-- 6247150080&#45;&gt;6242221088 -->
<g id="edge7" class="edge">
<title>6247150080&#45;&gt;6242221088</title>
<path fill="none" stroke="black" d="M1019.88,-81.85C1028.22,-79.57 1036.94,-77.19 1045.11,-74.95"/>
<polygon fill="black" stroke="black" points="1046.02,-78.33 1054.74,-72.32 1044.18,-71.58 1046.02,-78.33"/>
</g>
<!-- 6242209472 -->
<g id="node12" class="node">
<title>6242209472</title>
<ellipse fill="white" stroke="black" cx="1082.5" cy="-182" rx="27" ry="27"/>
</g>
<!-- 6247150080&#45;&gt;6242209472 -->
<g id="edge8" class="edge">
<title>6247150080&#45;&gt;6242209472</title>
<path fill="none" stroke="black" d="M1000.34,-111.44C1015.6,-124.71 1036.35,-142.75 1053.05,-157.26"/>
<polygon fill="black" stroke="black" points="1050.37,-159.58 1060.22,-163.5 1054.97,-154.3 1050.37,-159.58"/>
</g>
<!-- 6247147536 -->
<g id="node3" class="node">
<title>6247147536</title>
<polygon fill="white" stroke="black" points="402.5,-146 323.5,-146 323.5,-110 402.5,-110 402.5,-146"/>
<text text-anchor="middle" x="363" y="-122.6" font-family="Times,serif" font-size="12.00">Credit Check</text>
</g>
<!-- 6242214080 -->
<g id="node11" class="node">
<title>6242214080</title>
<ellipse fill="white" stroke="black" cx="465.5" cy="-100" rx="27" ry="27"/>
</g>
<!-- 6247147536&#45;&gt;6242214080 -->
<g id="edge6" class="edge">
<title>6247147536&#45;&gt;6242214080</title>
<path fill="none" stroke="black" d="M402.86,-117.17C411.21,-114.85 420.01,-112.4 428.26,-110.1"/>
<polygon fill="black" stroke="black" points="428.92,-113.54 437.62,-107.49 427.05,-106.8 428.92,-113.54"/>
</g>
<!-- 6242220560 -->
<g id="node13" class="node">
<title>6242220560</title>
<ellipse fill="white" stroke="black" cx="572.12" cy="-161" rx="27" ry="27"/>
</g>
<!-- 6247147536&#45;&gt;6242220560 -->
<g id="edge9" class="edge">
<title>6247147536&#45;&gt;6242220560</title>
<path fill="none" stroke="black" d="M402.96,-134.21C440.5,-140.19 496.89,-149.17 533.85,-155.06"/>
<polygon fill="black" stroke="black" points="533.2,-158.5 543.63,-156.62 534.3,-151.59 533.2,-158.5"/>
</g>
<!-- 6247141824 -->
<g id="node4" class="node">
<title>6247141824</title>
<polygon fill="white" stroke="black" points="615.75,-116 528.5,-116 528.5,-80 615.75,-80 615.75,-116"/>
<text text-anchor="middle" x="572.12" y="-92.6" font-family="Times,serif" font-size="12.00">Expert Review</text>
</g>
<!-- 6247139136 -->
<g id="node14" class="node">
<title>6247139136</title>
<ellipse fill="white" stroke="black" cx="678.75" cy="-102" rx="27" ry="27"/>
</g>
<!-- 6247141824&#45;&gt;6247139136 -->
<g id="edge14" class="edge">
<title>6247141824&#45;&gt;6247139136</title>
<path fill="none" stroke="black" d="M615.98,-99.64C623.93,-99.94 632.17,-100.26 639.95,-100.55"/>
<polygon fill="black" stroke="black" points="639.67,-104.05 649.79,-100.93 639.93,-97.05 639.67,-104.05"/>
</g>
<!-- 6247151184 -->
<g id="node5" class="node">
<title>6247151184</title>
<polygon fill="white" stroke="black" points="802.75,-179 741.75,-179 741.75,-143 802.75,-143 802.75,-179"/>
<text text-anchor="middle" x="772.25" y="-155.6" font-family="Times,serif" font-size="12.00">Rejection</text>
</g>
<!-- 6242216336 -->
<g id="node15" class="node">
<title>6242216336</title>
<ellipse fill="white" stroke="black" cx="869.75" cy="-169" rx="27" ry="27"/>
<ellipse fill="none" stroke="black" cx="869.75" cy="-169" rx="31" ry="31"/>
<text text-anchor="start" x="861.12" y="-157.72" font-family="Times,serif" font-size="32.00">■</text>
</g>
<!-- 6247151184&#45;&gt;6242216336 -->
<g id="edge15" class="edge">
<title>6247151184&#45;&gt;6242216336</title>
<path fill="none" stroke="black" d="M803.2,-163.51C810.86,-164.15 819.24,-164.85 827.36,-165.53"/>
<polygon fill="black" stroke="black" points="826.81,-169 837.06,-166.35 827.39,-162.02 826.81,-169"/>
</g>
<!-- 6247144704 -->
<g id="node6" class="node">
<title>6247144704</title>
<polygon fill="white" stroke="black" points="802.75,-120 741.75,-120 741.75,-84 802.75,-84 802.75,-120"/>
<text text-anchor="middle" x="772.25" y="-96.6" font-family="Times,serif" font-size="12.00">Approval</text>
</g>
<!-- 6247144704&#45;&gt;6242212400 -->
<g id="edge18" class="edge">
<title>6247144704&#45;&gt;6242212400</title>
<path fill="none" stroke="black" d="M803.2,-99.18C812.05,-98.34 821.85,-97.42 831.11,-96.55"/>
<polygon fill="black" stroke="black" points="831.32,-100.04 840.94,-95.62 830.66,-93.07 831.32,-100.04"/>
</g>
<!-- 6247144704&#45;&gt;6242216336 -->
<g id="edge19" class="edge">
<title>6247144704&#45;&gt;6242216336</title>
<path fill="none" stroke="black" d="M799.6,-120.49C810.38,-128.05 823,-136.9 834.49,-144.96"/>
<polygon fill="black" stroke="black" points="832.37,-147.75 842.56,-150.63 836.39,-142.02 832.37,-147.75"/>
</g>
<!-- 6242217872 -->
<g id="node7" class="node">
<title>6242217872</title>
<ellipse fill="white" stroke="black" cx="27" cy="-27" rx="27" ry="27"/>
<text text-anchor="start" x="17.25" y="-14.95" font-family="Times,serif" font-size="34.00">●</text>
</g>
<!-- 6242217872&#45;&gt;6240662112 -->
<g id="edge1" class="edge">
<title>6242217872&#45;&gt;6240662112</title>
<path fill="none" stroke="black" d="M54.33,-27C61.69,-27 70.02,-27 78.57,-27"/>
<polygon fill="black" stroke="black" points="78.33,-30.5 88.33,-27 78.33,-23.5 78.33,-30.5"/>
</g>
<!-- 6242212352&#45;&gt;6247147536 -->
<g id="edge5" class="edge">
<title>6242212352&#45;&gt;6247147536</title>
<path fill="none" stroke="black" d="M286.6,-103.24C294.45,-105.82 303.41,-108.76 312.34,-111.7"/>
<polygon fill="black" stroke="black" points="311.12,-114.98 321.71,-114.77 313.3,-108.33 311.12,-114.98"/>
</g>
<!-- 6242212400&#45;&gt;6247150080 -->
<g id="edge4" class="edge">
<title>6242212400&#45;&gt;6247150080</title>
<path fill="none" stroke="black" d="M897.04,-93C905.62,-93 915.47,-93 925.26,-93"/>
<polygon fill="black" stroke="black" points="925.12,-96.5 935.12,-93 925.12,-89.5 925.12,-96.5"/>
</g>
<!-- 6242221088&#45;&gt;6247141824 -->
<g id="edge13" class="edge">
<title>6242221088&#45;&gt;6247141824</title>
<path fill="none" stroke="black" d="M1055.68,-59.54C1016.08,-51.65 937.89,-38 870.75,-38 771.25,-38 771.25,-38 771.25,-38 718.08,-38 660.2,-58.04 620.81,-74.95"/>
<polygon fill="black" stroke="black" points="619.59,-71.67 611.84,-78.9 622.41,-78.07 619.59,-71.67"/>
</g>
<!-- 6242214080&#45;&gt;6247141824 -->
<g id="edge12" class="edge">
<title>6242214080&#45;&gt;6247141824</title>
<path fill="none" stroke="black" d="M492.9,-99.5C500.23,-99.36 508.46,-99.2 516.76,-99.04"/>
<polygon fill="black" stroke="black" points="516.6,-102.54 526.53,-98.85 516.46,-95.54 516.6,-102.54"/>
</g>
<!-- 6242209472&#45;&gt;6247147536 -->
<g id="edge10" class="edge">
<title>6242209472&#45;&gt;6247147536</title>
<path fill="none" stroke="black" d="M1056.58,-191.09C1017.53,-204.49 939.28,-228 870.75,-228 571.12,-228 571.12,-228 571.12,-228 502.37,-228 432.39,-182.76 393.95,-153.13"/>
<polygon fill="black" stroke="black" points="396.54,-150.72 386.52,-147.28 392.21,-156.22 396.54,-150.72"/>
</g>
<!-- 6242220560&#45;&gt;6247151184 -->
<g id="edge11" class="edge">
<title>6242220560&#45;&gt;6247151184</title>
<path fill="none" stroke="black" d="M599.43,-161C632.8,-161 690.7,-161 729.97,-161"/>
<polygon fill="black" stroke="black" points="729.75,-164.5 739.75,-161 729.75,-157.5 729.75,-164.5"/>
</g>
<!-- 6247139136&#45;&gt;6247151184 -->
<g id="edge16" class="edge">
<title>6247139136&#45;&gt;6247151184</title>
<path fill="none" stroke="black" d="M701.9,-116.28C711.29,-122.34 722.52,-129.58 733.17,-136.45"/>
<polygon fill="black" stroke="black" points="731.15,-139.31 741.45,-141.78 734.94,-133.42 731.15,-139.31"/>
</g>
<!-- 6247139136&#45;&gt;6247144704 -->
<g id="edge17" class="edge">
<title>6247139136&#45;&gt;6247144704</title>
<path fill="none" stroke="black" d="M706.22,-102C713.59,-102 721.79,-102 729.8,-102"/>
<polygon fill="black" stroke="black" points="729.79,-105.5 739.79,-102 729.79,-98.5 729.79,-105.5"/>
</g>
</g>
</svg>
