<?xml version="1.0" encoding="UTF-8" standalone="no"?>
<!DOCTYPE svg PUBLIC "-//W3C//DTD SVG 1.1//EN"
 "http://www.w3.org/Graphics/SVG/1.1/DTD/svg11.dtd">
<!-- Generated by graphviz version 12.2.1 (20241206.2353)
 -->
<!-- Title: imported_1767731105.72836 Pages: 1 -->
<svg width="971pt" height="672pt"
 viewBox="0.00 0.00 970.75 672.00" xmlns="http://www.w3.org/2000/svg" xmlns:xlink="http://www.w3.org/1999/xlink">
<g id="graph0" class="graph" transform="scale(1 1) rotate(0) translate(4 668)">
<title>imported_1767731105.72836</title>
<polygon fill="white" stroke="none" points="-4,4 -4,-668 966.75,-668 966.75,4 -4,4"/>
<!-- 6246163296 -->
<g id="node1" class="node">
<title>6246163296</title>
<polygon fill="white" stroke="black" points="215.75,-589 118,-589 118,-553 215.75,-553 215.75,-589"/>
<text text-anchor="middle" x="166.88" y="-565.6" font-family="Times,serif" font-size="12.00">ER Sepsis Triage</text>
</g>
<!-- 6246163824 -->
<g id="node19" class="node">
<title>6246163824</title>
<ellipse fill="white" stroke="black" cx="284.12" cy="-571" rx="27" ry="27"/>
</g>
<!-- 6246163296&#45;&gt;6246163824 -->
<g id="edge8" class="edge">
<title>6246163296&#45;&gt;6246163824</title>
<path fill="none" stroke="black" d="M216.08,-571C225.89,-571 236.06,-571 245.43,-571"/>
<polygon fill="black" stroke="black" points="245.27,-574.5 255.27,-571 245.27,-567.5 245.27,-574.5"/>
</g>
<!-- 6246163392 -->
<g id="node20" class="node">
<title>6246163392</title>
<ellipse fill="white" stroke="black" cx="931.75" cy="-323" rx="27" ry="27"/>
<ellipse fill="none" stroke="black" cx="931.75" cy="-323" rx="31" ry="31"/>
<text text-anchor="start" x="923.12" y="-311.73" font-family="Times,serif" font-size="32.00">■</text>
</g>
<!-- 6246163296&#45;&gt;6246163392 -->
<g id="edge13" class="edge">
<title>6246163296&#45;&gt;6246163392</title>
<path fill="none" stroke="black" d="M204.67,-589.35C219.05,-595.84 235.87,-602.6 251.75,-607 312.43,-623.79 329.17,-626 392.12,-626 392.12,-626 392.12,-626 715.5,-626 787.85,-626 817.3,-615.62 864.75,-561 912.88,-505.59 926.16,-417.88 929.67,-365.83"/>
<polygon fill="black" stroke="black" points="933.16,-366.04 930.24,-355.86 926.17,-365.65 933.16,-366.04"/>
</g>
<!-- 6246161856 -->
<g id="node2" class="node">
<title>6246161856</title>
<polygon fill="white" stroke="black" points="651.5,-489 559.75,-489 559.75,-453 651.5,-453 651.5,-489"/>
<text text-anchor="middle" x="605.62" y="-465.6" font-family="Times,serif" font-size="12.00">ER Registration</text>
</g>
<!-- 6246170304 -->
<g id="node3" class="node">
<title>6246170304</title>
<polygon fill="white" stroke="black" points="201.88,-662 131.88,-662 131.88,-626 201.88,-626 201.88,-662"/>
<text text-anchor="middle" x="166.88" y="-638.6" font-family="Times,serif" font-size="12.00">Leucocytes</text>
</g>
<!-- 6246170304&#45;&gt;6246163392 -->
<g id="edge12" class="edge">
<title>6246170304&#45;&gt;6246163392</title>
<path fill="none" stroke="black" d="M202.36,-649C246.32,-654.92 324.7,-664 392.12,-664 392.12,-664 392.12,-664 715.5,-664 786.83,-664 818.14,-658.99 864.75,-605 895.5,-569.38 916.57,-435.1 925.67,-365.47"/>
<polygon fill="black" stroke="black" points="929.14,-365.93 926.94,-355.57 922.2,-365.04 929.14,-365.93"/>
</g>
<!-- 6246154944 -->
<g id="node4" class="node">
<title>6246154944</title>
<polygon fill="white" stroke="black" points="316.5,-526 251.75,-526 251.75,-490 316.5,-490 316.5,-526"/>
<text text-anchor="middle" x="284.12" y="-502.6" font-family="Times,serif" font-size="12.00">ER Triage</text>
</g>
<!-- 6246154944&#45;&gt;6246163392 -->
<g id="edge9" class="edge">
<title>6246154944&#45;&gt;6246163392</title>
<path fill="none" stroke="black" d="M316.86,-510.2C358.08,-512.87 432.25,-517 495.75,-517 495.75,-517 495.75,-517 715.5,-517 808.09,-517 878.8,-416.73 911.24,-360.36"/>
<polygon fill="black" stroke="black" points="914.26,-362.14 916.1,-351.7 908.15,-358.71 914.26,-362.14"/>
</g>
<!-- 6246164064 -->
<g id="node5" class="node">
<title>6246164064</title>
<polygon fill="white" stroke="black" points="424.38,-370 361.88,-370 361.88,-334 424.38,-334 424.38,-370"/>
<text text-anchor="middle" x="393.12" y="-346.6" font-family="Times,serif" font-size="12.00">IV Liquid</text>
</g>
<!-- 6246168384 -->
<g id="node18" class="node">
<title>6246168384</title>
<ellipse fill="white" stroke="black" cx="496.75" cy="-352" rx="27" ry="27"/>
</g>
<!-- 6246164064&#45;&gt;6246168384 -->
<g id="edge7" class="edge">
<title>6246164064&#45;&gt;6246168384</title>
<path fill="none" stroke="black" d="M424.62,-352C435.09,-352 446.95,-352 457.94,-352"/>
<polygon fill="black" stroke="black" points="457.9,-355.5 467.9,-352 457.9,-348.5 457.9,-355.5"/>
</g>
<!-- 6246164064&#45;&gt;6246163392 -->
<g id="edge11" class="edge">
<title>6246164064&#45;&gt;6246163392</title>
<path fill="none" stroke="black" d="M424.64,-333.67C437.99,-326.67 454.15,-319.52 469.75,-316 493.16,-310.71 499.75,-315.79 523.75,-316 593.92,-316.6 800.13,-320.48 889.1,-322.19"/>
<polygon fill="black" stroke="black" points="888.78,-325.69 898.84,-322.38 888.91,-318.69 888.78,-325.69"/>
</g>
<!-- 6246162576 -->
<g id="node6" class="node">
<title>6246162576</title>
<polygon fill="white" stroke="black" points="741.5,-128 687.5,-128 687.5,-92 741.5,-92 741.5,-128"/>
<text text-anchor="middle" x="714.5" y="-104.6" font-family="Times,serif" font-size="12.00">CRP</text>
</g>
<!-- 6246162576&#45;&gt;6246163392 -->
<g id="edge10" class="edge">
<title>6246162576&#45;&gt;6246163392</title>
<path fill="none" stroke="black" d="M741.77,-108.41C774.49,-107.89 830.27,-111.99 864.75,-142 905.14,-177.15 920.82,-239.11 926.91,-280.61"/>
<polygon fill="black" stroke="black" points="923.43,-281.04 928.21,-290.49 930.37,-280.12 923.43,-281.04"/>
</g>
<!-- 6246164304 -->
<g id="node7" class="node">
<title>6246164304</title>
<polygon fill="white" stroke="black" points="433.75,-581 352.5,-581 352.5,-545 433.75,-545 433.75,-581"/>
<text text-anchor="middle" x="393.12" y="-557.6" font-family="Times,serif" font-size="12.00">IV Antibiotics</text>
</g>
<!-- 6246164304&#45;&gt;6246163392 -->
<g id="edge18" class="edge">
<title>6246164304&#45;&gt;6246163392</title>
<path fill="none" stroke="black" d="M434.08,-561.79C476.42,-560.61 545.23,-559 604.62,-559 604.62,-559 604.62,-559 715.5,-559 782.99,-559 814.21,-575.73 864.75,-531 912.09,-489.1 925.76,-413.46 929.53,-365.86"/>
<polygon fill="black" stroke="black" points="933.03,-366.12 930.2,-355.91 926.04,-365.65 933.03,-366.12"/>
</g>
<!-- 6246169392 -->
<g id="node22" class="node">
<title>6246169392</title>
<ellipse fill="white" stroke="black" cx="496.75" cy="-424" rx="27" ry="27"/>
</g>
<!-- 6246164304&#45;&gt;6246169392 -->
<g id="edge21" class="edge">
<title>6246164304&#45;&gt;6246169392</title>
<path fill="none" stroke="black" d="M407.62,-544.54C424.43,-521.55 453.38,-481.96 473.49,-454.45"/>
<polygon fill="black" stroke="black" points="476.23,-456.63 479.31,-446.49 470.58,-452.5 476.23,-456.63"/>
</g>
<!-- 6246170064 -->
<g id="node8" class="node">
<title>6246170064</title>
<polygon fill="white" stroke="black" points="637.62,-435 573.62,-435 573.62,-399 637.62,-399 637.62,-435"/>
<text text-anchor="middle" x="605.62" y="-411.6" font-family="Times,serif" font-size="12.00">Release B</text>
</g>
<!-- 6246170064&#45;&gt;6246163392 -->
<g id="edge17" class="edge">
<title>6246170064&#45;&gt;6246163392</title>
<path fill="none" stroke="black" d="M637.87,-417.13C687.92,-416.24 788.21,-409.91 864.75,-376 877.77,-370.23 890.38,-361.24 901.04,-352.29"/>
<polygon fill="black" stroke="black" points="903.16,-355.09 908.36,-345.85 898.54,-349.83 903.16,-355.09"/>
</g>
<!-- 6246165168 -->
<g id="node9" class="node">
<title>6246165168</title>
<polygon fill="white" stroke="black" points="637.62,-381 573.62,-381 573.62,-345 637.62,-345 637.62,-381"/>
<text text-anchor="middle" x="605.62" y="-357.6" font-family="Times,serif" font-size="12.00">Release A</text>
</g>
<!-- 6246165168&#45;&gt;6246163392 -->
<g id="edge19" class="edge">
<title>6246165168&#45;&gt;6246163392</title>
<path fill="none" stroke="black" d="M637.81,-366.44C686.93,-370.92 784.95,-375.98 864.75,-356 874.86,-353.47 885.21,-349.21 894.63,-344.58"/>
<polygon fill="black" stroke="black" points="896.22,-347.7 903.46,-339.97 892.98,-341.5 896.22,-347.7"/>
</g>
<!-- 6246168096 -->
<g id="node21" class="node">
<title>6246168096</title>
<ellipse fill="white" stroke="black" cx="714.5" cy="-249" rx="27" ry="27"/>
</g>
<!-- 6246165168&#45;&gt;6246168096 -->
<g id="edge20" class="edge">
<title>6246165168&#45;&gt;6246168096</title>
<path fill="none" stroke="black" d="M623.8,-344.68C641.01,-326.32 667.74,-297.81 687.55,-276.68"/>
<polygon fill="black" stroke="black" points="689.98,-279.21 694.26,-269.52 684.87,-274.42 689.98,-279.21"/>
</g>
<!-- 6246154512 -->
<g id="node10" class="node">
<title>6246154512</title>
<polygon fill="white" stroke="black" points="854.62,-272 787.62,-272 787.62,-236 854.62,-236 854.62,-272"/>
<text text-anchor="middle" x="821.12" y="-248.6" font-family="Times,serif" font-size="12.00">Return ER</text>
</g>
<!-- 6246154512&#45;&gt;6246163392 -->
<g id="edge26" class="edge">
<title>6246154512&#45;&gt;6246163392</title>
<path fill="none" stroke="black" d="M851.23,-272.49C864.82,-281.12 881.1,-291.46 895.39,-300.54"/>
<polygon fill="black" stroke="black" points="893.3,-303.36 903.62,-305.77 897.06,-297.45 893.3,-303.36"/>
</g>
<!-- 6246160032 -->
<g id="node11" class="node">
<title>6246160032</title>
<polygon fill="white" stroke="black" points="638,-289 573.25,-289 573.25,-253 638,-253 638,-289"/>
<text text-anchor="middle" x="605.62" y="-265.6" font-family="Times,serif" font-size="12.00">Release D</text>
</g>
<!-- 6246160032&#45;&gt;6246163392 -->
<g id="edge27" class="edge">
<title>6246160032&#45;&gt;6246163392</title>
<path fill="none" stroke="black" d="M638.49,-276.64C653.37,-279.24 671.33,-282.34 687.5,-285 758.41,-296.68 841.11,-309.41 889.52,-316.77"/>
<polygon fill="black" stroke="black" points="888.86,-320.21 899.27,-318.25 889.91,-313.29 888.86,-320.21"/>
</g>
<!-- 6246160032&#45;&gt;6246168096 -->
<g id="edge33" class="edge">
<title>6246160032&#45;&gt;6246168096</title>
<path fill="none" stroke="black" d="M638.4,-264.46C650.46,-261.98 664.29,-259.13 676.77,-256.56"/>
<polygon fill="black" stroke="black" points="677.19,-260.05 686.28,-254.6 675.78,-253.19 677.19,-260.05"/>
</g>
<!-- 6246159264 -->
<g id="node12" class="node">
<title>6246159264</title>
<polygon fill="white" stroke="black" points="82,-566 0,-566 0,-530 82,-530 82,-566"/>
<text text-anchor="middle" x="41" y="-542.6" font-family="Times,serif" font-size="12.00">Admission IC</text>
</g>
<!-- 6246170112 -->
<g id="node13" class="node">
<title>6246170112</title>
<polygon fill="white" stroke="black" points="637.25,-235 574,-235 574,-199 637.25,-199 637.25,-235"/>
<text text-anchor="middle" x="605.62" y="-211.6" font-family="Times,serif" font-size="12.00">Release E</text>
</g>
<!-- 6246170112&#45;&gt;6246163392 -->
<g id="edge30" class="edge">
<title>6246170112&#45;&gt;6246163392</title>
<path fill="none" stroke="black" d="M637.51,-209.29C688.82,-198.31 793.05,-183.94 864.75,-227 886.7,-240.18 903.08,-263.81 914.04,-284.32"/>
<polygon fill="black" stroke="black" points="910.81,-285.69 918.44,-293.04 917.05,-282.53 910.81,-285.69"/>
</g>
<!-- 6246170112&#45;&gt;6246168096 -->
<g id="edge34" class="edge">
<title>6246170112&#45;&gt;6246168096</title>
<path fill="none" stroke="black" d="M637.54,-226.26C650.03,-230 664.53,-234.34 677.5,-238.22"/>
<polygon fill="black" stroke="black" points="676.37,-241.54 686.96,-241.05 678.38,-234.83 676.37,-241.54"/>
</g>
<!-- 6246160368 -->
<g id="node14" class="node">
<title>6246160368</title>
<polygon fill="white" stroke="black" points="637.62,-180 573.62,-180 573.62,-144 637.62,-144 637.62,-180"/>
<text text-anchor="middle" x="605.62" y="-156.6" font-family="Times,serif" font-size="12.00">Release C</text>
</g>
<!-- 6246160368&#45;&gt;6246163392 -->
<g id="edge29" class="edge">
<title>6246160368&#45;&gt;6246163392</title>
<path fill="none" stroke="black" d="M638.11,-157.46C690.27,-151.69 795.71,-147.62 864.75,-196 893.58,-216.21 910.72,-252.95 920.27,-281.73"/>
<polygon fill="black" stroke="black" points="916.92,-282.76 923.23,-291.27 923.61,-280.69 916.92,-282.76"/>
</g>
<!-- 6246160368&#45;&gt;6246168096 -->
<g id="edge32" class="edge">
<title>6246160368&#45;&gt;6246168096</title>
<path fill="none" stroke="black" d="M638.08,-180.48C642.68,-183.52 647.29,-186.74 651.5,-190 663.83,-199.55 676.47,-211.19 687.09,-221.59"/>
<polygon fill="black" stroke="black" points="684.51,-223.96 694.06,-228.54 689.45,-219 684.51,-223.96"/>
</g>
<!-- 6246156912 -->
<g id="node15" class="node">
<title>6246156912</title>
<polygon fill="white" stroke="black" points="864.75,-90 777.5,-90 777.5,-54 864.75,-54 864.75,-90"/>
<text text-anchor="middle" x="821.12" y="-66.6" font-family="Times,serif" font-size="12.00">Admission NC</text>
</g>
<!-- 6246156912&#45;&gt;6246163392 -->
<g id="edge28" class="edge">
<title>6246156912&#45;&gt;6246163392</title>
<path fill="none" stroke="black" d="M851.93,-90.44C856.73,-94.44 861.25,-98.99 864.75,-104 902.49,-158.02 919.03,-234.02 926,-280.81"/>
<polygon fill="black" stroke="black" points="922.51,-281.13 927.37,-290.55 929.45,-280.16 922.51,-281.13"/>
</g>
<!-- 6246156240 -->
<g id="node16" class="node">
<title>6246156240</title>
<polygon fill="white" stroke="black" points="855.38,-36 786.88,-36 786.88,0 855.38,0 855.38,-36"/>
<text text-anchor="middle" x="821.12" y="-12.6" font-family="Times,serif" font-size="12.00">LacticAcid</text>
</g>
<!-- 6246156240&#45;&gt;6246163392 -->
<g id="edge31" class="edge">
<title>6246156240&#45;&gt;6246163392</title>
<path fill="none" stroke="black" d="M855.57,-35.39C859.03,-38.23 862.21,-41.43 864.75,-45 915.69,-116.41 927.75,-221.8 930.33,-280.16"/>
<polygon fill="black" stroke="black" points="926.83,-280.15 930.69,-290.01 933.83,-279.89 926.83,-280.15"/>
</g>
<!-- 6246156672 -->
<g id="node17" class="node">
<title>6246156672</title>
<ellipse fill="white" stroke="black" cx="41" cy="-485" rx="27" ry="27"/>
<text text-anchor="start" x="31.25" y="-472.95" font-family="Times,serif" font-size="34.00">●</text>
</g>
<!-- 6246156672&#45;&gt;6246163296 -->
<g id="edge6" class="edge">
<title>6246156672&#45;&gt;6246163296</title>
<path fill="none" stroke="black" d="M63.86,-500.18C82.17,-512.89 108.67,-531.29 130.07,-546.14"/>
<polygon fill="black" stroke="black" points="128.05,-549 138.26,-551.83 132.04,-543.25 128.05,-549"/>
</g>
<!-- 6246156672&#45;&gt;6246161856 -->
<g id="edge3" class="edge">
<title>6246156672&#45;&gt;6246161856</title>
<path fill="none" stroke="black" d="M68.38,-484.34C154.48,-482.2 428.57,-475.38 548.04,-472.41"/>
<polygon fill="black" stroke="black" points="548.03,-475.91 557.94,-472.16 547.85,-468.91 548.03,-475.91"/>
</g>
<!-- 6246156672&#45;&gt;6246170304 -->
<g id="edge1" class="edge">
<title>6246156672&#45;&gt;6246170304</title>
<path fill="none" stroke="black" d="M63.09,-501.16C69.7,-506.93 76.66,-513.79 82,-521 104.49,-551.35 96.01,-567.28 118,-598 122.98,-604.96 129.1,-611.75 135.28,-617.89"/>
<polygon fill="black" stroke="black" points="132.87,-620.43 142.54,-624.76 137.69,-615.34 132.87,-620.43"/>
</g>
<!-- 6246156672&#45;&gt;6246154944 -->
<g id="edge2" class="edge">
<title>6246156672&#45;&gt;6246154944</title>
<path fill="none" stroke="black" d="M68.26,-487.51C109.62,-491.45 190.34,-499.15 240.21,-503.91"/>
<polygon fill="black" stroke="black" points="239.78,-507.38 250.07,-504.85 240.44,-500.41 239.78,-507.38"/>
</g>
<!-- 6246156672&#45;&gt;6246164064 -->
<g id="edge4" class="edge">
<title>6246156672&#45;&gt;6246164064</title>
<path fill="none" stroke="black" d="M65.3,-472.78C80.18,-465.2 99.98,-455.51 118,-448 199.04,-414.22 296.65,-381.98 350.8,-364.81"/>
<polygon fill="black" stroke="black" points="351.75,-368.18 360.23,-361.84 349.64,-361.51 351.75,-368.18"/>
</g>
<!-- 6246156672&#45;&gt;6246162576 -->
<g id="edge5" class="edge">
<title>6246156672&#45;&gt;6246162576</title>
<path fill="none" stroke="black" d="M46.12,-458.02C60.82,-372.65 118.93,-114 283.12,-114 283.12,-114 283.12,-114 497.75,-114 560.24,-114 632.9,-112.3 675.94,-111.12"/>
<polygon fill="black" stroke="black" points="675.86,-114.62 685.75,-110.84 675.66,-107.62 675.86,-114.62"/>
</g>
<!-- 6246168384&#45;&gt;6246170064 -->
<g id="edge15" class="edge">
<title>6246168384&#45;&gt;6246170064</title>
<path fill="none" stroke="black" d="M520.4,-365.94C532.13,-373.15 546.69,-382.07 559.75,-390 561.35,-390.97 562.99,-391.97 564.64,-392.97"/>
<polygon fill="black" stroke="black" points="562.52,-395.78 572.89,-397.95 566.14,-389.78 562.52,-395.78"/>
</g>
<!-- 6246168384&#45;&gt;6246165168 -->
<g id="edge14" class="edge">
<title>6246168384&#45;&gt;6246165168</title>
<path fill="none" stroke="black" d="M523.89,-354.69C535.46,-355.88 549.36,-357.31 562.34,-358.65"/>
<polygon fill="black" stroke="black" points="561.62,-362.09 571.92,-359.63 562.33,-355.13 561.62,-362.09"/>
</g>
<!-- 6246163824&#45;&gt;6246164304 -->
<g id="edge16" class="edge">
<title>6246163824&#45;&gt;6246164304</title>
<path fill="none" stroke="black" d="M311.3,-569.04C320.2,-568.38 330.48,-567.61 340.66,-566.85"/>
<polygon fill="black" stroke="black" points="340.82,-570.35 350.53,-566.11 340.29,-563.37 340.82,-570.35"/>
</g>
<!-- 6246168096&#45;&gt;6246154512 -->
<g id="edge25" class="edge">
<title>6246168096&#45;&gt;6246154512</title>
<path fill="none" stroke="black" d="M741.9,-250.26C752.25,-250.76 764.42,-251.34 776.02,-251.89"/>
<polygon fill="black" stroke="black" points="775.69,-255.38 785.85,-252.36 776.03,-248.39 775.69,-255.38"/>
</g>
<!-- 6246169392&#45;&gt;6246161856 -->
<g id="edge22" class="edge">
<title>6246169392&#45;&gt;6246161856</title>
<path fill="none" stroke="black" d="M522,-434.67C531.05,-438.65 541.72,-443.34 552.33,-448"/>
<polygon fill="black" stroke="black" points="550.9,-451.2 561.46,-452.02 553.72,-444.79 550.9,-451.2"/>
</g>
<!-- 6246169392&#45;&gt;6246170064 -->
<g id="edge24" class="edge">
<title>6246169392&#45;&gt;6246170064</title>
<path fill="none" stroke="black" d="M524.17,-422.27C535.53,-421.53 549.1,-420.64 561.82,-419.8"/>
<polygon fill="black" stroke="black" points="561.93,-423.3 571.68,-419.16 561.47,-416.32 561.93,-423.3"/>
</g>
<!-- 6246169392&#45;&gt;6246165168 -->
<g id="edge23" class="edge">
<title>6246169392&#45;&gt;6246165168</title>
<path fill="none" stroke="black" d="M520.68,-410.91C533.14,-403.8 548.92,-394.79 563.43,-386.51"/>
<polygon fill="black" stroke="black" points="564.96,-389.67 571.91,-381.67 561.49,-383.59 564.96,-389.67"/>
</g>
</g>
</svg>
