<?xml version="1.0" encoding="UTF-8" standalone="no"?>
<!DOCTYPE svg PUBLIC "-//W3C//DTD SVG 1.1//EN"
 "http://www.w3.org/Graphics/SVG/1.1/DTD/svg11.dtd">
<!-- Generated by graphviz version 12.2.1 (20241206.2353)
 -->
<!-- Title: imported_1767661597.1770298 Pages: 1 -->
<svg width="987pt" height="630pt"
 viewBox="0.00 0.00 986.75 630.00" xmlns="http://www.w3.org/2000/svg" xmlns:xlink="http://www.w3.org/1999/xlink">
<g id="graph0" class="graph" transform="scale(1 1) rotate(0) translate(4 626)">
<title>imported_1767661597.1770298</title>
<polygon fill="white" stroke="none" points="-4,4 -4,-626 982.75,-626 982.75,4 -4,4"/>
<!-- 6609987360 -->
<g id="node1" class="node">
<title>6609987360</title>
<polygon fill="white" stroke="black" points="321.75,-622 251.75,-622 251.75,-586 321.75,-586 321.75,-622"/>
<text text-anchor="middle" x="286.75" y="-598.6" font-family="Times,serif" font-size="12.00">Leucocytes</text>
</g>
<!-- 6609983136 -->
<g id="node20" class="node">
<title>6609983136</title>
<ellipse fill="white" stroke="black" cx="947.75" cy="-333" rx="27" ry="27"/>
<ellipse fill="none" stroke="black" cx="947.75" cy="-333" rx="31" ry="31"/>
<text text-anchor="start" x="939.12" y="-321.73" font-family="Times,serif" font-size="32.00">■</text>
</g>
<!-- 6609987360&#45;&gt;6609983136 -->
<g id="edge13" class="edge">
<title>6609987360&#45;&gt;6609983136</title>
<path fill="none" stroke="black" d="M322.1,-602.96C364.24,-601.77 437.87,-600 501,-600 501,-600 501,-600 726.12,-600 795.96,-600 829.19,-619.11 880.75,-572 909.64,-545.61 930.78,-436.19 940.61,-374.96"/>
<polygon fill="black" stroke="black" points="944.04,-375.67 942.13,-365.25 937.12,-374.59 944.04,-375.67"/>
</g>
<!-- 6609993408 -->
<g id="node2" class="node">
<title>6609993408</title>
<polygon fill="white" stroke="black" points="193.88,-576 139.88,-576 139.88,-540 193.88,-540 193.88,-576"/>
<text text-anchor="middle" x="166.88" y="-552.6" font-family="Times,serif" font-size="12.00">CRP</text>
</g>
<!-- 6609993408&#45;&gt;6609983136 -->
<g id="edge9" class="edge">
<title>6609993408&#45;&gt;6609983136</title>
<path fill="none" stroke="black" d="M194.03,-558C236.64,-558 323.66,-558 397.38,-558 397.38,-558 397.38,-558 726.12,-558 798.08,-558 828.47,-559.44 880.75,-510 918.38,-474.42 934.7,-415.39 941.68,-375.37"/>
<polygon fill="black" stroke="black" points="945.12,-376.04 943.25,-365.61 938.21,-374.93 945.12,-376.04"/>
</g>
<!-- 6609983760 -->
<g id="node3" class="node">
<title>6609983760</title>
<polygon fill="white" stroke="black" points="656.75,-292 565,-292 565,-256 656.75,-256 656.75,-292"/>
<text text-anchor="middle" x="610.88" y="-268.6" font-family="Times,serif" font-size="12.00">ER Registration</text>
</g>
<!-- 6609988560 -->
<g id="node4" class="node">
<title>6609988560</title>
<polygon fill="white" stroke="black" points="757.5,-530 692.75,-530 692.75,-494 757.5,-494 757.5,-530"/>
<text text-anchor="middle" x="725.12" y="-506.6" font-family="Times,serif" font-size="12.00">ER Triage</text>
</g>
<!-- 6609988560&#45;&gt;6609983136 -->
<g id="edge12" class="edge">
<title>6609988560&#45;&gt;6609983136</title>
<path fill="none" stroke="black" d="M757.79,-513.48C791.77,-513.39 845.58,-508.23 880.75,-480 913.38,-453.8 930.41,-408.03 938.93,-374.5"/>
<polygon fill="black" stroke="black" points="942.26,-375.66 941.16,-365.12 935.45,-374.04 942.26,-375.66"/>
</g>
<!-- 6609986064 -->
<g id="node5" class="node">
<title>6609986064</title>
<polygon fill="white" stroke="black" points="215.75,-484 118,-484 118,-448 215.75,-448 215.75,-484"/>
<text text-anchor="middle" x="166.88" y="-460.6" font-family="Times,serif" font-size="12.00">ER Sepsis Triage</text>
</g>
<!-- 6609988704 -->
<g id="node18" class="node">
<title>6609988704</title>
<ellipse fill="white" stroke="black" cx="286.75" cy="-411" rx="27" ry="27"/>
</g>
<!-- 6609986064&#45;&gt;6609988704 -->
<g id="edge7" class="edge">
<title>6609986064&#45;&gt;6609988704</title>
<path fill="none" stroke="black" d="M207.45,-447.53C221.84,-440.82 237.97,-433.3 251.82,-426.83"/>
<polygon fill="black" stroke="black" points="252.96,-430.16 260.54,-422.76 250,-423.82 252.96,-430.16"/>
</g>
<!-- 6609986064&#45;&gt;6609983136 -->
<g id="edge10" class="edge">
<title>6609986064&#45;&gt;6609983136</title>
<path fill="none" stroke="black" d="M216.23,-466C262.67,-466 334.82,-466 397.38,-466 397.38,-466 397.38,-466 726.12,-466 798.92,-466 820.89,-453.43 880.75,-412 897.54,-400.38 912.5,-383.39 923.91,-368.14"/>
<polygon fill="black" stroke="black" points="926.65,-370.32 929.65,-360.16 920.97,-366.23 926.65,-370.32"/>
</g>
<!-- 6609987024 -->
<g id="node6" class="node">
<title>6609987024</title>
<polygon fill="white" stroke="black" points="429.62,-374 367.12,-374 367.12,-338 429.62,-338 429.62,-374"/>
<text text-anchor="middle" x="398.38" y="-350.6" font-family="Times,serif" font-size="12.00">IV Liquid</text>
</g>
<!-- 6609984528 -->
<g id="node19" class="node">
<title>6609984528</title>
<ellipse fill="white" stroke="black" cx="502" cy="-373" rx="27" ry="27"/>
</g>
<!-- 6609987024&#45;&gt;6609984528 -->
<g id="edge8" class="edge">
<title>6609987024&#45;&gt;6609984528</title>
<path fill="none" stroke="black" d="M429.87,-361.1C440.54,-362.89 452.65,-364.91 463.81,-366.78"/>
<polygon fill="black" stroke="black" points="463.06,-370.2 473.5,-368.4 464.22,-363.3 463.06,-370.2"/>
</g>
<!-- 6609987024&#45;&gt;6609983136 -->
<g id="edge11" class="edge">
<title>6609987024&#45;&gt;6609983136</title>
<path fill="none" stroke="black" d="M402.29,-337.53C414.15,-269.66 465.21,-38 609.88,-38 609.88,-38 609.88,-38 726.12,-38 795.6,-38 829.45,-14.14 880.75,-61 914.24,-91.59 933.99,-222.23 942.22,-290.72"/>
<polygon fill="black" stroke="black" points="938.72,-290.92 943.36,-300.45 945.67,-290.11 938.72,-290.92"/>
</g>
<!-- 6609983808 -->
<g id="node7" class="node">
<title>6609983808</title>
<polygon fill="white" stroke="black" points="642.88,-400 578.88,-400 578.88,-364 642.88,-364 642.88,-400"/>
<text text-anchor="middle" x="610.88" y="-376.6" font-family="Times,serif" font-size="12.00">Release B</text>
</g>
<!-- 6609983808&#45;&gt;6609983136 -->
<g id="edge18" class="edge">
<title>6609983808&#45;&gt;6609983136</title>
<path fill="none" stroke="black" d="M642.99,-378.16C693.14,-371.87 794.9,-358.7 880.75,-345 888.8,-343.71 897.38,-342.23 905.61,-340.76"/>
<polygon fill="black" stroke="black" points="906.2,-344.21 915.41,-338.98 904.94,-337.33 906.2,-344.21"/>
</g>
<!-- 6609987456 -->
<g id="node8" class="node">
<title>6609987456</title>
<polygon fill="white" stroke="black" points="439,-429 357.75,-429 357.75,-393 439,-393 439,-429"/>
<text text-anchor="middle" x="398.38" y="-405.6" font-family="Times,serif" font-size="12.00">IV Antibiotics</text>
</g>
<!-- 6609987456&#45;&gt;6609983136 -->
<g id="edge17" class="edge">
<title>6609987456&#45;&gt;6609983136</title>
<path fill="none" stroke="black" d="M439.26,-416.15C481.54,-421.15 550.3,-428 609.88,-428 609.88,-428 609.88,-428 726.12,-428 797.16,-428 871.35,-385.94 913.04,-357.79"/>
<polygon fill="black" stroke="black" points="914.93,-360.74 921.17,-352.18 910.96,-354.97 914.93,-360.74"/>
</g>
<!-- 6609990192 -->
<g id="node22" class="node">
<title>6609990192</title>
<ellipse fill="white" stroke="black" cx="502" cy="-301" rx="27" ry="27"/>
</g>
<!-- 6609987456&#45;&gt;6609990192 -->
<g id="edge20" class="edge">
<title>6609987456&#45;&gt;6609990192</title>
<path fill="none" stroke="black" d="M427.52,-392.76C431.54,-389.69 435.49,-386.4 439,-383 443.64,-378.51 462.82,-352.93 478.63,-331.52"/>
<polygon fill="black" stroke="black" points="481.36,-333.71 484.47,-323.59 475.72,-329.56 481.36,-333.71"/>
</g>
<!-- 6609985680 -->
<g id="node9" class="node">
<title>6609985680</title>
<polygon fill="white" stroke="black" points="642.88,-346 578.88,-346 578.88,-310 642.88,-310 642.88,-346"/>
<text text-anchor="middle" x="610.88" y="-322.6" font-family="Times,serif" font-size="12.00">Release A</text>
</g>
<!-- 6609985680&#45;&gt;6609983136 -->
<g id="edge19" class="edge">
<title>6609985680&#45;&gt;6609983136</title>
<path fill="none" stroke="black" d="M643.08,-328.47C703.71,-329.37 837.42,-331.37 905.37,-332.38"/>
<polygon fill="black" stroke="black" points="904.91,-335.88 914.96,-332.53 905.01,-328.88 904.91,-335.88"/>
</g>
<!-- 6609985728 -->
<g id="node21" class="node">
<title>6609985728</title>
<ellipse fill="white" stroke="black" cx="725.12" cy="-223" rx="27" ry="27"/>
</g>
<!-- 6609985680&#45;&gt;6609985728 -->
<g id="edge21" class="edge">
<title>6609985680&#45;&gt;6609985728</title>
<path fill="none" stroke="black" d="M643.17,-310.93C647.9,-307.86 652.58,-304.51 656.75,-301 673.45,-286.93 689.54,-268.55 701.81,-253.16"/>
<polygon fill="black" stroke="black" points="704.24,-255.74 707.63,-245.7 698.72,-251.43 704.24,-255.74"/>
</g>
<!-- 6609987792 -->
<g id="node10" class="node">
<title>6609987792</title>
<polygon fill="white" stroke="black" points="870.62,-286 803.62,-286 803.62,-250 870.62,-250 870.62,-286"/>
<text text-anchor="middle" x="837.12" y="-262.6" font-family="Times,serif" font-size="12.00">Return ER</text>
</g>
<!-- 6609987792&#45;&gt;6609983136 -->
<g id="edge26" class="edge">
<title>6609987792&#45;&gt;6609983136</title>
<path fill="none" stroke="black" d="M868.96,-286.45C882.08,-294.31 897.47,-303.51 911.08,-311.66"/>
<polygon fill="black" stroke="black" points="908.94,-314.46 919.32,-316.59 912.54,-308.45 908.94,-314.46"/>
</g>
<!-- 6609986976 -->
<g id="node11" class="node">
<title>6609986976</title>
<polygon fill="white" stroke="black" points="871.38,-232 802.88,-232 802.88,-196 871.38,-196 871.38,-232"/>
<text text-anchor="middle" x="837.12" y="-208.6" font-family="Times,serif" font-size="12.00">LacticAcid</text>
</g>
<!-- 6609986976&#45;&gt;6609983136 -->
<g id="edge31" class="edge">
<title>6609986976&#45;&gt;6609983136</title>
<path fill="none" stroke="black" d="M870.32,-232.47C874,-235.13 877.56,-237.99 880.75,-241 898,-257.28 913.65,-278.65 925.38,-296.7"/>
<polygon fill="black" stroke="black" points="922.36,-298.47 930.66,-305.05 928.27,-294.73 922.36,-298.47"/>
</g>
<!-- 6609986880 -->
<g id="node12" class="node">
<title>6609986880</title>
<polygon fill="white" stroke="black" points="82,-570 0,-570 0,-534 82,-534 82,-570"/>
<text text-anchor="middle" x="41" y="-546.6" font-family="Times,serif" font-size="12.00">Admission IC</text>
</g>
<!-- 6609987840 -->
<g id="node13" class="node">
<title>6609987840</title>
<polygon fill="white" stroke="black" points="642.5,-238 579.25,-238 579.25,-202 642.5,-202 642.5,-238"/>
<text text-anchor="middle" x="610.88" y="-214.6" font-family="Times,serif" font-size="12.00">Release E</text>
</g>
<!-- 6609987840&#45;&gt;6609983136 -->
<g id="edge29" class="edge">
<title>6609987840&#45;&gt;6609983136</title>
<path fill="none" stroke="black" d="M642.63,-235.78C657.59,-243.21 675.93,-251.96 692.75,-259 736.62,-277.35 747.98,-281.26 793.5,-295 831.36,-306.43 875.23,-317.04 906.3,-324.13"/>
<polygon fill="black" stroke="black" points="905.13,-327.46 915.66,-326.25 906.67,-320.63 905.13,-327.46"/>
</g>
<!-- 6609987840&#45;&gt;6609985728 -->
<g id="edge33" class="edge">
<title>6609987840&#45;&gt;6609985728</title>
<path fill="none" stroke="black" d="M642.84,-220.83C656.33,-221.19 672.26,-221.61 686.43,-221.99"/>
<polygon fill="black" stroke="black" points="686.22,-225.49 696.31,-222.26 686.4,-218.49 686.22,-225.49"/>
</g>
<!-- 6609990576 -->
<g id="node14" class="node">
<title>6609990576</title>
<polygon fill="white" stroke="black" points="880.75,-140 793.5,-140 793.5,-104 880.75,-104 880.75,-140"/>
<text text-anchor="middle" x="837.12" y="-116.6" font-family="Times,serif" font-size="12.00">Admission NC</text>
</g>
<!-- 6609990576&#45;&gt;6609983136 -->
<g id="edge30" class="edge">
<title>6609990576&#45;&gt;6609983136</title>
<path fill="none" stroke="black" d="M867.25,-140.26C872.22,-144.33 876.99,-148.95 880.75,-154 911.63,-195.47 929.39,-252.91 938.55,-291.44"/>
<polygon fill="black" stroke="black" points="935.04,-291.81 940.68,-300.78 941.87,-290.26 935.04,-291.81"/>
</g>
<!-- 6609984048 -->
<g id="node15" class="node">
<title>6609984048</title>
<polygon fill="white" stroke="black" points="642.88,-184 578.88,-184 578.88,-148 642.88,-148 642.88,-184"/>
<text text-anchor="middle" x="610.88" y="-160.6" font-family="Times,serif" font-size="12.00">Release C</text>
</g>
<!-- 6609984048&#45;&gt;6609983136 -->
<g id="edge28" class="edge">
<title>6609984048&#45;&gt;6609983136</title>
<path fill="none" stroke="black" d="M643.03,-159.03C696.88,-148.87 808.51,-136.29 880.75,-187 914.91,-210.98 931.7,-257 939.75,-290.99"/>
<polygon fill="black" stroke="black" points="936.27,-291.51 941.83,-300.53 943.11,-290.01 936.27,-291.51"/>
</g>
<!-- 6609984048&#45;&gt;6609985728 -->
<g id="edge34" class="edge">
<title>6609984048&#45;&gt;6609985728</title>
<path fill="none" stroke="black" d="M643.14,-181.88C657.9,-189.37 675.53,-198.33 690.57,-205.96"/>
<polygon fill="black" stroke="black" points="688.65,-208.91 699.15,-210.32 691.82,-202.67 688.65,-208.91"/>
</g>
<!-- 6609987408 -->
<g id="node16" class="node">
<title>6609987408</title>
<polygon fill="white" stroke="black" points="643.25,-116 578.5,-116 578.5,-80 643.25,-80 643.25,-116"/>
<text text-anchor="middle" x="610.88" y="-92.6" font-family="Times,serif" font-size="12.00">Release D</text>
</g>
<!-- 6609987408&#45;&gt;6609983136 -->
<g id="edge27" class="edge">
<title>6609987408&#45;&gt;6609983136</title>
<path fill="none" stroke="black" d="M643.49,-86.38C698.03,-68.54 810.7,-41.74 880.75,-95 911.85,-118.65 932.12,-229.26 941.22,-291.02"/>
<polygon fill="black" stroke="black" points="937.74,-291.41 942.62,-300.81 944.67,-290.42 937.74,-291.41"/>
</g>
<!-- 6609987408&#45;&gt;6609985728 -->
<g id="edge32" class="edge">
<title>6609987408&#45;&gt;6609985728</title>
<path fill="none" stroke="black" d="M633.06,-116.14C640.77,-123.04 649.39,-131.15 656.75,-139 672.57,-155.87 688.84,-176.05 701.42,-192.41"/>
<polygon fill="black" stroke="black" points="698.61,-194.5 707.46,-200.34 704.18,-190.26 698.61,-194.5"/>
</g>
<!-- 6609986736 -->
<g id="node17" class="node">
<title>6609986736</title>
<ellipse fill="white" stroke="black" cx="41" cy="-489" rx="27" ry="27"/>
<text text-anchor="start" x="31.25" y="-476.95" font-family="Times,serif" font-size="34.00">●</text>
</g>
<!-- 6609986736&#45;&gt;6609987360 -->
<g id="edge6" class="edge">
<title>6609986736&#45;&gt;6609987360</title>
<path fill="none" stroke="black" d="M62.66,-505.5C69.25,-511.29 76.3,-518.08 82,-525 101.78,-549 91.84,-568.18 118,-585 154.26,-608.32 204.23,-611.12 240.18,-609.27"/>
<polygon fill="black" stroke="black" points="240.07,-612.79 249.82,-608.63 239.61,-605.8 240.07,-612.79"/>
</g>
<!-- 6609986736&#45;&gt;6609993408 -->
<g id="edge2" class="edge">
<title>6609986736&#45;&gt;6609993408</title>
<path fill="none" stroke="black" d="M65.01,-501.82C83.17,-511.93 108.83,-526.23 129.73,-537.87"/>
<polygon fill="black" stroke="black" points="127.79,-540.79 138.23,-542.6 131.2,-534.68 127.79,-540.79"/>
</g>
<!-- 6609986736&#45;&gt;6609983760 -->
<g id="edge1" class="edge">
<title>6609986736&#45;&gt;6609983760</title>
<path fill="none" stroke="black" d="M42.77,-461.66C47.25,-358.68 77.77,0 285.75,0 285.75,0 285.75,0 399.38,0 531.55,0 469.28,-155.86 565,-247 565.62,-247.59 566.25,-248.17 566.89,-248.74"/>
<polygon fill="black" stroke="black" points="564.64,-251.42 574.67,-254.84 568.96,-245.92 564.64,-251.42"/>
</g>
<!-- 6609986736&#45;&gt;6609988560 -->
<g id="edge5" class="edge">
<title>6609986736&#45;&gt;6609988560</title>
<path fill="none" stroke="black" d="M67.9,-493.06C112.34,-499.66 206.05,-512 285.75,-512 285.75,-512 285.75,-512 503,-512 564.85,-512 636.42,-512 680.99,-512"/>
<polygon fill="black" stroke="black" points="680.75,-515.5 690.75,-512 680.75,-508.5 680.75,-515.5"/>
</g>
<!-- 6609986736&#45;&gt;6609986064 -->
<g id="edge4" class="edge">
<title>6609986736&#45;&gt;6609986064</title>
<path fill="none" stroke="black" d="M67.97,-484.18C79.22,-482.09 92.89,-479.55 106.41,-477.04"/>
<polygon fill="black" stroke="black" points="106.99,-480.49 116.19,-475.23 105.71,-473.61 106.99,-480.49"/>
</g>
<!-- 6609986736&#45;&gt;6609987024 -->
<g id="edge3" class="edge">
<title>6609986736&#45;&gt;6609987024</title>
<path fill="none" stroke="black" d="M63.46,-473.76C78.42,-463.41 99.02,-449.72 118,-439 175.38,-406.59 188.57,-393.72 251.75,-375 285.85,-364.9 326.02,-360.16 355.53,-357.95"/>
<polygon fill="black" stroke="black" points="355.42,-361.46 365.16,-357.29 354.95,-354.48 355.42,-361.46"/>
</g>
<!-- 6609988704&#45;&gt;6609987456 -->
<g id="edge14" class="edge">
<title>6609988704&#45;&gt;6609987456</title>
<path fill="none" stroke="black" d="M314.01,-411C323.69,-411 335.03,-411 346.16,-411"/>
<polygon fill="black" stroke="black" points="346.1,-414.5 356.1,-411 346.1,-407.5 346.1,-414.5"/>
</g>
<!-- 6609984528&#45;&gt;6609983808 -->
<g id="edge15" class="edge">
<title>6609984528&#45;&gt;6609983808</title>
<path fill="none" stroke="black" d="M529.14,-375.2C540.71,-376.18 554.61,-377.35 567.59,-378.44"/>
<polygon fill="black" stroke="black" points="566.91,-381.89 577.17,-379.25 567.5,-374.92 566.91,-381.89"/>
</g>
<!-- 6609984528&#45;&gt;6609985680 -->
<g id="edge16" class="edge">
<title>6609984528&#45;&gt;6609985680</title>
<path fill="none" stroke="black" d="M527.25,-362.79C539.32,-357.71 554.26,-351.41 568.11,-345.59"/>
<polygon fill="black" stroke="black" points="569.16,-348.94 577.02,-341.84 566.44,-342.49 569.16,-348.94"/>
</g>
<!-- 6609985728&#45;&gt;6609987792 -->
<g id="edge25" class="edge">
<title>6609985728&#45;&gt;6609987792</title>
<path fill="none" stroke="black" d="M750.54,-232.99C763.07,-238.11 778.7,-244.51 793.17,-250.43"/>
<polygon fill="black" stroke="black" points="791.45,-253.51 802.03,-254.05 794.1,-247.03 791.45,-253.51"/>
</g>
<!-- 6609990192&#45;&gt;6609983760 -->
<g id="edge22" class="edge">
<title>6609990192&#45;&gt;6609983760</title>
<path fill="none" stroke="black" d="M528.6,-294.53C536.24,-292.6 544.94,-290.41 553.73,-288.18"/>
<polygon fill="black" stroke="black" points="554.54,-291.59 563.38,-285.75 552.83,-284.8 554.54,-291.59"/>
</g>
<!-- 6609990192&#45;&gt;6609983808 -->
<g id="edge24" class="edge">
<title>6609990192&#45;&gt;6609983808</title>
<path fill="none" stroke="black" d="M522.37,-319.43C534.24,-330.33 550,-344.08 565,-355 566.33,-355.97 567.7,-356.94 569.09,-357.9"/>
<polygon fill="black" stroke="black" points="566.98,-360.69 577.25,-363.27 570.82,-354.85 566.98,-360.69"/>
</g>
<!-- 6609990192&#45;&gt;6609985680 -->
<g id="edge23" class="edge">
<title>6609990192&#45;&gt;6609985680</title>
<path fill="none" stroke="black" d="M528.6,-307.47C540.37,-310.44 554.64,-314.05 567.92,-317.4"/>
<polygon fill="black" stroke="black" points="566.75,-320.71 577.3,-319.77 568.46,-313.93 566.75,-320.71"/>
</g>
</g>
</svg>
