<?xml version="1.0" encoding="UTF-8" standalone="no"?>
<!DOCTYPE svg PUBLIC "-//W3C//DTD SVG 1.1//EN"
 "http://www.w3.org/Graphics/SVG/1.1/DTD/svg11.dtd">
<!-- Generated by graphviz version 12.2.1 (20241206.2353)
 -->
<!-- Title: imported_1767730592.1986618 Pages: 1 -->
<svg width="4013pt" height="1520pt"
 viewBox="0.00 0.00 4012.75 1520.00" xmlns="http://www.w3.org/2000/svg" xmlns:xlink="http://www.w3.org/1999/xlink">
<g id="graph0" class="graph" transform="scale(1 1) rotate(0) translate(4 1516)">
<title>imported_1767730592.1986618</title>
<polygon fill="white" stroke="none" points="-4,4 -4,-1516 4008.75,-1516 4008.75,4 -4,4"/>
<!-- 6238375808 -->
<g id="node1" class="node">
<title>6238375808</title>
<polygon fill="white" stroke="black" points="181.75,-316 90,-316 90,-280 181.75,-280 181.75,-316"/>
<text text-anchor="middle" x="135.88" y="-292.6" font-family="Times,serif" font-size="12.00">ER Registration</text>
</g>
<!-- 6238384880 -->
<g id="node80" class="node">
<title>6238384880</title>
<ellipse fill="white" stroke="black" cx="244.75" cy="-298" rx="27" ry="27"/>
</g>
<!-- 6238375808&#45;&gt;6238384880 -->
<g id="edge11" class="edge">
<title>6238375808&#45;&gt;6238384880</title>
<path fill="none" stroke="black" d="M182.2,-298C190.21,-298 198.47,-298 206.23,-298"/>
<polygon fill="black" stroke="black" points="206.03,-301.5 216.03,-298 206.03,-294.5 206.03,-301.5"/>
</g>
<!-- 6240915280 -->
<g id="node2" class="node">
<title>6240915280</title>
<polygon fill="black" stroke="black" points="642.5,-124 588.5,-124 588.5,-88 642.5,-88 642.5,-124"/>
</g>
<!-- 6238385984 -->
<g id="node78" class="node">
<title>6238385984</title>
<ellipse fill="white" stroke="black" cx="2356.5" cy="-409" rx="27" ry="27"/>
</g>
<!-- 6240915280&#45;&gt;6238385984 -->
<g id="edge8" class="edge">
<title>6240915280&#45;&gt;6238385984</title>
<path fill="none" stroke="black" d="M642.77,-107.56C684.28,-109.89 767.56,-114 838.25,-114 838.25,-114 838.25,-114 1200.25,-114 1326.85,-114 1357.65,-136 1484.25,-136 1484.25,-136 1484.25,-136 1969.5,-136 2135.64,-136 2280.37,-306.67 2333.68,-378.12"/>
<polygon fill="black" stroke="black" points="2330.66,-379.92 2339.4,-385.9 2336.3,-375.77 2330.66,-379.92"/>
</g>
<!-- 6240919120 -->
<g id="node3" class="node">
<title>6240919120</title>
<polygon fill="black" stroke="black" points="367.12,-247 313.12,-247 313.12,-211 367.12,-211 367.12,-247"/>
</g>
<!-- 6238387760 -->
<g id="node77" class="node">
<title>6238387760</title>
<ellipse fill="white" stroke="black" cx="615.5" cy="-266" rx="27" ry="27"/>
</g>
<!-- 6240919120&#45;&gt;6238387760 -->
<g id="edge12" class="edge">
<title>6240919120&#45;&gt;6238387760</title>
<path fill="none" stroke="black" d="M367.34,-232.55C416.12,-239.15 520.98,-253.34 577.16,-260.95"/>
<polygon fill="black" stroke="black" points="576.49,-264.39 586.87,-262.26 577.43,-257.45 576.49,-264.39"/>
</g>
<!-- 6240659040 -->
<g id="node4" class="node">
<title>6240659040</title>
<polygon fill="black" stroke="black" points="162.88,-262 108.88,-262 108.88,-226 162.88,-226 162.88,-262"/>
</g>
<!-- 6240659040&#45;&gt;6238384880 -->
<g id="edge10" class="edge">
<title>6240659040&#45;&gt;6238384880</title>
<path fill="none" stroke="black" d="M163.29,-257.35C177.46,-264.5 195.06,-273.4 210.18,-281.04"/>
<polygon fill="black" stroke="black" points="208.33,-284.02 218.83,-285.41 211.48,-277.78 208.33,-284.02"/>
</g>
<!-- 6238382432 -->
<g id="node5" class="node">
<title>6238382432</title>
<polygon fill="black" stroke="black" points="462.5,-78 408.5,-78 408.5,-42 462.5,-42 462.5,-78"/>
</g>
<!-- 6238379840 -->
<g id="node79" class="node">
<title>6238379840</title>
<ellipse fill="white" stroke="black" cx="3111" cy="-279" rx="27" ry="27"/>
</g>
<!-- 6238382432&#45;&gt;6238379840 -->
<g id="edge9" class="edge">
<title>6238382432&#45;&gt;6238379840</title>
<path fill="none" stroke="black" d="M462.74,-60C497.46,-60 560.57,-60 614.5,-60 614.5,-60 614.5,-60 2267.5,-60 2591.1,-60 2962.77,-213.21 3075.71,-263.33"/>
<polygon fill="black" stroke="black" points="3074.19,-266.48 3084.74,-267.37 3077.04,-260.09 3074.19,-266.48"/>
</g>
<!-- 6238379504 -->
<g id="node6" class="node">
<title>6238379504</title>
<polygon fill="black" stroke="black" points="271.75,-170 217.75,-170 217.75,-134 271.75,-134 271.75,-170"/>
</g>
<!-- 6238382720 -->
<g id="node76" class="node">
<title>6238382720</title>
<ellipse fill="white" stroke="black" cx="1199.25" cy="-368" rx="27" ry="27"/>
</g>
<!-- 6238379504&#45;&gt;6238382720 -->
<g id="edge7" class="edge">
<title>6238379504&#45;&gt;6238382720</title>
<path fill="none" stroke="black" d="M272.01,-152C308.47,-152 376.5,-152 434.5,-152 434.5,-152 434.5,-152 1020.25,-152 1111.97,-152 1165.2,-269.42 1186.84,-331.12"/>
<polygon fill="black" stroke="black" points="1183.5,-332.17 1190.03,-340.51 1190.13,-329.92 1183.5,-332.17"/>
</g>
<!-- 6238380176 -->
<g id="node7" class="node">
<title>6238380176</title>
<polygon fill="white" stroke="black" points="3236.5,-553 3174,-553 3174,-517 3236.5,-517 3236.5,-553"/>
<text text-anchor="middle" x="3205.25" y="-529.6" font-family="Times,serif" font-size="12.00">IV Liquid</text>
</g>
<!-- 6238379984 -->
<g id="node85" class="node">
<title>6238379984</title>
<ellipse fill="white" stroke="black" cx="3299.5" cy="-539" rx="27" ry="27"/>
</g>
<!-- 6238380176&#45;&gt;6238379984 -->
<g id="edge18" class="edge">
<title>6238380176&#45;&gt;6238379984</title>
<path fill="none" stroke="black" d="M3236.97,-536.33C3244.64,-536.66 3252.97,-537.03 3260.93,-537.37"/>
<polygon fill="black" stroke="black" points="3260.58,-540.86 3270.72,-537.8 3260.89,-533.87 3260.58,-540.86"/>
</g>
<!-- 6238383536 -->
<g id="node8" class="node">
<title>6238383536</title>
<polygon fill="white" stroke="black" points="372.5,-345 307.75,-345 307.75,-309 372.5,-309 372.5,-345"/>
<text text-anchor="middle" x="340.12" y="-321.6" font-family="Times,serif" font-size="12.00">ER Triage</text>
</g>
<!-- 6238376096 -->
<g id="node82" class="node">
<title>6238376096</title>
<ellipse fill="white" stroke="black" cx="435.5" cy="-385" rx="27" ry="27"/>
</g>
<!-- 6238383536&#45;&gt;6238376096 -->
<g id="edge20" class="edge">
<title>6238383536&#45;&gt;6238376096</title>
<path fill="none" stroke="black" d="M370.67,-345.35C380.79,-351.64 392.16,-358.7 402.47,-365.11"/>
<polygon fill="black" stroke="black" points="400.33,-367.89 410.67,-370.2 404.02,-361.95 400.33,-367.89"/>
</g>
<!-- 6240911680 -->
<g id="node9" class="node">
<title>6240911680</title>
<polygon fill="white" stroke="black" points="1332.25,-571 1262.25,-571 1262.25,-535 1332.25,-535 1332.25,-571"/>
<text text-anchor="middle" x="1297.25" y="-547.6" font-family="Times,serif" font-size="12.00">Leucocytes</text>
</g>
<!-- 6238382336 -->
<g id="node81" class="node">
<title>6238382336</title>
<ellipse fill="white" stroke="black" cx="1395.25" cy="-614" rx="27" ry="27"/>
</g>
<!-- 6240911680&#45;&gt;6238382336 -->
<g id="edge21" class="edge">
<title>6240911680&#45;&gt;6238382336</title>
<path fill="none" stroke="black" d="M1327.31,-571.47C1338.41,-578.52 1351.12,-586.59 1362.46,-593.8"/>
<polygon fill="black" stroke="black" points="1360.4,-596.64 1370.72,-599.05 1364.15,-590.73 1360.4,-596.64"/>
</g>
<!-- 6238375904 -->
<g id="node10" class="node">
<title>6238375904</title>
<polygon fill="white" stroke="black" points="2473.5,-498 2419.5,-498 2419.5,-462 2473.5,-462 2473.5,-498"/>
<text text-anchor="middle" x="2446.5" y="-474.6" font-family="Times,serif" font-size="12.00">CRP</text>
</g>
<!-- 6238378544 -->
<g id="node83" class="node">
<title>6238378544</title>
<ellipse fill="white" stroke="black" cx="2536.5" cy="-604" rx="27" ry="27"/>
</g>
<!-- 6238375904&#45;&gt;6238378544 -->
<g id="edge22" class="edge">
<title>6238375904&#45;&gt;6238378544</title>
<path fill="none" stroke="black" d="M2460.48,-498.3C2474.44,-517.95 2496.85,-549.54 2513.55,-573.07"/>
<polygon fill="black" stroke="black" points="2510.57,-574.92 2519.21,-581.05 2516.28,-570.87 2510.57,-574.92"/>
</g>
<!-- 6238379120 -->
<g id="node11" class="node">
<title>6238379120</title>
<polygon fill="white" stroke="black" points="776.25,-284 678.5,-284 678.5,-248 776.25,-248 776.25,-284"/>
<text text-anchor="middle" x="727.38" y="-260.6" font-family="Times,serif" font-size="12.00">ER Sepsis Triage</text>
</g>
<!-- 6238386368 -->
<g id="node84" class="node">
<title>6238386368</title>
<ellipse fill="white" stroke="black" cx="839.25" cy="-266" rx="27" ry="27"/>
</g>
<!-- 6238379120&#45;&gt;6238386368 -->
<g id="edge19" class="edge">
<title>6238379120&#45;&gt;6238386368</title>
<path fill="none" stroke="black" d="M776.57,-266C784.61,-266 792.85,-266 800.57,-266"/>
<polygon fill="black" stroke="black" points="800.31,-269.5 810.31,-266 800.31,-262.5 800.31,-269.5"/>
</g>
<!-- 6238372352 -->
<g id="node12" class="node">
<title>6238372352</title>
<polygon fill="black" stroke="black" points="3416.5,-520 3362.5,-520 3362.5,-484 3416.5,-484 3416.5,-520"/>
</g>
<!-- 6238379168 -->
<g id="node90" class="node">
<title>6238379168</title>
<ellipse fill="white" stroke="black" cx="3479.5" cy="-493" rx="27" ry="27"/>
</g>
<!-- 6238372352&#45;&gt;6238379168 -->
<g id="edge69" class="edge">
<title>6238372352&#45;&gt;6238379168</title>
<path fill="none" stroke="black" d="M3416.9,-499.3C3424.54,-498.52 3433.03,-497.65 3441.2,-496.81"/>
<polygon fill="black" stroke="black" points="3441.32,-500.32 3450.91,-495.82 3440.61,-493.36 3441.32,-500.32"/>
</g>
<!-- 6238384352 -->
<g id="node95" class="node">
<title>6238384352</title>
<ellipse fill="white" stroke="black" cx="3479.5" cy="-365" rx="27" ry="27"/>
</g>
<!-- 6238372352&#45;&gt;6238384352 -->
<g id="edge71" class="edge">
<title>6238372352&#45;&gt;6238384352</title>
<path fill="none" stroke="black" d="M3409.33,-483.66C3411.86,-480.86 3414.32,-477.92 3416.5,-475 3434.24,-451.17 3450.58,-421.74 3462.02,-399.32"/>
<polygon fill="black" stroke="black" points="3465.04,-401.1 3466.4,-390.59 3458.78,-397.96 3465.04,-401.1"/>
</g>
<!-- 6238383872 -->
<g id="node13" class="node">
<title>6238383872</title>
<polygon fill="black" stroke="black" points="1905.5,-1077 1851.5,-1077 1851.5,-1041 1905.5,-1041 1905.5,-1077"/>
</g>
<!-- 6238376048 -->
<g id="node97" class="node">
<title>6238376048</title>
<ellipse fill="white" stroke="black" cx="1968.5" cy="-747" rx="27" ry="27"/>
</g>
<!-- 6238383872&#45;&gt;6238376048 -->
<g id="edge84" class="edge">
<title>6238383872&#45;&gt;6238376048</title>
<path fill="none" stroke="black" d="M1884.61,-1040.88C1898.69,-990.96 1938.24,-850.75 1957.16,-783.66"/>
<polygon fill="black" stroke="black" points="1960.47,-784.81 1959.82,-774.24 1953.73,-782.91 1960.47,-784.81"/>
</g>
<!-- 6238386176 -->
<g id="node14" class="node">
<title>6238386176</title>
<polygon fill="black" stroke="black" points="1512.25,-900 1458.25,-900 1458.25,-864 1512.25,-864 1512.25,-900"/>
</g>
<!-- 6238386176&#45;&gt;6238382720 -->
<g id="edge59" class="edge">
<title>6238386176&#45;&gt;6238382720</title>
<path fill="none" stroke="black" d="M1465.98,-863.74C1463.31,-860.88 1460.66,-857.9 1458.25,-855 1362.38,-739.52 1327.79,-715.02 1262.25,-580 1234.26,-522.33 1216.39,-449.57 1207.35,-406.03"/>
<polygon fill="black" stroke="black" points="1210.8,-405.42 1205.39,-396.31 1203.94,-406.8 1210.8,-405.42"/>
</g>
<!-- 6238374080 -->
<g id="node15" class="node">
<title>6238374080</title>
<polygon fill="white" stroke="black" points="2663.88,-850 2599.88,-850 2599.88,-814 2663.88,-814 2663.88,-850"/>
<text text-anchor="middle" x="2631.88" y="-826.6" font-family="Times,serif" font-size="12.00">Release A</text>
</g>
<!-- 6238387040 -->
<g id="node96" class="node">
<title>6238387040</title>
<ellipse fill="white" stroke="black" cx="3479.5" cy="-985" rx="27" ry="27"/>
</g>
<!-- 6238374080&#45;&gt;6238387040 -->
<g id="edge70" class="edge">
<title>6238374080&#45;&gt;6238387040</title>
<path fill="none" stroke="black" d="M2646.38,-850.35C2674.78,-886.62 2744.6,-964 2823.5,-964 2823.5,-964 2823.5,-964 3017.38,-964 3174.97,-964 3362.55,-976.39 3441.06,-982.14"/>
<polygon fill="black" stroke="black" points="3440.52,-985.61 3450.75,-982.86 3441.04,-978.63 3440.52,-985.61"/>
</g>
<!-- 6238385552 -->
<g id="node16" class="node">
<title>6238385552</title>
<polygon fill="black" stroke="black" points="1512.25,-846 1458.25,-846 1458.25,-810 1512.25,-810 1512.25,-846"/>
</g>
<!-- 6238380368 -->
<g id="node94" class="node">
<title>6238380368</title>
<ellipse fill="white" stroke="black" cx="1575.25" cy="-1257" rx="27" ry="27"/>
</g>
<!-- 6238385552&#45;&gt;6238380368 -->
<g id="edge75" class="edge">
<title>6238385552&#45;&gt;6238380368</title>
<path fill="none" stroke="black" d="M1506.61,-846.33C1508.78,-849.05 1510.75,-851.97 1512.25,-855 1543.78,-918.68 1564.05,-1130.67 1571.28,-1218.44"/>
<polygon fill="black" stroke="black" points="1567.78,-1218.54 1572.07,-1228.22 1574.76,-1217.97 1567.78,-1218.54"/>
</g>
<!-- 6238379792 -->
<g id="node17" class="node">
<title>6238379792</title>
<polygon fill="black" stroke="black" points="2658.88,-758 2604.88,-758 2604.88,-722 2658.88,-722 2658.88,-758"/>
</g>
<!-- 6238379792&#45;&gt;6238376048 -->
<g id="edge73" class="edge">
<title>6238379792&#45;&gt;6238376048</title>
<path fill="none" stroke="black" d="M2604.51,-730.99C2569.2,-719.76 2504.4,-702 2447.5,-702 2265.5,-702 2265.5,-702 2265.5,-702 2160.86,-702 2133.97,-706.8 2031.5,-728 2022.84,-729.79 2013.65,-732.27 2005.08,-734.85"/>
<polygon fill="black" stroke="black" points="2004.2,-731.46 1995.71,-737.8 2006.3,-738.14 2004.2,-731.46"/>
</g>
<!-- 6238387472 -->
<g id="node18" class="node">
<title>6238387472</title>
<polygon fill="white" stroke="black" points="3815.25,-604 3751.25,-604 3751.25,-568 3815.25,-568 3815.25,-604"/>
<text text-anchor="middle" x="3783.25" y="-580.6" font-family="Times,serif" font-size="12.00">Release B</text>
</g>
<!-- 6238377632 -->
<g id="node98" class="node">
<title>6238377632</title>
<ellipse fill="white" stroke="black" cx="3883.75" cy="-859" rx="27" ry="27"/>
<ellipse fill="none" stroke="black" cx="3883.75" cy="-859" rx="31" ry="31"/>
<text text-anchor="start" x="3875.12" y="-847.73" font-family="Times,serif" font-size="32.00">â– </text>
</g>
<!-- 6238387472&#45;&gt;6238377632 -->
<g id="edge92" class="edge">
<title>6238387472&#45;&gt;6238377632</title>
<path fill="none" stroke="black" d="M3791.53,-604.29C3798.23,-621.26 3808.38,-647.25 3816.75,-670 3835.59,-721.21 3856.15,-780.69 3869.23,-819.04"/>
<polygon fill="black" stroke="black" points="3865.85,-819.98 3872.39,-828.32 3872.48,-817.73 3865.85,-819.98"/>
</g>
<!-- 6238374032 -->
<g id="node19" class="node">
<title>6238374032</title>
<polygon fill="black" stroke="black" points="956.25,-284 902.25,-284 902.25,-248 956.25,-248 956.25,-284"/>
</g>
<!-- 6238374032&#45;&gt;6238385984 -->
<g id="edge62" class="edge">
<title>6238374032&#45;&gt;6238385984</title>
<path fill="none" stroke="black" d="M956.71,-256.7C991.15,-245.45 1053.43,-228 1108.25,-228 1108.25,-228 1108.25,-228 1298.25,-228 1560.63,-228 1615.12,-342 1877.5,-342 1877.5,-342 1877.5,-342 2177.5,-342 2231.44,-342 2289.03,-369.29 2323.64,-389.03"/>
<polygon fill="black" stroke="black" points="2321.49,-391.83 2331.89,-393.86 2325.03,-385.79 2321.49,-391.83"/>
</g>
<!-- 6238386704 -->
<g id="node88" class="node">
<title>6238386704</title>
<ellipse fill="white" stroke="black" cx="1199.25" cy="-892" rx="27" ry="27"/>
</g>
<!-- 6238374032&#45;&gt;6238386704 -->
<g id="edge72" class="edge">
<title>6238374032&#45;&gt;6238386704</title>
<path fill="none" stroke="black" d="M956.57,-266.19C1002.87,-268.16 1097.65,-279.85 1136.25,-341 1190.23,-426.51 1197.37,-742.78 1198.19,-853.45"/>
<polygon fill="black" stroke="black" points="1194.69,-853.22 1198.25,-863.2 1201.69,-853.17 1194.69,-853.22"/>
</g>
<!-- 6238372112 -->
<g id="node89" class="node">
<title>6238372112</title>
<ellipse fill="white" stroke="black" cx="1019.25" cy="-321" rx="27" ry="27"/>
</g>
<!-- 6238374032&#45;&gt;6238372112 -->
<g id="edge81" class="edge">
<title>6238374032&#45;&gt;6238372112</title>
<path fill="none" stroke="black" d="M956.65,-282.5C965.9,-288.28 976.38,-294.83 986.04,-300.87"/>
<polygon fill="black" stroke="black" points="984.11,-303.79 994.45,-306.12 987.82,-297.86 984.11,-303.79"/>
</g>
<!-- 6238387616 -->
<g id="node20" class="node">
<title>6238387616</title>
<polygon fill="black" stroke="black" points="1995.5,-456 1941.5,-456 1941.5,-420 1995.5,-420 1995.5,-456"/>
</g>
<!-- 6238387616&#45;&gt;6238385984 -->
<g id="edge66" class="edge">
<title>6238387616&#45;&gt;6238385984</title>
<path fill="none" stroke="black" d="M1995.73,-436.03C2062.71,-431 2240.26,-417.66 2318.07,-411.81"/>
<polygon fill="black" stroke="black" points="2318.02,-415.33 2327.73,-411.09 2317.49,-408.35 2318.02,-415.33"/>
</g>
<!-- 6238384160 -->
<g id="node21" class="node">
<title>6238384160</title>
<polygon fill="black" stroke="black" points="3416.5,-466 3362.5,-466 3362.5,-430 3416.5,-430 3416.5,-466"/>
</g>
<!-- 6238384160&#45;&gt;6238385984 -->
<g id="edge63" class="edge">
<title>6238384160&#45;&gt;6238385984</title>
<path fill="none" stroke="black" d="M3362.01,-443.47C3316.96,-434.41 3225.35,-409.8 3174,-353 3139.5,-314.84 3179.65,-273.19 3138,-243 3008.45,-149.09 2553.17,-202.04 2419.5,-290 2391.28,-308.57 2375.14,-344.29 2366.44,-371.77"/>
<polygon fill="black" stroke="black" points="2363.15,-370.56 2363.69,-381.14 2369.87,-372.53 2363.15,-370.56"/>
</g>
<!-- 6238376480 -->
<g id="node22" class="node">
<title>6238376480</title>
<polygon fill="black" stroke="black" points="2658.88,-460 2604.88,-460 2604.88,-424 2658.88,-424 2658.88,-460"/>
</g>
<!-- 6238376480&#45;&gt;6238385984 -->
<g id="edge68" class="edge">
<title>6238376480&#45;&gt;6238385984</title>
<path fill="none" stroke="black" d="M2604.74,-438.85C2556.02,-432.96 2451.17,-420.31 2394.94,-413.52"/>
<polygon fill="black" stroke="black" points="2395.56,-410.07 2385.21,-412.35 2394.72,-417.02 2395.56,-410.07"/>
</g>
<!-- 6238383008 -->
<g id="node23" class="node">
<title>6238383008</title>
<polygon fill="white" stroke="black" points="2663.88,-996 2599.88,-996 2599.88,-960 2663.88,-960 2663.88,-996"/>
<text text-anchor="middle" x="2631.88" y="-972.6" font-family="Times,serif" font-size="12.00">Release C</text>
</g>
<!-- 6238380416 -->
<g id="node87" class="node">
<title>6238380416</title>
<ellipse fill="white" stroke="black" cx="3479.5" cy="-1130" rx="27" ry="27"/>
</g>
<!-- 6238383008&#45;&gt;6238380416 -->
<g id="edge83" class="edge">
<title>6238383008&#45;&gt;6238380416</title>
<path fill="none" stroke="black" d="M2664.36,-993.83C2739.45,-1030.08 2935.82,-1116 3110,-1116 3110,-1116 3110,-1116 3300.5,-1116 3349.1,-1116 3404.93,-1121.25 3440.91,-1125.32"/>
<polygon fill="black" stroke="black" points="3440.47,-1128.79 3450.81,-1126.47 3441.28,-1121.84 3440.47,-1128.79"/>
</g>
<!-- 6238382384 -->
<g id="node24" class="node">
<title>6238382384</title>
<polygon fill="black" stroke="black" points="2948.75,-300 2894.75,-300 2894.75,-264 2948.75,-264 2948.75,-300"/>
</g>
<!-- 6238382384&#45;&gt;6238379840 -->
<g id="edge64" class="edge">
<title>6238382384&#45;&gt;6238379840</title>
<path fill="none" stroke="black" d="M2949.18,-281.58C2981.38,-281.06 3036,-280.19 3072.53,-279.6"/>
<polygon fill="black" stroke="black" points="3072.25,-283.11 3082.19,-279.45 3072.14,-276.11 3072.25,-283.11"/>
</g>
<!-- 6238382768 -->
<g id="node25" class="node">
<title>6238382768</title>
<polygon fill="black" stroke="black" points="1136.25,-928 1082.25,-928 1082.25,-892 1136.25,-892 1136.25,-928"/>
</g>
<!-- 6238382768&#45;&gt;6238377632 -->
<g id="edge90" class="edge">
<title>6238382768&#45;&gt;6238377632</title>
<path fill="none" stroke="black" d="M1113.05,-928.24C1127.13,-1016.83 1193.68,-1398 1296.25,-1398 1296.25,-1398 1296.25,-1398 2537.5,-1398 2664.61,-1398 2696.39,-1397 2823.5,-1397 2823.5,-1397 2823.5,-1397 3112,-1397 3270.98,-1397 3720,-1400.15 3816.75,-1274 3839.25,-1244.66 3867.51,-1001.46 3878.29,-901.58"/>
<polygon fill="black" stroke="black" points="3881.77,-901.95 3879.36,-891.64 3874.81,-901.21 3881.77,-901.95"/>
</g>
<!-- 6238374320 -->
<g id="node26" class="node">
<title>6238374320</title>
<polygon fill="white" stroke="black" points="2664.25,-942 2599.5,-942 2599.5,-906 2664.25,-906 2664.25,-942"/>
<text text-anchor="middle" x="2631.88" y="-918.6" font-family="Times,serif" font-size="12.00">Release D</text>
</g>
<!-- 6238388096 -->
<g id="node86" class="node">
<title>6238388096</title>
<ellipse fill="white" stroke="black" cx="3479.5" cy="-1058" rx="27" ry="27"/>
</g>
<!-- 6238374320&#45;&gt;6238388096 -->
<g id="edge86" class="edge">
<title>6238374320&#45;&gt;6238388096</title>
<path fill="none" stroke="black" d="M2654.67,-942.25C2672.35,-956.92 2695.14,-975.48 2700.25,-978 2784.34,-1019.4 3016.27,-1078 3110,-1078 3110,-1078 3110,-1078 3300.5,-1078 3349.61,-1078 3405.86,-1070.39 3441.76,-1064.56"/>
<polygon fill="black" stroke="black" points="3441.88,-1068.09 3451.17,-1062.99 3440.73,-1061.18 3441.88,-1068.09"/>
</g>
<!-- 6238375856 -->
<g id="node27" class="node">
<title>6238375856</title>
<polygon fill="black" stroke="black" points="2658.88,-704 2604.88,-704 2604.88,-668 2658.88,-668 2658.88,-704"/>
</g>
<!-- 6238378688 -->
<g id="node91" class="node">
<title>6238378688</title>
<ellipse fill="white" stroke="black" cx="2727.25" cy="-786" rx="27" ry="27"/>
</g>
<!-- 6238375856&#45;&gt;6238378688 -->
<g id="edge82" class="edge">
<title>6238375856&#45;&gt;6238378688</title>
<path fill="none" stroke="black" d="M2655.21,-704.46C2658.32,-707.25 2661.41,-710.15 2664.25,-713 2677.81,-726.64 2691.77,-742.86 2703,-756.54"/>
<polygon fill="black" stroke="black" points="2699.99,-758.38 2709.01,-763.94 2705.42,-753.97 2699.99,-758.38"/>
</g>
<!-- 6238383152 -->
<g id="node28" class="node">
<title>6238383152</title>
<polygon fill="black" stroke="black" points="1602.25,-678 1548.25,-678 1548.25,-642 1602.25,-642 1602.25,-678"/>
</g>
<!-- 6238383152&#45;&gt;6238376048 -->
<g id="edge79" class="edge">
<title>6238383152&#45;&gt;6238376048</title>
<path fill="none" stroke="black" d="M1602.37,-657.26C1659.9,-652.32 1800.74,-646.31 1905.5,-692 1919.34,-698.04 1932.25,-708.37 1942.67,-718.46"/>
<polygon fill="black" stroke="black" points="1939.91,-720.63 1949.4,-725.33 1944.91,-715.73 1939.91,-720.63"/>
</g>
<!-- 6238383680 -->
<g id="node29" class="node">
<title>6238383680</title>
<polygon fill="black" stroke="black" points="2658.88,-1050 2604.88,-1050 2604.88,-1014 2658.88,-1014 2658.88,-1050"/>
</g>
<!-- 6238383680&#45;&gt;6238380368 -->
<g id="edge80" class="edge">
<title>6238383680&#45;&gt;6238380368</title>
<path fill="none" stroke="black" d="M2604.47,-1033.88C2568.85,-1036.24 2503.43,-1040 2447.5,-1040 2071.5,-1040 2071.5,-1040 2071.5,-1040 2021.63,-1040 1713.37,-1189.49 1610,-1240.32"/>
<polygon fill="black" stroke="black" points="1608.6,-1237.11 1601.17,-1244.66 1611.69,-1243.39 1608.6,-1237.11"/>
</g>
<!-- 6238387136 -->
<g id="node30" class="node">
<title>6238387136</title>
<polygon fill="black" stroke="black" points="1815.5,-544 1761.5,-544 1761.5,-508 1815.5,-508 1815.5,-544"/>
</g>
<!-- 6238387136&#45;&gt;6238384352 -->
<g id="edge74" class="edge">
<title>6238387136&#45;&gt;6238384352</title>
<path fill="none" stroke="black" d="M1815.74,-526C1850.46,-526 1913.57,-526 1967.5,-526 1967.5,-526 1967.5,-526 2357.5,-526 2409.74,-526 2425.31,-527.18 2473.5,-507 2537.46,-480.22 2534.22,-438.37 2599.5,-415 2757.85,-358.32 3293.49,-362.14 3440.76,-364.33"/>
<polygon fill="black" stroke="black" points="3440.68,-367.83 3450.73,-364.48 3440.78,-360.83 3440.68,-367.83"/>
</g>
<!-- 6238378304 -->
<g id="node31" class="node">
<title>6238378304</title>
<polygon fill="black" stroke="black" points="2851.5,-464 2797.5,-464 2797.5,-428 2851.5,-428 2851.5,-464"/>
</g>
<!-- 6238378304&#45;&gt;6238377632 -->
<g id="edge87" class="edge">
<title>6238378304&#45;&gt;6238377632</title>
<path fill="none" stroke="black" d="M2851.92,-435.15C2905.85,-412.95 3032.41,-360.59 3138,-315 3154.07,-308.06 3157.45,-304.72 3174,-299 3350.82,-237.9 3395.05,-196 3582.12,-196 3582.12,-196 3582.12,-196 3687.75,-196 3899.52,-196 3826.49,-432.87 3852.75,-643 3860.32,-703.57 3870.25,-773.51 3876.57,-817.01"/>
<polygon fill="black" stroke="black" points="3873.09,-817.38 3877.99,-826.78 3880.02,-816.38 3873.09,-817.38"/>
</g>
<!-- 6238387520 -->
<g id="node32" class="node">
<title>6238387520</title>
<polygon fill="black" stroke="black" points="3043.38,-178 2989.38,-178 2989.38,-142 3043.38,-142 3043.38,-178"/>
</g>
<!-- 6238387520&#45;&gt;6238379840 -->
<g id="edge60" class="edge">
<title>6238387520&#45;&gt;6238379840</title>
<path fill="none" stroke="black" d="M3035.66,-178.2C3039.84,-182.6 3044.18,-187.38 3048,-192 3062.53,-209.56 3077.4,-230.31 3088.93,-247.14"/>
<polygon fill="black" stroke="black" points="3085.95,-248.97 3094.46,-255.29 3091.74,-245.04 3085.95,-248.97"/>
</g>
<!-- 6238379600 -->
<g id="node93" class="node">
<title>6238379600</title>
<ellipse fill="white" stroke="black" cx="3111" cy="-169" rx="27" ry="27"/>
</g>
<!-- 6238387520&#45;&gt;6238379600 -->
<g id="edge77" class="edge">
<title>6238387520&#45;&gt;6238379600</title>
<path fill="none" stroke="black" d="M3043.67,-162.55C3052.57,-163.42 3062.69,-164.4 3072.29,-165.34"/>
<polygon fill="black" stroke="black" points="3071.84,-168.81 3082.13,-166.29 3072.52,-161.84 3071.84,-168.81"/>
</g>
<!-- 6238376384 -->
<g id="node33" class="node">
<title>6238376384</title>
<polygon fill="black" stroke="black" points="1708.88,-590 1654.88,-590 1654.88,-554 1708.88,-554 1708.88,-590"/>
</g>
<!-- 6238376384&#45;&gt;6238378688 -->
<g id="edge78" class="edge">
<title>6238376384&#45;&gt;6238378688</title>
<path fill="none" stroke="black" d="M1709.32,-572C1746.76,-572 1817.36,-572 1877.5,-572 1877.5,-572 1877.5,-572 2177.5,-572 2313.55,-572 2353.87,-585.21 2473.5,-650 2519.54,-674.93 2526.12,-689.34 2563.5,-726 2580.81,-742.98 2578.21,-755.38 2599.5,-767 2626.77,-781.88 2662,-786.18 2688.39,-787.02"/>
<polygon fill="black" stroke="black" points="2688.27,-790.52 2698.32,-787.16 2688.37,-783.52 2688.27,-790.52"/>
</g>
<!-- 6238372160 -->
<g id="node34" class="node">
<title>6238372160</title>
<polygon fill="black" stroke="black" points="2754.25,-624 2700.25,-624 2700.25,-588 2754.25,-588 2754.25,-624"/>
</g>
<!-- 6238372160&#45;&gt;6238384352 -->
<g id="edge76" class="edge">
<title>6238372160&#45;&gt;6238384352</title>
<path fill="none" stroke="black" d="M2754.6,-587.9C2799.63,-557.85 2895.23,-497.95 2984.75,-467 3092.03,-429.91 3125.35,-447.01 3236.5,-424 3310.05,-408.77 3395.19,-387.05 3442.34,-374.66"/>
<polygon fill="black" stroke="black" points="3442.96,-378.11 3451.73,-372.17 3441.17,-371.34 3442.96,-378.11"/>
</g>
<!-- 6238378976 -->
<g id="node35" class="node">
<title>6238378976</title>
<polygon fill="black" stroke="black" points="754.38,-985 700.38,-985 700.38,-949 754.38,-949 754.38,-985"/>
</g>
<!-- 6238378976&#45;&gt;6238377632 -->
<g id="edge89" class="edge">
<title>6238378976&#45;&gt;6238377632</title>
<path fill="none" stroke="black" d="M731.41,-985.34C746.93,-1076.24 820.98,-1474 928.25,-1474 928.25,-1474 928.25,-1474 3390.5,-1474 3593.01,-1474 3695.89,-1475.49 3816.75,-1313 3841.15,-1280.2 3868.86,-1008.02 3878.88,-901.5"/>
<polygon fill="black" stroke="black" points="3882.35,-902.03 3879.79,-891.75 3875.38,-901.38 3882.35,-902.03"/>
</g>
<!-- 6238365520 -->
<g id="node36" class="node">
<title>6238365520</title>
<polygon fill="white" stroke="black" points="3048,-859 2984.75,-859 2984.75,-823 3048,-823 3048,-859"/>
<text text-anchor="middle" x="3016.38" y="-835.6" font-family="Times,serif" font-size="12.00">Release E</text>
</g>
<!-- 6238378448 -->
<g id="node92" class="node">
<title>6238378448</title>
<ellipse fill="white" stroke="black" cx="3479.5" cy="-905" rx="27" ry="27"/>
</g>
<!-- 6238365520&#45;&gt;6238378448 -->
<g id="edge85" class="edge">
<title>6238365520&#45;&gt;6238378448</title>
<path fill="none" stroke="black" d="M3048.44,-838.86C3085.51,-836.49 3149.37,-833 3204.25,-833 3204.25,-833 3204.25,-833 3300.5,-833 3355.26,-833 3413.04,-862.65 3447.42,-883.9"/>
<polygon fill="black" stroke="black" points="3445.29,-886.69 3455.61,-889.1 3449.04,-880.78 3445.29,-886.69"/>
</g>
<!-- 6238370128 -->
<g id="node37" class="node">
<title>6238370128</title>
<polygon fill="black" stroke="black" points="2099.5,-238 2045.5,-238 2045.5,-202 2099.5,-202 2099.5,-238"/>
</g>
<!-- 6238370128&#45;&gt;6238377632 -->
<g id="edge91" class="edge">
<title>6238370128&#45;&gt;6238377632</title>
<path fill="none" stroke="black" d="M2099.88,-217.19C2126.31,-214.09 2168.06,-208.39 2203.5,-200 2485.26,-133.33 2533.96,0 2823.5,0 2823.5,0 2823.5,0 3687.75,0 3751.56,0 3781.29,-9.95 3816.75,-63 3852.63,-116.68 3846.3,-578.75 3852.75,-643 3858.84,-703.73 3869.16,-773.64 3875.96,-817.07"/>
<polygon fill="black" stroke="black" points="3872.49,-817.5 3877.5,-826.83 3879.4,-816.41 3872.49,-817.5"/>
</g>
<!-- 6238379744 -->
<g id="node38" class="node">
<title>6238379744</title>
<polygon fill="black" stroke="black" points="1136.25,-386 1082.25,-386 1082.25,-350 1136.25,-350 1136.25,-386"/>
</g>
<!-- 6238379744&#45;&gt;6238382720 -->
<g id="edge65" class="edge">
<title>6238379744&#45;&gt;6238382720</title>
<path fill="none" stroke="black" d="M1136.65,-368C1144.14,-368 1152.43,-368 1160.45,-368"/>
<polygon fill="black" stroke="black" points="1160.35,-371.5 1170.35,-368 1160.35,-364.5 1160.35,-371.5"/>
</g>
<!-- 6238380128 -->
<g id="node39" class="node">
<title>6238380128</title>
<polygon fill="black" stroke="black" points="2658.88,-330 2604.88,-330 2604.88,-294 2658.88,-294 2658.88,-330"/>
</g>
<!-- 6238380128&#45;&gt;6238382720 -->
<g id="edge61" class="edge">
<title>6238380128&#45;&gt;6238382720</title>
<path fill="none" stroke="black" d="M2604.67,-301.1C2569.54,-287.5 2504.94,-266 2447.5,-266 1787.5,-266 1787.5,-266 1787.5,-266 1652.55,-266 1621.2,-304 1486.25,-304 1394.25,-304 1394.25,-304 1394.25,-304 1335.25,-304 1271.01,-331.03 1233.25,-349.95"/>
<polygon fill="black" stroke="black" points="1231.97,-346.68 1224.67,-354.36 1235.17,-352.9 1231.97,-346.68"/>
</g>
<!-- 6238385648 -->
<g id="node40" class="node">
<title>6238385648</title>
<polygon fill="black" stroke="black" points="552.5,-309 498.5,-309 498.5,-273 552.5,-273 552.5,-309"/>
</g>
<!-- 6238385648&#45;&gt;6238387760 -->
<g id="edge67" class="edge">
<title>6238385648&#45;&gt;6238387760</title>
<path fill="none" stroke="black" d="M552.9,-283.5C560.86,-281.24 569.73,-278.72 578.21,-276.31"/>
<polygon fill="black" stroke="black" points="578.9,-279.75 587.57,-273.65 576.99,-273.02 578.9,-279.75"/>
</g>
<!-- 6238381328 -->
<g id="node41" class="node">
<title>6238381328</title>
<polygon fill="black" stroke="black" points="3713.75,-698 3659.75,-698 3659.75,-662 3713.75,-662 3713.75,-698"/>
</g>
<!-- 6238381328&#45;&gt;6238377632 -->
<g id="edge88" class="edge">
<title>6238381328&#45;&gt;6238377632</title>
<path fill="none" stroke="black" d="M3714.03,-686.66C3742.27,-694.93 3787.07,-711.43 3816.75,-739 3840.45,-761.02 3857.61,-793.53 3868.47,-819.16"/>
<polygon fill="black" stroke="black" points="3865.17,-820.32 3872.18,-828.27 3871.65,-817.69 3865.17,-820.32"/>
</g>
<!-- 6238383632 -->
<g id="node42" class="node">
<title>6238383632</title>
<polygon fill="black" stroke="black" points="3610.12,-1023 3556.12,-1023 3556.12,-987 3610.12,-987 3610.12,-1023"/>
</g>
<!-- 6238381040 -->
<g id="node103" class="node">
<title>6238381040</title>
<ellipse fill="white" stroke="black" cx="3686.75" cy="-1005" rx="27" ry="27"/>
</g>
<!-- 6238383632&#45;&gt;6238381040 -->
<g id="edge121" class="edge">
<title>6238383632&#45;&gt;6238381040</title>
<path fill="none" stroke="black" d="M3610.56,-1005C3621.97,-1005 3635.53,-1005 3647.97,-1005"/>
<polygon fill="black" stroke="black" points="3647.93,-1008.5 3657.93,-1005 3647.93,-1001.5 3647.93,-1008.5"/>
</g>
<!-- 6238373648 -->
<g id="node43" class="node">
<title>6238373648</title>
<polygon fill="black" stroke="black" points="3713.75,-959 3659.75,-959 3659.75,-923 3713.75,-923 3713.75,-959"/>
</g>
<!-- 6238373648&#45;&gt;6238377632 -->
<g id="edge114" class="edge">
<title>6238373648&#45;&gt;6238377632</title>
<path fill="none" stroke="black" d="M3713.95,-930.07C3740.03,-919.19 3781.18,-901.99 3816.75,-887 3825.74,-883.21 3835.4,-879.12 3844.49,-875.27"/>
<polygon fill="black" stroke="black" points="3845.59,-878.6 3853.43,-871.47 3842.86,-872.16 3845.59,-878.6"/>
</g>
<!-- 6238374176 -->
<g id="node44" class="node">
<title>6238374176</title>
<polygon fill="black" stroke="black" points="3232.25,-898 3178.25,-898 3178.25,-862 3232.25,-862 3232.25,-898"/>
</g>
<!-- 6238374176&#45;&gt;6238378688 -->
<g id="edge113" class="edge">
<title>6238374176&#45;&gt;6238378688</title>
<path fill="none" stroke="black" d="M3177.96,-881.84C3141.8,-884.2 3074.69,-888 3017.38,-888 2920.75,-888 2920.75,-888 2920.75,-888 2855.72,-888 2791.21,-841.99 2755.86,-811.78"/>
<polygon fill="black" stroke="black" points="2758.48,-809.42 2748.65,-805.47 2753.87,-814.69 2758.48,-809.42"/>
</g>
<!-- 6238355872 -->
<g id="node45" class="node">
<title>6238355872</title>
<polygon fill="black" stroke="black" points="3610.12,-893 3556.12,-893 3556.12,-857 3610.12,-857 3610.12,-893"/>
</g>
<!-- 6238355872&#45;&gt;6238381040 -->
<g id="edge120" class="edge">
<title>6238355872&#45;&gt;6238381040</title>
<path fill="none" stroke="black" d="M3598.47,-893.35C3615.14,-914.67 3642.86,-950.14 3662.59,-975.37"/>
<polygon fill="black" stroke="black" points="3659.61,-977.25 3668.53,-982.97 3665.13,-972.94 3659.61,-977.25"/>
</g>
<!-- 6238386848 -->
<g id="node46" class="node">
<title>6238386848</title>
<polygon fill="black" stroke="black" points="3713.75,-848 3659.75,-848 3659.75,-812 3713.75,-812 3713.75,-848"/>
</g>
<!-- 6238386848&#45;&gt;6238377632 -->
<g id="edge115" class="edge">
<title>6238386848&#45;&gt;6238377632</title>
<path fill="none" stroke="black" d="M3714.05,-833.91C3746.74,-838.77 3802.91,-847.13 3841.39,-852.85"/>
<polygon fill="black" stroke="black" points="3840.82,-856.3 3851.22,-854.31 3841.85,-849.38 3840.82,-856.3"/>
</g>
<!-- 6238379936 -->
<g id="node47" class="node">
<title>6238379936</title>
<polygon fill="black" stroke="black" points="3610.12,-1131 3556.12,-1131 3556.12,-1095 3610.12,-1095 3610.12,-1131"/>
</g>
<!-- 6238379936&#45;&gt;6238381040 -->
<g id="edge119" class="edge">
<title>6238379936&#45;&gt;6238381040</title>
<path fill="none" stroke="black" d="M3610.61,-1096.7C3615.19,-1093.4 3619.76,-1089.78 3623.75,-1086 3639.2,-1071.38 3653.79,-1052.66 3664.94,-1036.89"/>
<polygon fill="black" stroke="black" points="3667.75,-1038.99 3670.55,-1028.77 3661.99,-1035.01 3667.75,-1038.99"/>
</g>
<!-- 6238361008 -->
<g id="node48" class="node">
<title>6238361008</title>
<polygon fill="white" stroke="black" points="2113.5,-773 2031.5,-773 2031.5,-737 2113.5,-737 2113.5,-773"/>
<text text-anchor="middle" x="2072.5" y="-749.6" font-family="Times,serif" font-size="12.00">Admission IC</text>
</g>
<!-- 6238383488 -->
<g id="node99" class="node">
<title>6238383488</title>
<ellipse fill="white" stroke="black" cx="2176.5" cy="-757" rx="27" ry="27"/>
</g>
<!-- 6238361008&#45;&gt;6238383488 -->
<g id="edge122" class="edge">
<title>6238361008&#45;&gt;6238383488</title>
<path fill="none" stroke="black" d="M2113.81,-755.79C2121.73,-755.95 2130,-756.11 2137.82,-756.26"/>
<polygon fill="black" stroke="black" points="2137.66,-759.76 2147.73,-756.46 2137.8,-752.76 2137.66,-759.76"/>
</g>
<!-- 6240662976 -->
<g id="node49" class="node">
<title>6240662976</title>
<polygon fill="black" stroke="black" points="4004.75,-625 3950.75,-625 3950.75,-589 4004.75,-589 4004.75,-625"/>
</g>
<!-- 6240662976&#45;&gt;6238380368 -->
<g id="edge110" class="edge">
<title>6240662976&#45;&gt;6238380368</title>
<path fill="none" stroke="black" d="M3975.89,-625.37C3970.4,-733.7 3936.68,-1288.21 3816.75,-1396 3675.23,-1523.19 3580.78,-1436 3390.5,-1436 1877.5,-1436 1877.5,-1436 1877.5,-1436 1862.07,-1436 1681.88,-1323.57 1607.77,-1276.92"/>
<polygon fill="black" stroke="black" points="1610.07,-1274.22 1599.74,-1271.85 1606.33,-1280.15 1610.07,-1274.22"/>
</g>
<!-- 6238365760 -->
<g id="node50" class="node">
<title>6238365760</title>
<polygon fill="black" stroke="black" points="3713.75,-1139 3659.75,-1139 3659.75,-1103 3713.75,-1103 3713.75,-1139"/>
</g>
<!-- 6238365760&#45;&gt;6238377632 -->
<g id="edge117" class="edge">
<title>6238365760&#45;&gt;6238377632</title>
<path fill="none" stroke="black" d="M3714.19,-1104.64C3742.76,-1085.82 3788.06,-1052.5 3816.75,-1014 3842.74,-979.13 3860.8,-932.48 3871.38,-899.49"/>
<polygon fill="black" stroke="black" points="3874.61,-900.9 3874.23,-890.31 3867.92,-898.82 3874.61,-900.9"/>
</g>
<!-- 6238379072 -->
<g id="node51" class="node">
<title>6238379072</title>
<polygon fill="black" stroke="black" points="3610.12,-1077 3556.12,-1077 3556.12,-1041 3610.12,-1041 3610.12,-1077"/>
</g>
<!-- 6238379072&#45;&gt;6238381040 -->
<g id="edge118" class="edge">
<title>6238379072&#45;&gt;6238381040</title>
<path fill="none" stroke="black" d="M3610.56,-1044.95C3623.4,-1038.13 3638.96,-1029.86 3652.59,-1022.62"/>
<polygon fill="black" stroke="black" points="3654.03,-1025.82 3661.22,-1018.03 3650.75,-1019.63 3654.03,-1025.82"/>
</g>
<!-- 6238384400 -->
<g id="node52" class="node">
<title>6238384400</title>
<polygon fill="black" stroke="black" points="3610.12,-725 3556.12,-725 3556.12,-689 3610.12,-689 3610.12,-725"/>
</g>
<!-- 6238384400&#45;&gt;6238380368 -->
<g id="edge112" class="edge">
<title>6238384400&#45;&gt;6238380368</title>
<path fill="none" stroke="black" d="M3555.77,-721.54C3551.27,-724.24 3546.69,-727.12 3542.5,-730 3250.88,-930.53 3276.66,-1230 2922.75,-1230 2823.5,-1230 2823.5,-1230 2823.5,-1230 2654.67,-1230 2616.33,-1284 2447.5,-1284 2175.5,-1284 2175.5,-1284 2175.5,-1284 1962.78,-1284 1708.01,-1266.81 1613.72,-1259.86"/>
<polygon fill="black" stroke="black" points="1614.26,-1256.39 1604.03,-1259.14 1613.74,-1263.37 1614.26,-1256.39"/>
</g>
<!-- 6238381280 -->
<g id="node53" class="node">
<title>6238381280</title>
<polygon fill="white" stroke="black" points="2858.75,-619 2790.25,-619 2790.25,-583 2858.75,-583 2858.75,-619"/>
<text text-anchor="middle" x="2824.5" y="-595.6" font-family="Times,serif" font-size="12.00">LacticAcid</text>
</g>
<!-- 6238385216 -->
<g id="node101" class="node">
<title>6238385216</title>
<ellipse fill="white" stroke="black" cx="2921.75" cy="-597" rx="27" ry="27"/>
</g>
<!-- 6238381280&#45;&gt;6238385216 -->
<g id="edge124" class="edge">
<title>6238381280&#45;&gt;6238385216</title>
<path fill="none" stroke="black" d="M2859.08,-599.59C2866.85,-599.26 2875.18,-598.91 2883.11,-598.58"/>
<polygon fill="black" stroke="black" points="2882.99,-602.09 2892.84,-598.17 2882.7,-595.1 2882.99,-602.09"/>
</g>
<!-- 6238372064 -->
<g id="node54" class="node">
<title>6238372064</title>
<polygon fill="black" stroke="black" points="3713.75,-904 3659.75,-904 3659.75,-868 3713.75,-868 3713.75,-904"/>
</g>
<!-- 6238372064&#45;&gt;6238377632 -->
<g id="edge116" class="edge">
<title>6238372064&#45;&gt;6238377632</title>
<path fill="none" stroke="black" d="M3714.05,-882.36C3746.74,-877.83 3802.91,-870.05 3841.39,-864.73"/>
<polygon fill="black" stroke="black" points="3841.8,-868.2 3851.22,-863.37 3840.84,-861.27 3841.8,-868.2"/>
</g>
<!-- 6238381664 -->
<g id="node55" class="node">
<title>6238381664</title>
<polygon fill="white" stroke="black" points="3623.75,-336 3542.5,-336 3542.5,-300 3623.75,-300 3623.75,-336"/>
<text text-anchor="middle" x="3583.12" y="-312.6" font-family="Times,serif" font-size="12.00">IV Antibiotics</text>
</g>
<!-- 6238376624 -->
<g id="node100" class="node">
<title>6238376624</title>
<ellipse fill="white" stroke="black" cx="3686.75" cy="-351" rx="27" ry="27"/>
</g>
<!-- 6238381664&#45;&gt;6238376624 -->
<g id="edge125" class="edge">
<title>6238381664&#45;&gt;6238376624</title>
<path fill="none" stroke="black" d="M3624,-330.95C3632.49,-333.7 3641.4,-336.6 3649.73,-339.3"/>
<polygon fill="black" stroke="black" points="3648.61,-342.62 3659.2,-342.38 3650.77,-335.96 3648.61,-342.62"/>
</g>
<!-- 6238384496 -->
<g id="node56" class="node">
<title>6238384496</title>
<polygon fill="white" stroke="black" points="1725.5,-1175 1638.25,-1175 1638.25,-1139 1725.5,-1139 1725.5,-1175"/>
<text text-anchor="middle" x="1681.88" y="-1151.6" font-family="Times,serif" font-size="12.00">Admission NC</text>
</g>
<!-- 6238382672 -->
<g id="node102" class="node">
<title>6238382672</title>
<ellipse fill="white" stroke="black" cx="1788.5" cy="-1031" rx="27" ry="27"/>
</g>
<!-- 6238384496&#45;&gt;6238382672 -->
<g id="edge123" class="edge">
<title>6238384496&#45;&gt;6238382672</title>
<path fill="none" stroke="black" d="M1698.09,-1138.68C1715.17,-1118.1 1743.14,-1084.42 1763.25,-1060.21"/>
<polygon fill="black" stroke="black" points="1765.87,-1062.53 1769.57,-1052.6 1760.48,-1058.06 1765.87,-1062.53"/>
</g>
<!-- 6238383728 -->
<g id="node57" class="node">
<title>6238383728</title>
<polygon fill="black" stroke="black" points="3232.25,-344 3178.25,-344 3178.25,-308 3232.25,-308 3232.25,-344"/>
</g>
<!-- 6238383728&#45;&gt;6238384352 -->
<g id="edge111" class="edge">
<title>6238383728&#45;&gt;6238384352</title>
<path fill="none" stroke="black" d="M3232.62,-327.96C3272.6,-331.16 3350.84,-338.36 3416.5,-350 3424.82,-351.48 3433.69,-353.4 3442.04,-355.39"/>
<polygon fill="black" stroke="black" points="3440.99,-358.73 3451.54,-357.72 3442.66,-351.93 3440.99,-358.73"/>
</g>
<!-- 6238384640 -->
<g id="node58" class="node">
<title>6238384640</title>
<polygon fill="black" stroke="black" points="3043.38,-566 2989.38,-566 2989.38,-530 3043.38,-530 3043.38,-566"/>
</g>
<!-- 6238384640&#45;&gt;6238385984 -->
<g id="edge155" class="edge">
<title>6238384640&#45;&gt;6238385984</title>
<path fill="none" stroke="black" d="M2989.04,-540.26C2946.67,-527.57 2860.93,-500.94 2790.25,-473 2732.92,-450.33 2724.34,-428.78 2664.25,-415 2569.29,-393.22 2453.44,-399.5 2395.02,-404.86"/>
<polygon fill="black" stroke="black" points="2394.92,-401.35 2385.3,-405.8 2395.59,-408.32 2394.92,-401.35"/>
</g>
<!-- 6238381952 -->
<g id="node59" class="node">
<title>6238381952</title>
<polygon fill="black" stroke="black" points="2293.5,-674 2239.5,-674 2239.5,-638 2293.5,-638 2293.5,-674"/>
</g>
<!-- 6238381952&#45;&gt;6238385984 -->
<g id="edge152" class="edge">
<title>6238381952&#45;&gt;6238385984</title>
<path fill="none" stroke="black" d="M2273.97,-637.84C2288.42,-597.27 2323.55,-498.68 2342.64,-445.1"/>
<polygon fill="black" stroke="black" points="2345.89,-446.41 2345.95,-435.81 2339.29,-444.06 2345.89,-446.41"/>
</g>
<!-- 6238377344 -->
<g id="node60" class="node">
<title>6238377344</title>
<polygon fill="white" stroke="black" points="3816.75,-1005 3749.75,-1005 3749.75,-969 3816.75,-969 3816.75,-1005"/>
<text text-anchor="middle" x="3783.25" y="-981.6" font-family="Times,serif" font-size="12.00">Return ER</text>
</g>
<!-- 6238377344&#45;&gt;6238377632 -->
<g id="edge164" class="edge">
<title>6238377344&#45;&gt;6238377632</title>
<path fill="none" stroke="black" d="M3798.36,-968.66C3813.65,-948.8 3838.35,-916.7 3857.09,-892.35"/>
<polygon fill="black" stroke="black" points="3859.7,-894.7 3863.02,-884.64 3854.15,-890.43 3859.7,-894.7"/>
</g>
<!-- 6238382144 -->
<g id="node61" class="node">
<title>6238382144</title>
<polygon fill="black" stroke="black" points="1905.5,-770 1851.5,-770 1851.5,-734 1905.5,-734 1905.5,-770"/>
</g>
<!-- 6238382144&#45;&gt;6238382720 -->
<g id="edge160" class="edge">
<title>6238382144&#45;&gt;6238382720</title>
<path fill="none" stroke="black" d="M1868.9,-733.57C1849.25,-693.4 1797.13,-597.36 1725.5,-545 1567.51,-429.51 1329.06,-385.81 1237.69,-372.72"/>
<polygon fill="black" stroke="black" points="1238.18,-369.26 1227.79,-371.35 1237.22,-376.19 1238.18,-369.26"/>
</g>
<!-- 6238372880 -->
<g id="node62" class="node">
<title>6238372880</title>
<polygon fill="black" stroke="black" points="3043.38,-658 2989.38,-658 2989.38,-622 3043.38,-622 3043.38,-658"/>
</g>
<!-- 6238372880&#45;&gt;6238379840 -->
<g id="edge156" class="edge">
<title>6238372880&#45;&gt;6238379840</title>
<path fill="none" stroke="black" d="M3027.41,-621.7C3034.06,-608.94 3042.53,-591.32 3048,-575 3078.14,-485.07 3096.62,-374.66 3104.88,-317.46"/>
<polygon fill="black" stroke="black" points="3108.34,-317.98 3106.28,-307.59 3101.41,-317 3108.34,-317.98"/>
</g>
<!-- 6238381232 -->
<g id="node105" class="node">
<title>6238381232</title>
<ellipse fill="white" stroke="black" cx="3111" cy="-702" rx="27" ry="27"/>
</g>
<!-- 6238372880&#45;&gt;6238381232 -->
<g id="edge172" class="edge">
<title>6238372880&#45;&gt;6238381232</title>
<path fill="none" stroke="black" d="M3043.67,-657.6C3054.51,-664.86 3067.16,-673.32 3078.49,-680.91"/>
<polygon fill="black" stroke="black" points="3076.51,-683.79 3086.77,-686.45 3080.4,-677.98 3076.51,-683.79"/>
</g>
<!-- 6238382000 -->
<g id="node106" class="node">
<title>6238382000</title>
<ellipse fill="white" stroke="black" cx="3111" cy="-630" rx="27" ry="27"/>
</g>
<!-- 6238372880&#45;&gt;6238382000 -->
<g id="edge167" class="edge">
<title>6238372880&#45;&gt;6238382000</title>
<path fill="none" stroke="black" d="M3043.67,-637.16C3052.64,-636.19 3062.86,-635.09 3072.54,-634.04"/>
<polygon fill="black" stroke="black" points="3072.89,-637.53 3082.46,-632.97 3072.14,-630.57 3072.89,-637.53"/>
</g>
<!-- 6238376720 -->
<g id="node63" class="node">
<title>6238376720</title>
<polygon fill="black" stroke="black" points="4004.75,-1476 3950.75,-1476 3950.75,-1440 4004.75,-1440 4004.75,-1476"/>
</g>
<!-- 6238376720&#45;&gt;6238380368 -->
<g id="edge162" class="edge">
<title>6238376720&#45;&gt;6238380368</title>
<path fill="none" stroke="black" d="M3950.31,-1470.39C3913.8,-1486.33 3845.51,-1512 3784.25,-1512 1877.5,-1512 1877.5,-1512 1877.5,-1512 1741.66,-1512 1635.55,-1359.07 1594.59,-1290.08"/>
<polygon fill="black" stroke="black" points="1597.84,-1288.71 1589.78,-1281.84 1591.8,-1292.24 1597.84,-1288.71"/>
</g>
<!-- 6238372496 -->
<g id="node64" class="node">
<title>6238372496</title>
<polygon fill="black" stroke="black" points="3043.38,-716 2989.38,-716 2989.38,-680 3043.38,-680 3043.38,-716"/>
</g>
<!-- 6238380704 -->
<g id="node104" class="node">
<title>6238380704</title>
<ellipse fill="white" stroke="black" cx="3299.5" cy="-718" rx="27" ry="27"/>
</g>
<!-- 6238372496&#45;&gt;6238380704 -->
<g id="edge168" class="edge">
<title>6238372496&#45;&gt;6238380704</title>
<path fill="none" stroke="black" d="M3040.9,-716.42C3053.04,-724.77 3068.53,-733.71 3084,-738 3145.08,-754.93 3219.29,-740.68 3262.48,-729.11"/>
<polygon fill="black" stroke="black" points="3263.39,-732.49 3272.08,-726.43 3261.51,-725.75 3263.39,-732.49"/>
</g>
<!-- 6238372496&#45;&gt;6238381232 -->
<g id="edge169" class="edge">
<title>6238372496&#45;&gt;6238381232</title>
<path fill="none" stroke="black" d="M3043.67,-699.14C3052.57,-699.52 3062.69,-699.96 3072.29,-700.37"/>
<polygon fill="black" stroke="black" points="3071.99,-703.86 3082.13,-700.8 3072.29,-696.87 3071.99,-703.86"/>
</g>
<!-- 6238372496&#45;&gt;6238382000 -->
<g id="edge170" class="edge">
<title>6238372496&#45;&gt;6238382000</title>
<path fill="none" stroke="black" d="M3042.2,-679.78C3053.61,-671.4 3067.27,-661.37 3079.32,-652.52"/>
<polygon fill="black" stroke="black" points="3081.36,-655.36 3087.35,-646.63 3077.22,-649.72 3081.36,-655.36"/>
</g>
<!-- 6238385936 -->
<g id="node65" class="node">
<title>6238385936</title>
<polygon fill="black" stroke="black" points="3043.38,-512 2989.38,-512 2989.38,-476 3043.38,-476 3043.38,-512"/>
</g>
<!-- 6238385936&#45;&gt;6238382720 -->
<g id="edge159" class="edge">
<title>6238385936&#45;&gt;6238382720</title>
<path fill="none" stroke="black" d="M2991.83,-475.74C2937.48,-434.59 2797.66,-334.32 2664.25,-285 2397.7,-186.46 2314.95,-172.61 2031.5,-193 1923.11,-200.8 1898.17,-228 1789.5,-228 1574.25,-228 1574.25,-228 1574.25,-228 1430.99,-228 1387.47,-239.4 1262.25,-309 1248.28,-316.77 1235.1,-328.42 1224.52,-339.33"/>
<polygon fill="black" stroke="black" points="1222.24,-336.64 1217.99,-346.34 1227.37,-341.41 1222.24,-336.64"/>
</g>
<!-- 6238375232 -->
<g id="node66" class="node">
<title>6238375232</title>
<polygon fill="black" stroke="black" points="3810.25,-108 3756.25,-108 3756.25,-72 3810.25,-72 3810.25,-108"/>
</g>
<!-- 6238375232&#45;&gt;6238382720 -->
<g id="edge153" class="edge">
<title>6238375232&#45;&gt;6238382720</title>
<path fill="none" stroke="black" d="M3755.91,-78.46C3718.48,-63.14 3647.42,-38 3584.12,-38 2823.5,-38 2823.5,-38 2823.5,-38 2471.48,-38 2379.12,9.47 2031.5,-46 1821.94,-79.44 1788.46,-190 1576.25,-190 1394.25,-190 1394.25,-190 1394.25,-190 1310.01,-190 1246.51,-282.26 1217.55,-333.93"/>
<polygon fill="black" stroke="black" points="1214.51,-332.21 1212.79,-342.67 1220.65,-335.56 1214.51,-332.21"/>
</g>
<!-- 6238380752 -->
<g id="node67" class="node">
<title>6238380752</title>
<polygon fill="black" stroke="black" points="2203.5,-674 2149.5,-674 2149.5,-638 2203.5,-638 2203.5,-674"/>
</g>
<!-- 6238380752&#45;&gt;6238385984 -->
<g id="edge157" class="edge">
<title>6238380752&#45;&gt;6238385984</title>
<path fill="none" stroke="black" d="M2190.59,-637.84C2220.82,-595.88 2295.79,-491.86 2333.33,-439.76"/>
<polygon fill="black" stroke="black" points="2336,-442.05 2339,-431.89 2330.32,-437.96 2336,-442.05"/>
</g>
<!-- 6238386896 -->
<g id="node68" class="node">
<title>6238386896</title>
<polygon fill="black" stroke="black" points="3810.25,-364 3756.25,-364 3756.25,-328 3810.25,-328 3810.25,-364"/>
</g>
<!-- 6238386896&#45;&gt;6238385984 -->
<g id="edge154" class="edge">
<title>6238386896&#45;&gt;6238385984</title>
<path fill="none" stroke="black" d="M3755.8,-328.54C3725.15,-308.98 3672.57,-277.46 3623.75,-258 3354.94,-150.84 3269.04,-78.94 2984.75,-133 2741.38,-179.28 2478.93,-332.87 2389.45,-388.59"/>
<polygon fill="black" stroke="black" points="2387.79,-385.5 2381.17,-393.78 2391.51,-391.43 2387.79,-385.5"/>
</g>
<!-- 6238376528 -->
<g id="node69" class="node">
<title>6238376528</title>
<polygon fill="black" stroke="black" points="3810.25,-429 3756.25,-429 3756.25,-393 3810.25,-393 3810.25,-429"/>
</g>
<!-- 6238387376 -->
<g id="node107" class="node">
<title>6238387376</title>
<ellipse fill="white" stroke="black" cx="3883.75" cy="-607" rx="27" ry="27"/>
</g>
<!-- 6238376528&#45;&gt;6238387376 -->
<g id="edge171" class="edge">
<title>6238376528&#45;&gt;6238387376</title>
<path fill="none" stroke="black" d="M3797.33,-429.17C3803.58,-438.22 3810.93,-449.45 3816.75,-460 3837.08,-496.87 3856.32,-541.2 3868.72,-571.48"/>
<polygon fill="black" stroke="black" points="3865.4,-572.6 3872.4,-580.55 3871.89,-569.97 3865.4,-572.6"/>
</g>
<!-- 6238374752 -->
<g id="node70" class="node">
<title>6238374752</title>
<polygon fill="black" stroke="black" points="2473.5,-799 2419.5,-799 2419.5,-763 2473.5,-763 2473.5,-799"/>
</g>
<!-- 6238374752&#45;&gt;6238378688 -->
<g id="edge161" class="edge">
<title>6238374752&#45;&gt;6238378688</title>
<path fill="none" stroke="black" d="M2473.7,-799.38C2502.84,-818.6 2552.07,-847.54 2599.5,-859 2627.47,-865.76 2638.13,-871.08 2664.25,-859 2682.37,-850.62 2697.13,-834.04 2707.7,-818.79"/>
<polygon fill="black" stroke="black" points="2710.37,-821.11 2712.9,-810.83 2704.5,-817.29 2710.37,-821.11"/>
</g>
<!-- 6238387424 -->
<g id="node71" class="node">
<title>6238387424</title>
<polygon fill="black" stroke="black" points="3326.5,-803 3272.5,-803 3272.5,-767 3326.5,-767 3326.5,-803"/>
</g>
<!-- 6238387424&#45;&gt;6238377632 -->
<g id="edge163" class="edge">
<title>6238387424&#45;&gt;6238377632</title>
<path fill="none" stroke="black" d="M3326.77,-777.25C3361.27,-767.78 3423.87,-753 3478.5,-753 3478.5,-753 3478.5,-753 3687.75,-753 3752.4,-753 3816.07,-798.53 3852.27,-829.91"/>
<polygon fill="black" stroke="black" points="3849.94,-832.52 3859.74,-836.54 3854.59,-827.29 3849.94,-832.52"/>
</g>
<!-- 6240917872 -->
<g id="node72" class="node">
<title>6240917872</title>
<polygon fill="black" stroke="black" points="3810.25,-505 3756.25,-505 3756.25,-469 3810.25,-469 3810.25,-505"/>
</g>
<!-- 6240917872&#45;&gt;6238377632 -->
<g id="edge165" class="edge">
<title>6240917872&#45;&gt;6238377632</title>
<path fill="none" stroke="black" d="M3793.75,-505.22C3800.89,-519.53 3810.49,-540.13 3816.75,-559 3846.58,-648.92 3866.79,-758.52 3876.37,-817.17"/>
<polygon fill="black" stroke="black" points="3872.86,-817.39 3877.9,-826.71 3879.77,-816.28 3872.86,-817.39"/>
</g>
<!-- 6238364272 -->
<g id="node73" class="node">
<title>6238364272</title>
<polygon fill="black" stroke="black" points="2293.5,-822 2239.5,-822 2239.5,-786 2293.5,-786 2293.5,-822"/>
</g>
<!-- 6238364272&#45;&gt;6238382720 -->
<g id="edge158" class="edge">
<title>6238364272&#45;&gt;6238382720</title>
<path fill="none" stroke="black" d="M2239.26,-814.44C2202.73,-828.01 2134.17,-850 2073.5,-850 1877.5,-850 1877.5,-850 1877.5,-850 1713.06,-850 1676.16,-895.85 1512.25,-909 1488.33,-910.92 1479.83,-919.51 1458.25,-909 1262.82,-813.78 1214.54,-513.67 1203.39,-406.5"/>
<polygon fill="black" stroke="black" points="1206.9,-406.4 1202.43,-396.79 1199.93,-407.09 1206.9,-406.4"/>
</g>
<!-- 6238356976 -->
<g id="node74" class="node">
<title>6238356976</title>
<polygon fill="black" stroke="black" points="2383.5,-1218 2329.5,-1218 2329.5,-1182 2383.5,-1182 2383.5,-1218"/>
</g>
<!-- 6238356976&#45;&gt;6238377632 -->
<g id="edge166" class="edge">
<title>6238356976&#45;&gt;6238377632</title>
<path fill="none" stroke="black" d="M2383.81,-1210.36C2454.03,-1237.03 2652.17,-1306 2823.5,-1306 2823.5,-1306 2823.5,-1306 3687.75,-1306 3862.98,-1306 3882.33,-1013.86 3883.31,-901.93"/>
<polygon fill="black" stroke="black" points="3886.81,-901.96 3883.35,-891.95 3879.81,-901.93 3886.81,-901.96"/>
</g>
<!-- 6238373984 -->
<g id="node75" class="node">
<title>6238373984</title>
<ellipse fill="white" stroke="black" cx="27" cy="-179" rx="27" ry="27"/>
<text text-anchor="start" x="17.25" y="-166.95" font-family="Times,serif" font-size="34.00">â—</text>
</g>
<!-- 6238373984&#45;&gt;6238375808 -->
<g id="edge6" class="edge">
<title>6238373984&#45;&gt;6238375808</title>
<path fill="none" stroke="black" d="M40.31,-203.02C51.37,-222.94 69.05,-251.1 90,-271 90.62,-271.59 91.25,-272.17 91.9,-272.74"/>
<polygon fill="black" stroke="black" points="89.65,-275.42 99.68,-278.84 93.96,-269.91 89.65,-275.42"/>
</g>
<!-- 6238373984&#45;&gt;6240915280 -->
<g id="edge2" class="edge">
<title>6238373984&#45;&gt;6240915280</title>
<path fill="none" stroke="black" d="M50.76,-165.78C89.2,-144.74 170,-106 243.75,-106 243.75,-106 243.75,-106 436.5,-106 484.95,-106 540.81,-106 576.84,-106"/>
<polygon fill="black" stroke="black" points="576.75,-109.5 586.75,-106 576.75,-102.5 576.75,-109.5"/>
</g>
<!-- 6238373984&#45;&gt;6240919120 -->
<g id="edge5" class="edge">
<title>6238373984&#45;&gt;6240919120</title>
<path fill="none" stroke="black" d="M53.99,-183.18C109.12,-192.04 237.96,-212.74 301.85,-223.01"/>
<polygon fill="black" stroke="black" points="301.07,-226.43 311.49,-224.56 302.18,-219.52 301.07,-226.43"/>
</g>
<!-- 6238373984&#45;&gt;6240659040 -->
<g id="edge3" class="edge">
<title>6238373984&#45;&gt;6240659040</title>
<path fill="none" stroke="black" d="M50.67,-192.78C64.67,-201.3 82.95,-212.42 98.9,-222.12"/>
<polygon fill="black" stroke="black" points="96.82,-224.95 107.18,-227.16 100.46,-218.97 96.82,-224.95"/>
</g>
<!-- 6238373984&#45;&gt;6238382432 -->
<g id="edge1" class="edge">
<title>6238373984&#45;&gt;6238382432</title>
<path fill="none" stroke="black" d="M38.48,-154.15C48.52,-133.73 65.73,-105.97 90,-92 188.72,-35.2 330.2,-44.98 396.93,-53.88"/>
<polygon fill="black" stroke="black" points="396.23,-57.32 406.62,-55.25 397.21,-50.38 396.23,-57.32"/>
</g>
<!-- 6238373984&#45;&gt;6238379504 -->
<g id="edge4" class="edge">
<title>6238373984&#45;&gt;6238379504</title>
<path fill="none" stroke="black" d="M54.02,-175.74C91.91,-171 162.46,-162.17 206.04,-156.72"/>
<polygon fill="black" stroke="black" points="206.31,-160.21 215.79,-155.5 205.44,-153.27 206.31,-160.21"/>
</g>
<!-- 6238382720&#45;&gt;6240911680 -->
<g id="edge17" class="edge">
<title>6238382720&#45;&gt;6240911680</title>
<path fill="none" stroke="black" d="M1212.6,-391.81C1230.26,-425.83 1262.65,-488.24 1281.52,-524.62"/>
<polygon fill="black" stroke="black" points="1278.28,-525.97 1285.99,-533.23 1284.49,-522.74 1278.28,-525.97"/>
</g>
<!-- 6238387760&#45;&gt;6238379120 -->
<g id="edge14" class="edge">
<title>6238387760&#45;&gt;6238379120</title>
<path fill="none" stroke="black" d="M642.82,-266C650.15,-266 658.43,-266 666.85,-266"/>
<polygon fill="black" stroke="black" points="666.83,-269.5 676.83,-266 666.83,-262.5 666.83,-269.5"/>
</g>
<!-- 6238385984&#45;&gt;6238375904 -->
<g id="edge13" class="edge">
<title>6238385984&#45;&gt;6238375904</title>
<path fill="none" stroke="black" d="M2377.91,-425.47C2388.59,-434.09 2401.91,-444.83 2413.89,-454.49"/>
<polygon fill="black" stroke="black" points="2411.56,-457.12 2421.55,-460.67 2415.96,-451.67 2411.56,-457.12"/>
</g>
<!-- 6238379840&#45;&gt;6238380176 -->
<g id="edge15" class="edge">
<title>6238379840&#45;&gt;6238380176</title>
<path fill="none" stroke="black" d="M3121.18,-304.48C3138.43,-352.35 3175.58,-455.43 3193.77,-505.93"/>
<polygon fill="black" stroke="black" points="3190.47,-507.07 3197.15,-515.29 3197.05,-504.7 3190.47,-507.07"/>
</g>
<!-- 6238384880&#45;&gt;6238383536 -->
<g id="edge16" class="edge">
<title>6238384880&#45;&gt;6238383536</title>
<path fill="none" stroke="black" d="M270.77,-305.77C278.67,-308.23 287.64,-311.01 296.41,-313.73"/>
<polygon fill="black" stroke="black" points="295.3,-317.05 305.89,-316.68 297.38,-310.37 295.3,-317.05"/>
</g>
<!-- 6238382336&#45;&gt;6238386176 -->
<g id="edge35" class="edge">
<title>6238382336&#45;&gt;6238386176</title>
<path fill="none" stroke="black" d="M1401.31,-640.58C1411.27,-691.53 1434.18,-801.85 1458.88,-853.44"/>
<polygon fill="black" stroke="black" points="1455.72,-854.95 1463.47,-862.18 1461.92,-851.7 1455.72,-854.95"/>
</g>
<!-- 6238382336&#45;&gt;6238374080 -->
<g id="edge57" class="edge">
<title>6238382336&#45;&gt;6238374080</title>
<path fill="none" stroke="black" d="M1422.49,-612.61C1552.03,-606.05 2123.89,-580.38 2293.5,-629 2419.24,-665.05 2545.49,-760.62 2601.25,-806.59"/>
<polygon fill="black" stroke="black" points="2598.8,-809.11 2608.73,-812.82 2603.28,-803.74 2598.8,-809.11"/>
</g>
<!-- 6238382336&#45;&gt;6238385552 -->
<g id="edge29" class="edge">
<title>6238382336&#45;&gt;6238385552</title>
<path fill="none" stroke="black" d="M1402.15,-640.53C1410.96,-677.09 1429.65,-744.3 1458.25,-796 1459.05,-797.45 1459.92,-798.9 1460.84,-800.33"/>
<polygon fill="black" stroke="black" points="1457.85,-802.18 1466.52,-808.27 1463.55,-798.1 1457.85,-802.18"/>
</g>
<!-- 6238382336&#45;&gt;6238387472 -->
<g id="edge41" class="edge">
<title>6238382336&#45;&gt;6238387472</title>
<path fill="none" stroke="black" d="M1406.72,-589.05C1417.16,-566.49 1434.98,-533.47 1458.25,-511 1571.53,-401.59 1630.01,-380 1787.5,-380 1787.5,-380 1787.5,-380 2073.5,-380 2433.18,-380 2463.82,-76 2823.5,-76 2823.5,-76 2823.5,-76 3017.38,-76 3035.25,-76 3611,-278.48 3623.75,-291 3656.26,-322.93 3634.35,-349.17 3659.75,-387 3677.98,-414.15 3694.55,-410.52 3713.75,-437 3715.66,-439.64 3749.87,-514.7 3769.2,-557.25"/>
<polygon fill="black" stroke="black" points="3765.94,-558.52 3773.26,-566.18 3772.31,-555.63 3765.94,-558.52"/>
</g>
<!-- 6238382336&#45;&gt;6238387616 -->
<g id="edge49" class="edge">
<title>6238382336&#45;&gt;6238387616</title>
<path fill="none" stroke="black" d="M1414.14,-594.54C1456.16,-551.1 1566.24,-450 1680.88,-450 1680.88,-450 1680.88,-450 1789.5,-450 1838.06,-450 1893.9,-445.5 1929.89,-442.01"/>
<polygon fill="black" stroke="black" points="1930.19,-445.5 1939.79,-441.02 1929.49,-438.53 1930.19,-445.5"/>
</g>
<!-- 6238382336&#45;&gt;6238383008 -->
<g id="edge23" class="edge">
<title>6238382336&#45;&gt;6238383008</title>
<path fill="none" stroke="black" d="M1409.94,-636.82C1421.18,-654.04 1438.44,-677.29 1458.25,-693 1619.28,-820.67 1672,-888 1877.5,-888 1877.5,-888 1877.5,-888 2267.5,-888 2386.94,-888 2522.15,-934.38 2588.94,-960.55"/>
<polygon fill="black" stroke="black" points="2587.45,-963.72 2598.04,-964.16 2590.04,-957.22 2587.45,-963.72"/>
</g>
<!-- 6238382336&#45;&gt;6238374320 -->
<g id="edge36" class="edge">
<title>6238382336&#45;&gt;6238374320</title>
<path fill="none" stroke="black" d="M1415.63,-631.96C1446.64,-658.73 1510.42,-706 1574.25,-706 1574.25,-706 1574.25,-706 1789.5,-706 1841.74,-706 1862.06,-695.99 1905.5,-725 1930.73,-741.85 1916.61,-765.66 1941.5,-783 1944.9,-785.37 2438.29,-885.12 2588.18,-915.38"/>
<polygon fill="black" stroke="black" points="2587.21,-918.76 2597.7,-917.31 2588.59,-911.9 2587.21,-918.76"/>
</g>
<!-- 6238382336&#45;&gt;6238383152 -->
<g id="edge55" class="edge">
<title>6238382336&#45;&gt;6238383152</title>
<path fill="none" stroke="black" d="M1421.75,-620.59C1451.9,-628.38 1502.31,-641.41 1536.87,-650.34"/>
<polygon fill="black" stroke="black" points="1535.9,-653.7 1546.46,-652.82 1537.65,-646.93 1535.9,-653.7"/>
</g>
<!-- 6238382336&#45;&gt;6238387136 -->
<g id="edge37" class="edge">
<title>6238382336&#45;&gt;6238387136</title>
<path fill="none" stroke="black" d="M1420.34,-602.82C1431.68,-597.84 1445.49,-592.17 1458.25,-588 1536.43,-562.46 1557.34,-559.77 1638.25,-545 1676.02,-538.11 1719.62,-532.86 1749.91,-529.65"/>
<polygon fill="black" stroke="black" points="1750.12,-533.15 1759.71,-528.64 1749.4,-526.18 1750.12,-533.15"/>
</g>
<!-- 6238382336&#45;&gt;6238376384 -->
<g id="edge31" class="edge">
<title>6238382336&#45;&gt;6238376384</title>
<path fill="none" stroke="black" d="M1421.78,-607.65C1432.93,-605.03 1446.19,-602.12 1458.25,-600 1522.92,-588.66 1598.94,-580.11 1643.33,-575.6"/>
<polygon fill="black" stroke="black" points="1643.6,-579.09 1653.2,-574.61 1642.9,-572.13 1643.6,-579.09"/>
</g>
<!-- 6238382336&#45;&gt;6238365520 -->
<g id="edge28" class="edge">
<title>6238382336&#45;&gt;6238365520</title>
<path fill="none" stroke="black" d="M1407.54,-638.54C1418.93,-662.3 1437.74,-698.9 1458.25,-728 1533.23,-834.38 1744.87,-1087.37 1851.5,-1162 1973.37,-1247.3 2026.74,-1246 2175.5,-1246 2175.5,-1246 2175.5,-1246 2267.5,-1246 2586.48,-1246 2899.68,-957.59 2989.7,-867.53"/>
<polygon fill="black" stroke="black" points="2992.09,-870.1 2996.65,-860.53 2987.12,-865.17 2992.09,-870.1"/>
</g>
<!-- 6238382336&#45;&gt;6238370128 -->
<g id="edge40" class="edge">
<title>6238382336&#45;&gt;6238370128</title>
<path fill="none" stroke="black" d="M1406.72,-589.05C1417.16,-566.49 1434.98,-533.47 1458.25,-511 1634.96,-340.33 1930.53,-254.65 2034.2,-228.72"/>
<polygon fill="black" stroke="black" points="2034.97,-232.14 2043.84,-226.35 2033.3,-225.34 2034.97,-232.14"/>
</g>
<!-- 6238376096&#45;&gt;6238378976 -->
<g id="edge52" class="edge">
<title>6238376096&#45;&gt;6238378976</title>
<path fill="none" stroke="black" d="M448.4,-408.9C494.61,-501.68 662.02,-837.79 712.12,-938.37"/>
<polygon fill="black" stroke="black" points="708.98,-939.92 716.57,-947.31 715.24,-936.8 708.98,-939.92"/>
</g>
<!-- 6238376096&#45;&gt;6238379744 -->
<g id="edge51" class="edge">
<title>6238376096&#45;&gt;6238379744</title>
<path fill="none" stroke="black" d="M461.93,-391.8C496.29,-400.37 559.55,-414 614.5,-414 614.5,-414 614.5,-414 930.25,-414 980.44,-414 1036.12,-396.65 1071.62,-383.26"/>
<polygon fill="black" stroke="black" points="1072.49,-386.67 1080.55,-379.8 1069.96,-380.15 1072.49,-386.67"/>
</g>
<!-- 6238376096&#45;&gt;6238385648 -->
<g id="edge54" class="edge">
<title>6238376096&#45;&gt;6238385648</title>
<path fill="none" stroke="black" d="M454.73,-365.52C467.73,-351.64 485.36,-332.81 499.65,-317.55"/>
<polygon fill="black" stroke="black" points="501.87,-320.29 506.15,-310.6 496.76,-315.51 501.87,-320.29"/>
</g>
<!-- 6238378544&#45;&gt;6238374080 -->
<g id="edge32" class="edge">
<title>6238378544&#45;&gt;6238374080</title>
<path fill="none" stroke="black" d="M2546.39,-629.4C2557.88,-661.7 2578.85,-719.03 2599.5,-767 2604.72,-779.12 2610.96,-792.27 2616.49,-803.56"/>
<polygon fill="black" stroke="black" points="2613.27,-804.94 2620.85,-812.35 2619.54,-801.83 2613.27,-804.94"/>
</g>
<!-- 6238378544&#45;&gt;6238379792 -->
<g id="edge48" class="edge">
<title>6238378544&#45;&gt;6238379792</title>
<path fill="none" stroke="black" d="M2551.45,-626.65C2555.41,-633.18 2559.67,-640.34 2563.5,-647 2580.15,-675.97 2578.5,-687.01 2599.5,-713 2599.65,-713.19 2599.81,-713.38 2599.96,-713.57"/>
<polygon fill="black" stroke="black" points="2597.21,-715.75 2606.62,-720.63 2602.31,-710.95 2597.21,-715.75"/>
</g>
<!-- 6238378544&#45;&gt;6238387472 -->
<g id="edge47" class="edge">
<title>6238378544&#45;&gt;6238387472</title>
<path fill="none" stroke="black" d="M2558.03,-587.56C2608.93,-547.01 2740.46,-443.75 2790.25,-419 2934.71,-347.21 2986.71,-370.98 3138,-315 3154.42,-308.92 3156.87,-302.63 3174,-299 3267.34,-279.19 3412.79,-285.97 3506.5,-329 3622.63,-382.32 3722.04,-503.83 3762.67,-558.48"/>
<polygon fill="black" stroke="black" points="3759.71,-560.36 3768.44,-566.35 3765.35,-556.22 3759.71,-560.36"/>
</g>
<!-- 6238378544&#45;&gt;6238376480 -->
<g id="edge30" class="edge">
<title>6238378544&#45;&gt;6238376480</title>
<path fill="none" stroke="black" d="M2546.66,-578.72C2557.16,-551.51 2576,-507.61 2599.5,-474 2600.74,-472.23 2602.08,-470.47 2603.48,-468.73"/>
<polygon fill="black" stroke="black" points="2605.86,-471.32 2609.85,-461.51 2600.61,-466.69 2605.86,-471.32"/>
</g>
<!-- 6238378544&#45;&gt;6238383008 -->
<g id="edge45" class="edge">
<title>6238378544&#45;&gt;6238383008</title>
<path fill="none" stroke="black" d="M2539.99,-631.23C2546.62,-699.7 2566.16,-878.17 2600.85,-949.96"/>
<polygon fill="black" stroke="black" points="2597.57,-951.24 2605.37,-958.41 2603.75,-947.95 2597.57,-951.24"/>
</g>
<!-- 6238378544&#45;&gt;6238382384 -->
<g id="edge39" class="edge">
<title>6238378544&#45;&gt;6238382384</title>
<path fill="none" stroke="black" d="M2550.04,-580.21C2561.24,-560.45 2579,-532.36 2599.5,-512 2624.01,-487.66 2635.9,-488.74 2664.25,-469 2745.24,-412.62 2838.42,-343.62 2887.12,-307.24"/>
<polygon fill="black" stroke="black" points="2889.12,-310.11 2895.04,-301.32 2884.93,-304.51 2889.12,-310.11"/>
</g>
<!-- 6238378544&#45;&gt;6238374320 -->
<g id="edge53" class="edge">
<title>6238378544&#45;&gt;6238374320</title>
<path fill="none" stroke="black" d="M2542.05,-630.6C2550.5,-677.58 2570.45,-777.94 2599.5,-859 2603.92,-871.34 2609.97,-884.44 2615.57,-895.63"/>
<polygon fill="black" stroke="black" points="2612.36,-897.04 2620.05,-904.33 2618.59,-893.84 2612.36,-897.04"/>
</g>
<!-- 6238378544&#45;&gt;6238375856 -->
<g id="edge42" class="edge">
<title>6238378544&#45;&gt;6238375856</title>
<path fill="none" stroke="black" d="M2557.3,-621.39C2570.16,-632.68 2587.14,-647.59 2601.55,-660.25"/>
<polygon fill="black" stroke="black" points="2599.17,-662.82 2608.99,-666.78 2603.79,-657.56 2599.17,-662.82"/>
</g>
<!-- 6238378544&#45;&gt;6238383680 -->
<g id="edge27" class="edge">
<title>6238378544&#45;&gt;6238383680</title>
<path fill="none" stroke="black" d="M2539.27,-631.36C2544.56,-707.5 2561.96,-921.18 2600.78,-1003.72"/>
<polygon fill="black" stroke="black" points="2597.6,-1005.18 2605.31,-1012.45 2603.81,-1001.96 2597.6,-1005.18"/>
</g>
<!-- 6238378544&#45;&gt;6238378304 -->
<g id="edge26" class="edge">
<title>6238378544&#45;&gt;6238378304</title>
<path fill="none" stroke="black" d="M2563.61,-599.87C2606.57,-592.07 2693.43,-572.08 2754.25,-530 2775.63,-515.21 2794.02,-492.07 2806.47,-473.82"/>
<polygon fill="black" stroke="black" points="2809.35,-475.81 2811.92,-465.53 2803.5,-471.96 2809.35,-475.81"/>
</g>
<!-- 6238378544&#45;&gt;6238372160 -->
<g id="edge50" class="edge">
<title>6238378544&#45;&gt;6238372160</title>
<path fill="none" stroke="black" d="M2563.74,-604.28C2596.19,-604.62 2651.65,-605.21 2688.62,-605.6"/>
<polygon fill="black" stroke="black" points="2688.37,-609.1 2698.41,-605.71 2688.45,-602.1 2688.37,-609.1"/>
</g>
<!-- 6238378544&#45;&gt;6238365520 -->
<g id="edge38" class="edge">
<title>6238378544&#45;&gt;6238365520</title>
<path fill="none" stroke="black" d="M2562.02,-614.05C2587.72,-624.72 2629.15,-642.31 2664.25,-659 2778.15,-713.15 2909.36,-783.29 2974.4,-818.59"/>
<polygon fill="black" stroke="black" points="2972.48,-821.53 2982.93,-823.23 2975.82,-815.38 2972.48,-821.53"/>
</g>
<!-- 6238378544&#45;&gt;6238380128 -->
<g id="edge44" class="edge">
<title>6238378544&#45;&gt;6238380128</title>
<path fill="none" stroke="black" d="M2545.7,-578.34C2563.02,-524.18 2603.23,-398.47 2621.51,-341.27"/>
<polygon fill="black" stroke="black" points="2624.79,-342.51 2624.51,-331.92 2618.13,-340.37 2624.79,-342.51"/>
</g>
<!-- 6238386368&#45;&gt;6238374032 -->
<g id="edge43" class="edge">
<title>6238386368&#45;&gt;6238374032</title>
<path fill="none" stroke="black" d="M866.65,-266C874.14,-266 882.43,-266 890.45,-266"/>
<polygon fill="black" stroke="black" points="890.35,-269.5 900.35,-266 890.35,-262.5 890.35,-269.5"/>
</g>
<!-- 6238386368&#45;&gt;6238382768 -->
<g id="edge56" class="edge">
<title>6238386368&#45;&gt;6238382768</title>
<path fill="none" stroke="black" d="M850.59,-290.85C892.73,-392.1 1051.33,-773.23 1096.3,-881.28"/>
<polygon fill="black" stroke="black" points="1092.98,-882.42 1100.05,-890.31 1099.44,-879.73 1092.98,-882.42"/>
</g>
<!-- 6238386368&#45;&gt;6238387520 -->
<g id="edge33" class="edge">
<title>6238386368&#45;&gt;6238387520</title>
<path fill="none" stroke="black" d="M864.22,-254.98C947.78,-217.6 1234.67,-98 1484.25,-98 1484.25,-98 1484.25,-98 2267.5,-98 2443.84,-98 2488.58,-84.65 2664.25,-100 2779.67,-110.08 2914.2,-137.54 2978.06,-151.54"/>
<polygon fill="black" stroke="black" points="2977.14,-154.92 2987.66,-153.67 2978.65,-148.09 2977.14,-154.92"/>
</g>
<!-- 6238379984&#45;&gt;6238372352 -->
<g id="edge58" class="edge">
<title>6238379984&#45;&gt;6238372352</title>
<path fill="none" stroke="black" d="M3324.55,-528.89C3332.89,-525.38 3342.44,-521.37 3351.57,-517.53"/>
<polygon fill="black" stroke="black" points="3352.75,-520.83 3360.61,-513.73 3350.04,-514.38 3352.75,-520.83"/>
</g>
<!-- 6238379984&#45;&gt;6238383872 -->
<g id="edge46" class="edge">
<title>6238379984&#45;&gt;6238383872</title>
<path fill="none" stroke="black" d="M3293.49,-565.59C3288.13,-594.28 3279.45,-641.33 3272.5,-682 3263.97,-731.91 3270.45,-869.43 3236.5,-907 3164.23,-986.96 2774.02,-1078 2537.5,-1078 2071.5,-1078 2071.5,-1078 2071.5,-1078 2017.62,-1078 1955.64,-1070.5 1917.02,-1064.92"/>
<polygon fill="black" stroke="black" points="1917.72,-1061.49 1907.31,-1063.49 1916.69,-1068.41 1917.72,-1061.49"/>
</g>
<!-- 6238379984&#45;&gt;6238387472 -->
<g id="edge24" class="edge">
<title>6238379984&#45;&gt;6238387472</title>
<path fill="none" stroke="black" d="M3322.58,-553.33C3334.05,-560.09 3348.54,-567.61 3362.5,-572 3412.04,-587.58 3426.57,-586 3478.5,-586 3478.5,-586 3478.5,-586 3584.12,-586 3637.7,-586 3699.42,-586 3739.55,-586"/>
<polygon fill="black" stroke="black" points="3739.51,-589.5 3749.51,-586 3739.51,-582.5 3739.51,-589.5"/>
</g>
<!-- 6238379984&#45;&gt;6238384160 -->
<g id="edge34" class="edge">
<title>6238379984&#45;&gt;6238384160</title>
<path fill="none" stroke="black" d="M3318.73,-520.14C3331.53,-506.92 3348.81,-489.05 3362.97,-474.4"/>
<polygon fill="black" stroke="black" points="3365.4,-476.92 3369.84,-467.3 3360.37,-472.05 3365.4,-476.92"/>
</g>
<!-- 6238379984&#45;&gt;6238381328 -->
<g id="edge25" class="edge">
<title>6238379984&#45;&gt;6238381328</title>
<path fill="none" stroke="black" d="M3326.08,-545.46C3349.74,-551.62 3385.79,-561.5 3416.5,-572 3501.04,-600.89 3597.69,-641.6 3649.09,-663.87"/>
<polygon fill="black" stroke="black" points="3647.39,-666.95 3657.96,-667.73 3650.18,-660.53 3647.39,-666.95"/>
</g>
<!-- 6238388096&#45;&gt;6238373648 -->
<g id="edge107" class="edge">
<title>6238388096&#45;&gt;6238373648</title>
<path fill="none" stroke="black" d="M3496.14,-1036.37C3512.44,-1014.07 3536.45,-981.99 3542.5,-978 3574.46,-956.96 3617.73,-947.88 3648.33,-943.96"/>
<polygon fill="black" stroke="black" points="3648.34,-947.48 3657.88,-942.87 3647.55,-940.53 3648.34,-947.48"/>
</g>
<!-- 6238388096&#45;&gt;6238379072 -->
<g id="edge104" class="edge">
<title>6238388096&#45;&gt;6238379072</title>
<path fill="none" stroke="black" d="M3506.94,-1058.26C3518.34,-1058.37 3531.9,-1058.51 3544.34,-1058.63"/>
<polygon fill="black" stroke="black" points="3544.27,-1062.13 3554.31,-1058.73 3544.34,-1055.13 3544.27,-1062.13"/>
</g>
<!-- 6238380416&#45;&gt;6238379936 -->
<g id="edge108" class="edge">
<title>6238380416&#45;&gt;6238379936</title>
<path fill="none" stroke="black" d="M3506.41,-1125.67C3518.02,-1123.72 3531.95,-1121.39 3544.67,-1119.27"/>
<polygon fill="black" stroke="black" points="3545.13,-1122.74 3554.42,-1117.63 3543.98,-1115.83 3545.13,-1122.74"/>
</g>
<!-- 6238380416&#45;&gt;6238365760 -->
<g id="edge102" class="edge">
<title>6238380416&#45;&gt;6238365760</title>
<path fill="none" stroke="black" d="M3506.25,-1135.16C3535.03,-1140.14 3582.95,-1146.11 3623.75,-1140 3631.85,-1138.79 3640.35,-1136.73 3648.37,-1134.41"/>
<polygon fill="black" stroke="black" points="3649.34,-1137.77 3657.85,-1131.45 3647.26,-1131.08 3649.34,-1137.77"/>
</g>
<!-- 6238386704&#45;&gt;6238374176 -->
<g id="edge100" class="edge">
<title>6238386704&#45;&gt;6238374176</title>
<path fill="none" stroke="black" d="M1205.2,-918.5C1224.44,-1017.51 1297.94,-1360 1394.25,-1360 1394.25,-1360 1394.25,-1360 2537.5,-1360 2849.46,-1360 3115.05,-1009.63 3185.79,-907.58"/>
<polygon fill="black" stroke="black" points="3188.58,-909.7 3191.35,-899.48 3182.81,-905.74 3188.58,-909.7"/>
</g>
<!-- 6238372112&#45;&gt;6238379744 -->
<g id="edge93" class="edge">
<title>6238372112&#45;&gt;6238379744</title>
<path fill="none" stroke="black" d="M1043.37,-333.35C1052.05,-337.98 1062.13,-343.37 1071.73,-348.5"/>
<polygon fill="black" stroke="black" points="1070.06,-351.57 1080.53,-353.19 1073.36,-345.39 1070.06,-351.57"/>
</g>
<!-- 6238379168&#45;&gt;6240662976 -->
<g id="edge99" class="edge">
<title>6238379168&#45;&gt;6240662976</title>
<path fill="none" stroke="black" d="M3499.04,-473.82C3542.78,-428.68 3649.46,-319.24 3659.75,-315 3682.88,-305.47 3797.34,-307.06 3816.75,-319 3912.68,-377.98 3955.69,-516.57 3970.44,-577.45"/>
<polygon fill="black" stroke="black" points="3967,-578.12 3972.68,-587.06 3973.82,-576.53 3967,-578.12"/>
</g>
<!-- 6238379168&#45;&gt;6238384400 -->
<g id="edge94" class="edge">
<title>6238379168&#45;&gt;6238384400</title>
<path fill="none" stroke="black" d="M3491.96,-517.13C3510.82,-556.85 3548.33,-635.83 3568.51,-678.33"/>
<polygon fill="black" stroke="black" points="3565.26,-679.65 3572.71,-687.18 3571.59,-676.65 3565.26,-679.65"/>
</g>
<!-- 6238378688&#45;&gt;6238381280 -->
<g id="edge95" class="edge">
<title>6238378688&#45;&gt;6238381280</title>
<path fill="none" stroke="black" d="M2740.51,-762.19C2758.02,-728.17 2790.16,-665.76 2808.89,-629.38"/>
<polygon fill="black" stroke="black" points="2811.86,-631.26 2813.32,-620.77 2805.63,-628.06 2811.86,-631.26"/>
</g>
<!-- 6238378448&#45;&gt;6238355872 -->
<g id="edge103" class="edge">
<title>6238378448&#45;&gt;6238355872</title>
<path fill="none" stroke="black" d="M3505.88,-897.51C3517.61,-894.04 3531.78,-889.86 3544.71,-886.05"/>
<polygon fill="black" stroke="black" points="3545.6,-889.43 3554.2,-883.24 3543.62,-882.72 3545.6,-889.43"/>
</g>
<!-- 6238378448&#45;&gt;6238386848 -->
<g id="edge96" class="edge">
<title>6238378448&#45;&gt;6238386848</title>
<path fill="none" stroke="black" d="M3497.21,-884.12C3508.57,-871.47 3524.73,-856.24 3542.5,-848 3575.92,-832.5 3618.19,-828.87 3648.13,-828.58"/>
<polygon fill="black" stroke="black" points="3647.82,-832.08 3657.84,-828.62 3647.85,-825.08 3647.82,-832.08"/>
</g>
<!-- 6238379600&#45;&gt;6238383728 -->
<g id="edge109" class="edge">
<title>6238379600&#45;&gt;6238383728</title>
<path fill="none" stroke="black" d="M3126.49,-191.44C3130.29,-197.44 3134.35,-203.93 3138,-210 3155.85,-239.63 3175.39,-274.11 3188.59,-297.73"/>
<polygon fill="black" stroke="black" points="3185.52,-299.41 3193.44,-306.44 3191.63,-296 3185.52,-299.41"/>
</g>
<!-- 6238380368&#45;&gt;6238384496 -->
<g id="edge97" class="edge">
<title>6238380368&#45;&gt;6238384496</title>
<path fill="none" stroke="black" d="M1595.44,-1238.66C1611.81,-1223.01 1635.53,-1200.34 1653.83,-1182.85"/>
<polygon fill="black" stroke="black" points="1655.9,-1185.71 1660.71,-1176.27 1651.07,-1180.65 1655.9,-1185.71"/>
</g>
<!-- 6238384352&#45;&gt;6238381664 -->
<g id="edge105" class="edge">
<title>6238384352&#45;&gt;6238381664</title>
<path fill="none" stroke="black" d="M3504.58,-353.86C3512.86,-350.03 3522.46,-345.59 3532.02,-341.17"/>
<polygon fill="black" stroke="black" points="3533.34,-344.42 3540.95,-337.04 3530.41,-338.06 3533.34,-344.42"/>
</g>
<!-- 6238387040&#45;&gt;6238383632 -->
<g id="edge101" class="edge">
<title>6238387040&#45;&gt;6238383632</title>
<path fill="none" stroke="black" d="M3506.41,-990.1C3518.02,-992.38 3531.95,-995.12 3544.67,-997.63"/>
<polygon fill="black" stroke="black" points="3543.94,-1001.05 3554.43,-999.55 3545.29,-994.18 3543.94,-1001.05"/>
</g>
<!-- 6238387040&#45;&gt;6238372064 -->
<g id="edge98" class="edge">
<title>6238387040&#45;&gt;6238372064</title>
<path fill="none" stroke="black" d="M3502.01,-969.74C3513.68,-961.82 3528.54,-952.3 3542.5,-945 3577.48,-926.71 3619.43,-910 3648.86,-899.07"/>
<polygon fill="black" stroke="black" points="3649.88,-902.42 3658.07,-895.69 3647.47,-895.85 3649.88,-902.42"/>
</g>
<!-- 6238376048&#45;&gt;6238361008 -->
<g id="edge106" class="edge">
<title>6238376048&#45;&gt;6238361008</title>
<path fill="none" stroke="black" d="M1995.77,-749.06C2003.15,-749.64 2011.45,-750.29 2019.78,-750.94"/>
<polygon fill="black" stroke="black" points="2019.31,-754.42 2029.55,-751.71 2019.86,-747.44 2019.31,-754.42"/>
</g>
<!-- 6238383488&#45;&gt;6238381952 -->
<g id="edge136" class="edge">
<title>6238383488&#45;&gt;6238381952</title>
<path fill="none" stroke="black" d="M2194.89,-737.05C2208.45,-721.48 2227.42,-699.71 2242.28,-682.65"/>
<polygon fill="black" stroke="black" points="2244.7,-685.2 2248.63,-675.36 2239.43,-680.6 2244.7,-685.2"/>
</g>
<!-- 6238383488&#45;&gt;6238374752 -->
<g id="edge145" class="edge">
<title>6238383488&#45;&gt;6238374752</title>
<path fill="none" stroke="black" d="M2203.68,-759.34C2251.42,-763.62 2352.73,-772.69 2407.86,-777.63"/>
<polygon fill="black" stroke="black" points="2407.43,-781.1 2417.7,-778.51 2408.05,-774.13 2407.43,-781.1"/>
</g>
<!-- 6238383488&#45;&gt;6238364272 -->
<g id="edge139" class="edge">
<title>6238383488&#45;&gt;6238364272</title>
<path fill="none" stroke="black" d="M2200.62,-769.35C2209.3,-773.98 2219.38,-779.37 2228.98,-784.5"/>
<polygon fill="black" stroke="black" points="2227.31,-787.57 2237.78,-789.19 2230.61,-781.39 2227.31,-787.57"/>
</g>
<!-- 6238376624&#45;&gt;6238383872 -->
<g id="edge129" class="edge">
<title>6238376624&#45;&gt;6238383872</title>
<path fill="none" stroke="black" d="M3684.42,-378.35C3680.19,-456.1 3664.75,-676.47 3623.75,-734 3566.68,-814.07 2923.83,-1116 2825.5,-1116 2071.5,-1116 2071.5,-1116 2071.5,-1116 2015.4,-1116 1953.76,-1093.36 1915.84,-1076.62"/>
<polygon fill="black" stroke="black" points="1917.73,-1073.63 1907.17,-1072.7 1914.84,-1080.01 1917.73,-1073.63"/>
</g>
<!-- 6238376624&#45;&gt;6238387472 -->
<g id="edge131" class="edge">
<title>6238376624&#45;&gt;6238387472</title>
<path fill="none" stroke="black" d="M3703.23,-372.92C3707.02,-378.92 3710.82,-385.55 3713.75,-392 3737.11,-443.48 3730.07,-461 3749.75,-514 3755.16,-528.56 3762.14,-544.34 3768.25,-557.4"/>
<polygon fill="black" stroke="black" points="3765.02,-558.75 3772.47,-566.28 3771.34,-555.74 3765.02,-558.75"/>
</g>
<!-- 6238376624&#45;&gt;6238375232 -->
<g id="edge138" class="edge">
<title>6238376624&#45;&gt;6238375232</title>
<path fill="none" stroke="black" d="M3696.98,-325.5C3714.64,-276.73 3753.1,-170.51 3771.72,-119.07"/>
<polygon fill="black" stroke="black" points="3774.96,-120.41 3775.08,-109.81 3768.38,-118.02 3774.96,-120.41"/>
</g>
<!-- 6238376624&#45;&gt;6238386896 -->
<g id="edge149" class="edge">
<title>6238376624&#45;&gt;6238386896</title>
<path fill="none" stroke="black" d="M3714.07,-349.61C3723.6,-349.1 3734.54,-348.52 3744.83,-347.98"/>
<polygon fill="black" stroke="black" points="3744.76,-351.49 3754.56,-347.47 3744.39,-344.5 3744.76,-351.49"/>
</g>
<!-- 6238376624&#45;&gt;6238376528 -->
<g id="edge150" class="edge">
<title>6238376624&#45;&gt;6238376528</title>
<path fill="none" stroke="black" d="M3710.15,-365.22C3721,-372.11 3734.3,-380.55 3746.5,-388.3"/>
<polygon fill="black" stroke="black" points="3744.4,-391.11 3754.72,-393.52 3748.15,-385.2 3744.4,-391.11"/>
</g>
<!-- 6238376624&#45;&gt;6240917872 -->
<g id="edge148" class="edge">
<title>6238376624&#45;&gt;6240917872</title>
<path fill="none" stroke="black" d="M3702.93,-372.85C3719.31,-396.42 3745.42,-433.99 3763.17,-459.54"/>
<polygon fill="black" stroke="black" points="3760.08,-461.23 3768.66,-467.45 3765.83,-457.24 3760.08,-461.23"/>
</g>
<!-- 6238385216&#45;&gt;6238387472 -->
<g id="edge134" class="edge">
<title>6238385216&#45;&gt;6238387472</title>
<path fill="none" stroke="black" d="M2949,-596.36C2980.91,-595.62 3036.4,-594.44 3084,-594 3108,-593.78 3114.02,-592.95 3138,-594 3289.77,-600.67 3326.58,-624 3478.5,-624 3478.5,-624 3478.5,-624 3584.12,-624 3638.75,-624 3700.36,-609.89 3740.16,-598.87"/>
<polygon fill="black" stroke="black" points="3740.91,-602.3 3749.58,-596.2 3739,-595.56 3740.91,-602.3"/>
</g>
<!-- 6238385216&#45;&gt;6238365520 -->
<g id="edge126" class="edge">
<title>6238385216&#45;&gt;6238365520</title>
<path fill="none" stroke="black" d="M2938.31,-618.34C2942.19,-624.46 2946.02,-631.29 2948.75,-638 2978.01,-709.94 2948.51,-740.31 2984.75,-809 2985.64,-810.68 2986.64,-812.34 2987.73,-813.96"/>
<polygon fill="black" stroke="black" points="2984.78,-815.88 2993.72,-821.57 2990.28,-811.55 2984.78,-815.88"/>
</g>
<!-- 6238385216&#45;&gt;6238384640 -->
<g id="edge142" class="edge">
<title>6238385216&#45;&gt;6238384640</title>
<path fill="none" stroke="black" d="M2946.12,-584.64C2956.13,-579.34 2968.06,-573.03 2979.17,-567.15"/>
<polygon fill="black" stroke="black" points="2980.52,-570.4 2987.73,-562.63 2977.25,-564.21 2980.52,-570.4"/>
</g>
<!-- 6238385216&#45;&gt;6238372880 -->
<g id="edge143" class="edge">
<title>6238385216&#45;&gt;6238372880</title>
<path fill="none" stroke="black" d="M2946.6,-608.07C2956.33,-612.59 2967.81,-617.92 2978.56,-622.91"/>
<polygon fill="black" stroke="black" points="2977.08,-626.08 2987.62,-627.12 2980.02,-619.73 2977.08,-626.08"/>
</g>
<!-- 6238385216&#45;&gt;6238372496 -->
<g id="edge146" class="edge">
<title>6238385216&#45;&gt;6238372496</title>
<path fill="none" stroke="black" d="M2940.1,-617.17C2952.38,-631.3 2969.33,-650.52 2984.75,-667 2986.22,-668.57 2987.75,-670.18 2989.29,-671.8"/>
<polygon fill="black" stroke="black" points="2986.54,-673.98 2996.02,-678.72 2991.56,-669.1 2986.54,-673.98"/>
</g>
<!-- 6238385216&#45;&gt;6238385936 -->
<g id="edge135" class="edge">
<title>6238385216&#45;&gt;6238385936</title>
<path fill="none" stroke="black" d="M2938.71,-575.57C2950.74,-559.9 2967.98,-538.42 2984.75,-521 2985.01,-520.73 2985.27,-520.46 2985.53,-520.19"/>
<polygon fill="black" stroke="black" points="2987.7,-522.97 2992.46,-513.5 2982.83,-517.93 2987.7,-522.97"/>
</g>
<!-- 6238385216&#45;&gt;6238387424 -->
<g id="edge140" class="edge">
<title>6238385216&#45;&gt;6238387424</title>
<path fill="none" stroke="black" d="M2937.77,-619.14C2941.57,-625.14 2945.49,-631.72 2948.75,-638 2968.03,-675.14 2953.86,-696.77 2984.75,-725 3062.01,-795.63 3195.9,-794.72 3260.92,-789.38"/>
<polygon fill="black" stroke="black" points="3261.08,-792.88 3270.72,-788.48 3260.44,-785.9 3261.08,-792.88"/>
</g>
<!-- 6238382672&#45;&gt;6238383872 -->
<g id="edge128" class="edge">
<title>6238382672&#45;&gt;6238383872</title>
<path fill="none" stroke="black" d="M1814.48,-1038.95C1822.56,-1041.52 1831.69,-1044.42 1840.45,-1047.21"/>
<polygon fill="black" stroke="black" points="1839.19,-1050.48 1849.79,-1050.18 1841.32,-1043.81 1839.19,-1050.48"/>
</g>
<!-- 6238382672&#45;&gt;6238374080 -->
<g id="edge130" class="edge">
<title>6238382672&#45;&gt;6238374080</title>
<path fill="none" stroke="black" d="M1806.8,-1010.48C1818.4,-997.76 1834.6,-981.82 1851.5,-971 1898.07,-941.18 1912.2,-926 1967.5,-926 1967.5,-926 1967.5,-926 2267.5,-926 2387.25,-926 2522.32,-877.56 2589.01,-850.23"/>
<polygon fill="black" stroke="black" points="2590.21,-853.52 2598.1,-846.45 2587.53,-847.05 2590.21,-853.52"/>
</g>
<!-- 6238382672&#45;&gt;6238387472 -->
<g id="edge127" class="edge">
<title>6238382672&#45;&gt;6238387472</title>
<path fill="none" stroke="black" d="M1807.4,-1050.65C1818.98,-1062.35 1834.95,-1076.68 1851.5,-1086 1940.68,-1136.2 1969.16,-1154 2071.5,-1154 2071.5,-1154 2071.5,-1154 2267.5,-1154 2515.19,-1154 2575.81,-1192 2823.5,-1192 2823.5,-1192 2823.5,-1192 3206.25,-1192 3432.65,-1192 3550.91,-1305.29 3713.75,-1148 3733.17,-1129.24 3769.72,-728.6 3779.69,-615.5"/>
<polygon fill="black" stroke="black" points="3783.15,-616.09 3780.53,-605.82 3776.17,-615.47 3783.15,-616.09"/>
</g>
<!-- 6238382672&#45;&gt;6238383008 -->
<g id="edge132" class="edge">
<title>6238382672&#45;&gt;6238383008</title>
<path fill="none" stroke="black" d="M1814.93,-1024.2C1849.29,-1015.63 1912.55,-1002 1967.5,-1002 1967.5,-1002 1967.5,-1002 2447.5,-1002 2496.24,-1002 2551.65,-993.56 2588.69,-986.69"/>
<polygon fill="black" stroke="black" points="2588.91,-990.21 2598.08,-984.9 2587.6,-983.34 2588.91,-990.21"/>
</g>
<!-- 6238382672&#45;&gt;6238374320 -->
<g id="edge133" class="edge">
<title>6238382672&#45;&gt;6238374320</title>
<path fill="none" stroke="black" d="M1811.81,-1016.63C1844.56,-996.94 1908.23,-964 1967.5,-964 1967.5,-964 1967.5,-964 2447.5,-964 2496.67,-964 2551.58,-950.1 2588.39,-938.69"/>
<polygon fill="black" stroke="black" points="2589.29,-942.08 2597.76,-935.71 2587.17,-935.41 2589.29,-942.08"/>
</g>
<!-- 6238382672&#45;&gt;6238382144 -->
<g id="edge144" class="edge">
<title>6238382672&#45;&gt;6238382144</title>
<path fill="none" stroke="black" d="M1792.38,-1004.08C1798.21,-957.22 1814.19,-858.52 1851.5,-784 1852.24,-782.52 1853.06,-781.05 1853.94,-779.59"/>
<polygon fill="black" stroke="black" points="1856.67,-781.8 1859.49,-771.59 1850.92,-777.8 1856.67,-781.8"/>
</g>
<!-- 6238382672&#45;&gt;6238376720 -->
<g id="edge137" class="edge">
<title>6238382672&#45;&gt;6238376720</title>
<path fill="none" stroke="black" d="M1802.29,-1054.25C1806.61,-1062.33 1811.39,-1071.5 1815.5,-1080 1832.84,-1115.83 1824,-1133.23 1851.5,-1162 1962.48,-1278.09 2014.9,-1322 2175.5,-1322 2175.5,-1322 2175.5,-1322 2537.5,-1322 2664.99,-1322 2696.01,-1344 2823.5,-1344 2823.5,-1344 2823.5,-1344 3480.5,-1344 3656.11,-1344 3858,-1412.65 3939.64,-1443.4"/>
<polygon fill="black" stroke="black" points="3938.34,-1446.65 3948.93,-1446.94 3940.83,-1440.11 3938.34,-1446.65"/>
</g>
<!-- 6238382672&#45;&gt;6238380752 -->
<g id="edge151" class="edge">
<title>6238382672&#45;&gt;6238380752</title>
<path fill="none" stroke="black" d="M1800.74,-1006.61C1834.84,-932.72 1935.15,-716.12 1941.5,-711 1998.62,-664.89 2087.72,-656.18 2137.88,-655.24"/>
<polygon fill="black" stroke="black" points="2137.68,-658.74 2147.65,-655.16 2137.62,-651.74 2137.68,-658.74"/>
</g>
<!-- 6238382672&#45;&gt;6238356976 -->
<g id="edge141" class="edge">
<title>6238382672&#45;&gt;6238356976</title>
<path fill="none" stroke="black" d="M1799.86,-1055.98C1810.12,-1078.04 1827.72,-1109.75 1851.5,-1130 1928.84,-1195.86 1969.91,-1192 2071.5,-1192 2071.5,-1192 2071.5,-1192 2177.5,-1192 2226,-1192 2281.85,-1195 2317.86,-1197.33"/>
<polygon fill="black" stroke="black" points="2317.56,-1200.81 2327.77,-1197.98 2318.02,-1193.83 2317.56,-1200.81"/>
</g>
<!-- 6238381040&#45;&gt;6238377344 -->
<g id="edge147" class="edge">
<title>6238381040&#45;&gt;6238377344</title>
<path fill="none" stroke="black" d="M3713.57,-1000.08C3721.16,-998.64 3729.69,-997.01 3738.08,-995.41"/>
<polygon fill="black" stroke="black" points="3738.69,-998.86 3747.86,-993.55 3737.38,-991.98 3738.69,-998.86"/>
</g>
<!-- 6238380704&#45;&gt;6238384400 -->
<g id="edge175" class="edge">
<title>6238380704&#45;&gt;6238384400</title>
<path fill="none" stroke="black" d="M3326.74,-716.98C3376.95,-715.01 3486.74,-710.73 3544.65,-708.46"/>
<polygon fill="black" stroke="black" points="3544.48,-711.97 3554.33,-708.09 3544.21,-704.98 3544.48,-711.97"/>
</g>
<!-- 6238381232&#45;&gt;6238374176 -->
<g id="edge174" class="edge">
<title>6238381232&#45;&gt;6238374176</title>
<path fill="none" stroke="black" d="M3124.25,-725.64C3141.13,-758.2 3171.49,-816.8 3189.57,-851.67"/>
<polygon fill="black" stroke="black" points="3186.35,-853.06 3194.06,-860.33 3192.56,-849.84 3186.35,-853.06"/>
</g>
<!-- 6238382000&#45;&gt;6238383728 -->
<g id="edge176" class="edge">
<title>6238382000&#45;&gt;6238383728</title>
<path fill="none" stroke="black" d="M3119.87,-604.08C3136.98,-547.68 3177.5,-414.14 3195.44,-355.02"/>
<polygon fill="black" stroke="black" points="3198.72,-356.27 3198.28,-345.68 3192.02,-354.24 3198.72,-356.27"/>
</g>
<!-- 6238387376&#45;&gt;6240662976 -->
<g id="edge173" class="edge">
<title>6238387376&#45;&gt;6240662976</title>
<path fill="none" stroke="black" d="M3910.87,-607C3919.71,-607 3929.76,-607 3939.3,-607"/>
<polygon fill="black" stroke="black" points="3939.05,-610.5 3949.05,-607 3939.05,-603.5 3939.05,-610.5"/>
</g>
<!-- 6238387376&#45;&gt;6238376720 -->
<g id="edge177" class="edge">
<title>6238387376&#45;&gt;6238376720</title>
<path fill="none" stroke="black" d="M3888.92,-633.72C3895.09,-673.88 3906.79,-752.19 3914.75,-819 3942.69,-1053.37 3966.83,-1337.25 3974.34,-1428.35"/>
<polygon fill="black" stroke="black" points="3970.84,-1428.48 3975.14,-1438.16 3977.81,-1427.91 3970.84,-1428.48"/>
</g>
</g>
</svg>
