<?xml version="1.0" encoding="UTF-8" standalone="no"?>
<!DOCTYPE svg PUBLIC "-//W3C//DTD SVG 1.1//EN"
 "http://www.w3.org/Graphics/SVG/1.1/DTD/svg11.dtd">
<!-- Generated by graphviz version 14.1.0 (20251206.1807)
 -->
<!-- Title: imported_1766905766.71691 Pages: 1 -->
<svg width="990pt" height="675pt"
 viewBox="0.00 0.00 990.00 675.00" xmlns="http://www.w3.org/2000/svg" xmlns:xlink="http://www.w3.org/1999/xlink">
<g id="graph0" class="graph" transform="scale(1 1) rotate(0) translate(4 671.09)">
<title>imported_1766905766.71691</title>
<polygon fill="white" stroke="none" points="-4,4 -4,-671.09 985.75,-671.09 985.75,4 -4,4"/>
<!-- 2072840240736 -->
<g id="node1" class="node">
<title>2072840240736</title>
<polygon fill="white" stroke="black" points="426.62,-623.09 362.62,-623.09 362.62,-587.09 426.62,-587.09 426.62,-623.09"/>
<text xml:space="preserve" text-anchor="middle" x="394.62" y="-600.06" font-family="Times New Roman,serif" font-size="12.00">IV Liquid</text>
</g>
<!-- 2072840238048 -->
<g id="node19" class="node">
<title>2072840238048</title>
<ellipse fill="white" stroke="black" cx="500.5" cy="-516.09" rx="27" ry="27"/>
</g>
<!-- 2072840240736&#45;&gt;2072840238048 -->
<g id="edge8" class="edge">
<title>2072840240736&#45;&gt;2072840238048</title>
<path fill="none" stroke="black" d="M417.15,-586.65C432.73,-573.29 453.96,-555.11 470.96,-540.54"/>
<polygon fill="black" stroke="black" points="472.95,-543.45 478.26,-534.28 468.39,-538.13 472.95,-543.45"/>
</g>
<!-- 2072840228208 -->
<g id="node20" class="node">
<title>2072840228208</title>
<ellipse fill="white" stroke="black" cx="950.75" cy="-294.09" rx="27" ry="27"/>
<ellipse fill="none" stroke="black" cx="950.75" cy="-294.09" rx="31" ry="31"/>
<text xml:space="preserve" text-anchor="start" x="941" y="-280.19" font-family="Times New Roman,serif" font-size="32.00">■</text>
</g>
<!-- 2072840240736&#45;&gt;2072840228208 -->
<g id="edge9" class="edge">
<title>2072840240736&#45;&gt;2072840228208</title>
<path fill="none" stroke="black" d="M427.04,-606.05C468.61,-607.23 544.17,-609.09 608.75,-609.09 608.75,-609.09 608.75,-609.09 728,-609.09 798.04,-609.09 832.52,-632.85 883.75,-585.09 919.55,-551.71 938.46,-409.03 945.91,-336.62"/>
<polygon fill="black" stroke="black" points="949.39,-337.01 946.9,-326.71 942.42,-336.32 949.39,-337.01"/>
</g>
<!-- 2072840234736 -->
<g id="node2" class="node">
<title>2072840234736</title>
<polygon fill="white" stroke="black" points="193.12,-667.09 139.12,-667.09 139.12,-631.09 193.12,-631.09 193.12,-667.09"/>
<text xml:space="preserve" text-anchor="middle" x="166.12" y="-644.06" font-family="Times New Roman,serif" font-size="12.00">CRP</text>
</g>
<!-- 2072840234736&#45;&gt;2072840228208 -->
<g id="edge11" class="edge">
<title>2072840234736&#45;&gt;2072840228208</title>
<path fill="none" stroke="black" d="M193.28,-649.47C235.45,-650.05 321.07,-651.09 393.62,-651.09 393.62,-651.09 393.62,-651.09 728,-651.09 799.15,-651.09 834.2,-665.14 883.75,-614.09 921.7,-574.98 939.86,-414.32 946.56,-336.6"/>
<polygon fill="black" stroke="black" points="950.04,-337.07 947.38,-326.82 943.06,-336.49 950.04,-337.07"/>
</g>
<!-- 2072840230512 -->
<g id="node3" class="node">
<title>2072840230512</title>
<polygon fill="white" stroke="black" points="215,-462.09 117.25,-462.09 117.25,-426.09 215,-426.09 215,-462.09"/>
<text xml:space="preserve" text-anchor="middle" x="166.12" y="-439.06" font-family="Times New Roman,serif" font-size="12.00">ER Sepsis Triage</text>
</g>
<!-- 2072840229120 -->
<g id="node18" class="node">
<title>2072840229120</title>
<ellipse fill="white" stroke="black" cx="283.38" cy="-444.09" rx="27" ry="27"/>
</g>
<!-- 2072840230512&#45;&gt;2072840229120 -->
<g id="edge7" class="edge">
<title>2072840230512&#45;&gt;2072840229120</title>
<path fill="none" stroke="black" d="M215.33,-444.09C225.14,-444.09 235.31,-444.09 244.68,-444.09"/>
<polygon fill="black" stroke="black" points="244.52,-447.59 254.52,-444.09 244.52,-440.59 244.52,-447.59"/>
</g>
<!-- 2072840230512&#45;&gt;2072840228208 -->
<g id="edge10" class="edge">
<title>2072840230512&#45;&gt;2072840228208</title>
<path fill="none" stroke="black" d="M204.48,-462.56C279.27,-497.78 453.58,-571.09 608.75,-571.09 608.75,-571.09 608.75,-571.09 728,-571.09 847.63,-571.09 913.37,-411.69 938.14,-334.72"/>
<polygon fill="black" stroke="black" points="941.39,-336.03 941.04,-325.44 934.71,-333.94 941.39,-336.03"/>
</g>
<!-- 2072840236272 -->
<g id="node4" class="node">
<title>2072840236272</title>
<polygon fill="white" stroke="black" points="315.75,-340.09 251,-340.09 251,-304.09 315.75,-304.09 315.75,-340.09"/>
<text xml:space="preserve" text-anchor="middle" x="283.38" y="-317.06" font-family="Times New Roman,serif" font-size="12.00">ER Triage</text>
</g>
<!-- 2072840236272&#45;&gt;2072840228208 -->
<g id="edge12" class="edge">
<title>2072840236272&#45;&gt;2072840228208</title>
<path fill="none" stroke="black" d="M316.07,-319.93C358.01,-317.27 434.27,-313.09 499.5,-313.09 499.5,-313.09 499.5,-313.09 728,-313.09 791.14,-313.09 864.02,-305.35 908.48,-299.75"/>
<polygon fill="black" stroke="black" points="908.72,-303.25 918.19,-298.5 907.83,-296.3 908.72,-303.25"/>
</g>
<!-- 2072840229744 -->
<g id="node5" class="node">
<title>2072840229744</title>
<polygon fill="white" stroke="black" points="656,-415.09 563.5,-415.09 563.5,-379.09 656,-379.09 656,-415.09"/>
<text xml:space="preserve" text-anchor="middle" x="609.75" y="-392.06" font-family="Times New Roman,serif" font-size="12.00">ER Registration</text>
</g>
<!-- 2072840237712 -->
<g id="node6" class="node">
<title>2072840237712</title>
<polygon fill="white" stroke="black" points="762,-40.09 692,-40.09 692,-4.09 762,-4.09 762,-40.09"/>
<text xml:space="preserve" text-anchor="middle" x="727" y="-17.06" font-family="Times New Roman,serif" font-size="12.00">Leucocytes</text>
</g>
<!-- 2072840237712&#45;&gt;2072840228208 -->
<g id="edge13" class="edge">
<title>2072840237712&#45;&gt;2072840228208</title>
<path fill="none" stroke="black" d="M762.3,-9.7C796.77,0.35 849.56,8.89 883.75,-18.09 920.11,-46.78 938.66,-182.22 945.95,-252.12"/>
<polygon fill="black" stroke="black" points="942.43,-252.05 946.91,-261.65 949.39,-251.35 942.43,-252.05"/>
</g>
<!-- 2072840235840 -->
<g id="node7" class="node">
<title>2072840235840</title>
<polygon fill="white" stroke="black" points="641.38,-523.09 578.12,-523.09 578.12,-487.09 641.38,-487.09 641.38,-523.09"/>
<text xml:space="preserve" text-anchor="middle" x="609.75" y="-500.06" font-family="Times New Roman,serif" font-size="12.00">Release B</text>
</g>
<!-- 2072840235840&#45;&gt;2072840228208 -->
<g id="edge19" class="edge">
<title>2072840235840&#45;&gt;2072840228208</title>
<path fill="none" stroke="black" d="M641.86,-499.84C696.22,-489.32 809.76,-461.22 883.75,-400.09 905.39,-382.21 922.03,-355.3 933.18,-333.06"/>
<polygon fill="black" stroke="black" points="936.23,-334.8 937.41,-324.27 929.92,-331.76 936.23,-334.8"/>
</g>
<!-- 2072840234976 -->
<g id="node8" class="node">
<title>2072840234976</title>
<polygon fill="white" stroke="black" points="641.75,-469.09 577.75,-469.09 577.75,-433.09 641.75,-433.09 641.75,-469.09"/>
<text xml:space="preserve" text-anchor="middle" x="609.75" y="-446.06" font-family="Times New Roman,serif" font-size="12.00">Release A</text>
</g>
<!-- 2072840234976&#45;&gt;2072840228208 -->
<g id="edge17" class="edge">
<title>2072840234976&#45;&gt;2072840228208</title>
<path fill="none" stroke="black" d="M642.01,-446.6C695.15,-437.86 804.98,-414.86 883.75,-365.09 899.12,-355.37 913.28,-341.21 924.5,-328.08"/>
<polygon fill="black" stroke="black" points="927.18,-330.34 930.83,-320.4 921.77,-325.9 927.18,-330.34"/>
</g>
<!-- 2072840226144 -->
<g id="node21" class="node">
<title>2072840226144</title>
<ellipse fill="white" stroke="black" cx="727" cy="-220.09" rx="27" ry="27"/>
</g>
<!-- 2072840234976&#45;&gt;2072840226144 -->
<g id="edge20" class="edge">
<title>2072840234976&#45;&gt;2072840226144</title>
<path fill="none" stroke="black" d="M642.24,-436.29C647.35,-432.84 652.2,-428.78 656,-424.09 695.74,-375.11 713.49,-302.26 720.98,-258.16"/>
<polygon fill="black" stroke="black" points="724.4,-258.99 722.52,-248.56 717.48,-257.89 724.4,-258.99"/>
</g>
<!-- 2072840236848 -->
<g id="node9" class="node">
<title>2072840236848</title>
<polygon fill="white" stroke="black" points="437.5,-462.09 351.75,-462.09 351.75,-426.09 437.5,-426.09 437.5,-462.09"/>
<text xml:space="preserve" text-anchor="middle" x="394.62" y="-439.06" font-family="Times New Roman,serif" font-size="12.00">IV Antibiotics</text>
</g>
<!-- 2072840236848&#45;&gt;2072840228208 -->
<g id="edge18" class="edge">
<title>2072840236848&#45;&gt;2072840228208</title>
<path fill="none" stroke="black" d="M419.71,-425.71C457.71,-398.61 534.87,-351.09 608.75,-351.09 608.75,-351.09 608.75,-351.09 728,-351.09 798.04,-351.09 817.01,-348.34 883.75,-327.09 893.68,-323.93 903.97,-319.44 913.38,-314.79"/>
<polygon fill="black" stroke="black" points="914.94,-317.92 922.23,-310.23 911.74,-311.7 914.94,-317.92"/>
</g>
<!-- 2072840231856 -->
<g id="node22" class="node">
<title>2072840231856</title>
<ellipse fill="white" stroke="black" cx="500.5" cy="-444.09" rx="27" ry="27"/>
</g>
<!-- 2072840236848&#45;&gt;2072840231856 -->
<g id="edge21" class="edge">
<title>2072840236848&#45;&gt;2072840231856</title>
<path fill="none" stroke="black" d="M437.87,-444.09C445.78,-444.09 454,-444.09 461.76,-444.09"/>
<polygon fill="black" stroke="black" points="461.57,-447.59 471.57,-444.09 461.57,-440.59 461.57,-447.59"/>
</g>
<!-- 2072840225088 -->
<g id="node10" class="node">
<title>2072840225088</title>
<polygon fill="white" stroke="black" points="874.75,-247.09 807,-247.09 807,-211.09 874.75,-211.09 874.75,-247.09"/>
<text xml:space="preserve" text-anchor="middle" x="840.88" y="-224.06" font-family="Times New Roman,serif" font-size="12.00">Return ER</text>
</g>
<!-- 2072840225088&#45;&gt;2072840228208 -->
<g id="edge26" class="edge">
<title>2072840225088&#45;&gt;2072840228208</title>
<path fill="none" stroke="black" d="M872.5,-247.54C885.53,-255.39 900.81,-264.6 914.33,-272.74"/>
<polygon fill="black" stroke="black" points="912.13,-275.51 922.5,-277.67 915.74,-269.51 912.13,-275.51"/>
</g>
<!-- 2072840236896 -->
<g id="node11" class="node">
<title>2072840236896</title>
<polygon fill="white" stroke="black" points="81.25,-497.09 0,-497.09 0,-461.09 81.25,-461.09 81.25,-497.09"/>
<text xml:space="preserve" text-anchor="middle" x="40.62" y="-474.06" font-family="Times New Roman,serif" font-size="12.00">Admission IC</text>
</g>
<!-- 2072840236416 -->
<g id="node12" class="node">
<title>2072840236416</title>
<polygon fill="white" stroke="black" points="883.75,-193.09 798,-193.09 798,-157.09 883.75,-157.09 883.75,-193.09"/>
<text xml:space="preserve" text-anchor="middle" x="840.88" y="-170.06" font-family="Times New Roman,serif" font-size="12.00">Admission NC</text>
</g>
<!-- 2072840236416&#45;&gt;2072840228208 -->
<g id="edge27" class="edge">
<title>2072840236416&#45;&gt;2072840228208</title>
<path fill="none" stroke="black" d="M873.06,-193.29C876.83,-196.03 880.49,-198.99 883.75,-202.09 900.93,-218.44 916.58,-239.81 928.32,-257.84"/>
<polygon fill="black" stroke="black" points="925.3,-259.62 933.62,-266.19 931.21,-255.87 925.3,-259.62"/>
</g>
<!-- 2072840234016 -->
<g id="node13" class="node">
<title>2072840234016</title>
<polygon fill="white" stroke="black" points="641,-261.09 578.5,-261.09 578.5,-225.09 641,-225.09 641,-261.09"/>
<text xml:space="preserve" text-anchor="middle" x="609.75" y="-238.06" font-family="Times New Roman,serif" font-size="12.00">Release E</text>
</g>
<!-- 2072840234016&#45;&gt;2072840228208 -->
<g id="edge31" class="edge">
<title>2072840234016&#45;&gt;2072840228208</title>
<path fill="none" stroke="black" d="M641.22,-248.05C656.46,-250.52 675.2,-253.51 692,-256.09 768.32,-267.82 857.46,-280.8 908.39,-288.15"/>
<polygon fill="black" stroke="black" points="907.68,-291.58 918.08,-289.55 908.68,-284.66 907.68,-291.58"/>
</g>
<!-- 2072840234016&#45;&gt;2072840226144 -->
<g id="edge32" class="edge">
<title>2072840234016&#45;&gt;2072840226144</title>
<path fill="none" stroke="black" d="M641.33,-236.99C656,-234.06 673.69,-230.53 689.1,-227.45"/>
<polygon fill="black" stroke="black" points="689.74,-230.89 698.86,-225.5 688.37,-224.03 689.74,-230.89"/>
</g>
<!-- 2072840236656 -->
<g id="node14" class="node">
<title>2072840236656</title>
<polygon fill="white" stroke="black" points="641.75,-196.09 577.75,-196.09 577.75,-160.09 641.75,-160.09 641.75,-196.09"/>
<text xml:space="preserve" text-anchor="middle" x="609.75" y="-173.06" font-family="Times New Roman,serif" font-size="12.00">Release D</text>
</g>
<!-- 2072840236656&#45;&gt;2072840228208 -->
<g id="edge28" class="edge">
<title>2072840236656&#45;&gt;2072840228208</title>
<path fill="none" stroke="black" d="M641.93,-162.77C695.91,-138.65 808.23,-99.35 883.75,-148.09 919.03,-170.86 935.65,-217.53 943.35,-252"/>
<polygon fill="black" stroke="black" points="939.9,-252.6 945.33,-261.69 946.76,-251.2 939.9,-252.6"/>
</g>
<!-- 2072840236656&#45;&gt;2072840226144 -->
<g id="edge33" class="edge">
<title>2072840236656&#45;&gt;2072840226144</title>
<path fill="none" stroke="black" d="M642.24,-189.57C657.15,-195 675.02,-201.51 690.42,-207.12"/>
<polygon fill="black" stroke="black" points="689.1,-210.37 699.69,-210.5 691.5,-203.79 689.1,-210.37"/>
</g>
<!-- 2072840230800 -->
<g id="node15" class="node">
<title>2072840230800</title>
<polygon fill="white" stroke="black" points="875.12,-63.09 806.62,-63.09 806.62,-27.09 875.12,-27.09 875.12,-63.09"/>
<text xml:space="preserve" text-anchor="middle" x="840.88" y="-40.06" font-family="Times New Roman,serif" font-size="12.00">LacticAcid</text>
</g>
<!-- 2072840230800&#45;&gt;2072840228208 -->
<g id="edge30" class="edge">
<title>2072840230800&#45;&gt;2072840228208</title>
<path fill="none" stroke="black" d="M870.72,-63.25C875.58,-67.32 880.2,-71.98 883.75,-77.09 920.91,-130.62 937.6,-205.61 944.77,-251.96"/>
<polygon fill="black" stroke="black" points="941.27,-252.2 946.17,-261.59 948.19,-251.19 941.27,-252.2"/>
</g>
<!-- 2072840240592 -->
<g id="node16" class="node">
<title>2072840240592</title>
<polygon fill="white" stroke="black" points="641.38,-120.09 578.12,-120.09 578.12,-84.09 641.38,-84.09 641.38,-120.09"/>
<text xml:space="preserve" text-anchor="middle" x="609.75" y="-97.06" font-family="Times New Roman,serif" font-size="12.00">Release C</text>
</g>
<!-- 2072840240592&#45;&gt;2072840228208 -->
<g id="edge29" class="edge">
<title>2072840240592&#45;&gt;2072840228208</title>
<path fill="none" stroke="black" d="M641.8,-94.41C696.58,-82.82 811.42,-67.47 883.75,-121.09 924.85,-151.56 940.36,-211.01 946.21,-251.63"/>
<polygon fill="black" stroke="black" points="942.7,-251.83 947.45,-261.31 949.65,-250.94 942.7,-251.83"/>
</g>
<!-- 2072840240592&#45;&gt;2072840226144 -->
<g id="edge34" class="edge">
<title>2072840240592&#45;&gt;2072840226144</title>
<path fill="none" stroke="black" d="M628.76,-120.53C647.73,-139.95 677.81,-170.75 699.5,-192.95"/>
<polygon fill="black" stroke="black" points="696.81,-195.21 706.3,-199.92 701.81,-190.32 696.81,-195.21"/>
</g>
<!-- 2072840229552 -->
<g id="node17" class="node">
<title>2072840229552</title>
<ellipse fill="white" stroke="black" cx="40.62" cy="-416.09" rx="27" ry="27"/>
<text xml:space="preserve" text-anchor="start" x="30.5" y="-401.04" font-family="Times New Roman,serif" font-size="34.00">●</text>
</g>
<!-- 2072840229552&#45;&gt;2072840240736 -->
<g id="edge6" class="edge">
<title>2072840229552&#45;&gt;2072840240736</title>
<path fill="none" stroke="black" d="M62.04,-433.16C106.2,-469.79 209.95,-554.16 251,-573.09 282.94,-587.82 322.1,-595.98 351.3,-600.36"/>
<polygon fill="black" stroke="black" points="350.48,-603.78 360.87,-601.71 351.45,-596.85 350.48,-603.78"/>
</g>
<!-- 2072840229552&#45;&gt;2072840234736 -->
<g id="edge4" class="edge">
<title>2072840229552&#45;&gt;2072840234736</title>
<path fill="none" stroke="black" d="M63.04,-431.3C69.79,-437.09 76.67,-444.21 81.25,-452.09 118.1,-515.48 77.5,-551.48 117.25,-613.09 120.63,-618.33 125.06,-623.09 129.86,-627.31"/>
<polygon fill="black" stroke="black" points="127.53,-629.94 137.55,-633.37 131.86,-624.44 127.53,-629.94"/>
</g>
<!-- 2072840229552&#45;&gt;2072840230512 -->
<g id="edge2" class="edge">
<title>2072840229552&#45;&gt;2072840230512</title>
<path fill="none" stroke="black" d="M67.21,-421.89C78.53,-424.46 92.35,-427.59 106,-430.68"/>
<polygon fill="black" stroke="black" points="104.85,-434.01 115.38,-432.81 106.4,-427.19 104.85,-434.01"/>
</g>
<!-- 2072840229552&#45;&gt;2072840236272 -->
<g id="edge1" class="edge">
<title>2072840229552&#45;&gt;2072840236272</title>
<path fill="none" stroke="black" d="M64.24,-402.38C78.99,-393.81 98.85,-382.95 117.25,-375.09 157.8,-357.77 205.99,-342.92 239.81,-333.38"/>
<polygon fill="black" stroke="black" points="240.54,-336.81 249.24,-330.76 238.67,-330.07 240.54,-336.81"/>
</g>
<!-- 2072840229552&#45;&gt;2072840229744 -->
<g id="edge3" class="edge">
<title>2072840229552&#45;&gt;2072840229744</title>
<path fill="none" stroke="black" d="M67.53,-411.26C111.52,-403.5 203.72,-389.09 282.38,-389.09 282.38,-389.09 282.38,-389.09 395.62,-389.09 448.54,-389.09 508.78,-391.58 551.69,-393.78"/>
<polygon fill="black" stroke="black" points="551.36,-397.27 561.53,-394.3 551.72,-390.28 551.36,-397.27"/>
</g>
<!-- 2072840229552&#45;&gt;2072840237712 -->
<g id="edge5" class="edge">
<title>2072840229552&#45;&gt;2072840237712</title>
<path fill="none" stroke="black" d="M45.3,-389.23C58.84,-302.28 114.22,-34.09 282.38,-34.09 282.38,-34.09 282.38,-34.09 501.5,-34.09 563.62,-34.09 635.26,-29.45 680.59,-25.94"/>
<polygon fill="black" stroke="black" points="680.6,-29.45 690.29,-25.17 680.05,-22.47 680.6,-29.45"/>
</g>
<!-- 2072840229120&#45;&gt;2072840236848 -->
<g id="edge16" class="edge">
<title>2072840229120&#45;&gt;2072840236848</title>
<path fill="none" stroke="black" d="M310.82,-444.09C319.72,-444.09 330,-444.09 340.22,-444.09"/>
<polygon fill="black" stroke="black" points="340.14,-447.59 350.14,-444.09 340.14,-440.59 340.14,-447.59"/>
</g>
<!-- 2072840238048&#45;&gt;2072840235840 -->
<g id="edge15" class="edge">
<title>2072840238048&#45;&gt;2072840235840</title>
<path fill="none" stroke="black" d="M527.74,-513.4C539.44,-512.2 553.52,-510.75 566.64,-509.41"/>
<polygon fill="black" stroke="black" points="566.74,-512.92 576.33,-508.41 566.02,-505.95 566.74,-512.92"/>
</g>
<!-- 2072840238048&#45;&gt;2072840234976 -->
<g id="edge14" class="edge">
<title>2072840238048&#45;&gt;2072840234976</title>
<path fill="none" stroke="black" d="M524.14,-502.13C535.86,-494.92 550.43,-485.99 563.5,-478.09 565.11,-477.11 566.76,-476.12 568.43,-475.11"/>
<polygon fill="black" stroke="black" points="569.98,-478.27 576.75,-470.12 566.38,-472.26 569.98,-478.27"/>
</g>
<!-- 2072840226144&#45;&gt;2072840225088 -->
<g id="edge25" class="edge">
<title>2072840226144&#45;&gt;2072840225088</title>
<path fill="none" stroke="black" d="M754.23,-222.2C766.44,-223.18 781.31,-224.38 795.21,-225.5"/>
<polygon fill="black" stroke="black" points="794.83,-228.98 805.07,-226.29 795.39,-222 794.83,-228.98"/>
</g>
<!-- 2072840231856&#45;&gt;2072840229744 -->
<g id="edge22" class="edge">
<title>2072840231856&#45;&gt;2072840229744</title>
<path fill="none" stroke="black" d="M525.84,-433.42C535.02,-429.4 545.85,-424.65 556.6,-419.94"/>
<polygon fill="black" stroke="black" points="557.69,-423.29 565.44,-416.07 554.88,-416.88 557.69,-423.29"/>
</g>
<!-- 2072840231856&#45;&gt;2072840235840 -->
<g id="edge24" class="edge">
<title>2072840231856&#45;&gt;2072840235840</title>
<path fill="none" stroke="black" d="M524.51,-457.17C537.11,-464.34 553.11,-473.44 567.76,-481.78"/>
<polygon fill="black" stroke="black" points="565.9,-484.74 576.33,-486.65 569.36,-478.66 565.9,-484.74"/>
</g>
<!-- 2072840231856&#45;&gt;2072840234976 -->
<g id="edge23" class="edge">
<title>2072840231856&#45;&gt;2072840234976</title>
<path fill="none" stroke="black" d="M527.74,-445.8C539.34,-446.56 553.29,-447.47 566.32,-448.32"/>
<polygon fill="black" stroke="black" points="565.73,-451.79 575.93,-448.95 566.18,-444.8 565.73,-451.79"/>
</g>
</g>
</svg>
