<?xml version="1.0" encoding="UTF-8" standalone="no"?>
<!DOCTYPE svg PUBLIC "-//W3C//DTD SVG 1.1//EN"
 "http://www.w3.org/Graphics/SVG/1.1/DTD/svg11.dtd">
<!-- Generated by graphviz version 14.1.0 (20251206.1807)
 -->
<!-- Title: imported_1766906982.7783473 Pages: 1 -->
<svg width="306pt" height="962pt"
 viewBox="0.00 0.00 306.00 962.00" xmlns="http://www.w3.org/2000/svg" xmlns:xlink="http://www.w3.org/1999/xlink">
<g id="graph0" class="graph" transform="scale(1 1) rotate(0) translate(4 958)">
<title>imported_1766906982.7783473</title>
<polygon fill="white" stroke="none" points="-4,4 -4,-958 301.75,-958 301.75,4 -4,4"/>
<!-- 2072804049312 -->
<g id="node1" class="node">
<title>2072804049312</title>
<polygon fill="white" stroke="black" points="179.5,-954 110.25,-954 110.25,-918 179.5,-918 179.5,-954"/>
<text xml:space="preserve" text-anchor="middle" x="144.88" y="-930.98" font-family="Times New Roman,serif" font-size="12.00">RELEASE</text>
</g>
<!-- 2072804062320 -->
<g id="node20" class="node">
<title>2072804062320</title>
<ellipse fill="white" stroke="black" cx="266.75" cy="-477" rx="27" ry="27"/>
<ellipse fill="none" stroke="black" cx="266.75" cy="-477" rx="31" ry="31"/>
<text xml:space="preserve" text-anchor="start" x="257" y="-463.1" font-family="Times New Roman,serif" font-size="32.00">■</text>
</g>
<!-- 2072804049312&#45;&gt;2072804062320 -->
<g id="edge32" class="edge">
<title>2072804049312&#45;&gt;2072804062320</title>
<path fill="none" stroke="black" d="M179.99,-925.01C187.54,-921.07 194.76,-915.85 199.75,-909 244.63,-847.31 259.73,-615.93 264.14,-519.55"/>
<polygon fill="black" stroke="black" points="267.63,-519.88 264.57,-509.73 260.63,-519.57 267.63,-519.88"/>
</g>
<!-- 2072804053056 -->
<g id="node2" class="node">
<title>2072804053056</title>
<polygon fill="white" stroke="black" points="193.38,-900 96.38,-900 96.38,-864 193.38,-864 193.38,-900"/>
<text xml:space="preserve" text-anchor="middle" x="144.88" y="-876.98" font-family="Times New Roman,serif" font-size="12.00">ZDBC_BEHAN</text>
</g>
<!-- 2072804053056&#45;&gt;2072804062320 -->
<g id="edge20" class="edge">
<title>2072804053056&#45;&gt;2072804062320</title>
<path fill="none" stroke="black" d="M191.38,-863.55C194.52,-861.03 197.38,-858.19 199.75,-855 238.9,-802.36 256.88,-606.99 263.08,-519.66"/>
<polygon fill="black" stroke="black" points="266.57,-520.05 263.76,-509.84 259.58,-519.57 266.57,-520.05"/>
</g>
<!-- 2072804053920 -->
<g id="node3" class="node">
<title>2072804053920</title>
<polygon fill="white" stroke="black" points="187.38,-846 102.38,-846 102.38,-810 187.38,-810 187.38,-846"/>
<text xml:space="preserve" text-anchor="middle" x="144.88" y="-822.98" font-family="Times New Roman,serif" font-size="12.00">SET STATUS</text>
</g>
<!-- 2072804053920&#45;&gt;2072804062320 -->
<g id="edge29" class="edge">
<title>2072804053920&#45;&gt;2072804062320</title>
<path fill="none" stroke="black" d="M187.68,-812.12C192.26,-809 196.44,-805.32 199.75,-801 233.28,-757.22 253.66,-596.65 261.74,-519.26"/>
<polygon fill="black" stroke="black" points="265.2,-519.83 262.73,-509.53 258.23,-519.12 265.2,-519.83"/>
</g>
<!-- 2072804055936 -->
<g id="node4" class="node">
<title>2072804055936</title>
<polygon fill="white" stroke="black" points="175.75,-792 114,-792 114,-756 175.75,-756 175.75,-792"/>
<text xml:space="preserve" text-anchor="middle" x="144.88" y="-768.98" font-family="Times New Roman,serif" font-size="12.00">DELETE</text>
</g>
<!-- 2072804055936&#45;&gt;2072804062320 -->
<g id="edge26" class="edge">
<title>2072804055936&#45;&gt;2072804062320</title>
<path fill="none" stroke="black" d="M176.21,-764.35C184.92,-760.25 193.69,-754.61 199.75,-747 252.93,-680.28 264.14,-576.92 265.98,-519.36"/>
<polygon fill="black" stroke="black" points="269.47,-519.74 266.2,-509.66 262.47,-519.58 269.47,-519.74"/>
</g>
<!-- 2072804056416 -->
<g id="node5" class="node">
<title>2072804056416</title>
<polygon fill="white" stroke="black" points="183.62,-738 106.12,-738 106.12,-702 183.62,-702 183.62,-738"/>
<text xml:space="preserve" text-anchor="middle" x="144.88" y="-714.98" font-family="Times New Roman,serif" font-size="12.00">CODE NOK</text>
</g>
<!-- 2072804056416&#45;&gt;2072804062320 -->
<g id="edge34" class="edge">
<title>2072804056416&#45;&gt;2072804062320</title>
<path fill="none" stroke="black" d="M184.04,-705.85C189.9,-702.36 195.43,-698.12 199.75,-693 241.85,-643.15 257.11,-566.85 262.63,-519.54"/>
<polygon fill="black" stroke="black" points="266.1,-519.99 263.67,-509.68 259.14,-519.25 266.1,-519.99"/>
</g>
<!-- 2072770210624 -->
<g id="node6" class="node">
<title>2072770210624</title>
<polygon fill="white" stroke="black" points="171.88,-684 117.88,-684 117.88,-648 171.88,-648 171.88,-684"/>
<text xml:space="preserve" text-anchor="middle" x="144.88" y="-660.98" font-family="Times New Roman,serif" font-size="12.00">FIN</text>
</g>
<!-- 2072770210624&#45;&gt;2072804062320 -->
<g id="edge21" class="edge">
<title>2072770210624&#45;&gt;2072804062320</title>
<path fill="none" stroke="black" d="M172.21,-657.32C181.89,-653.05 192.29,-647.06 199.75,-639 231.11,-605.11 248.5,-554.33 257.45,-518.68"/>
<polygon fill="black" stroke="black" points="260.81,-519.69 259.72,-509.15 254,-518.07 260.81,-519.69"/>
</g>
<!-- 2072773900192 -->
<g id="node7" class="node">
<title>2072773900192</title>
<polygon fill="white" stroke="black" points="174.62,-630 115.12,-630 115.12,-594 174.62,-594 174.62,-630"/>
<text xml:space="preserve" text-anchor="middle" x="144.88" y="-606.98" font-family="Times New Roman,serif" font-size="12.00">REJECT</text>
</g>
<!-- 2072773900192&#45;&gt;2072804062320 -->
<g id="edge27" class="edge">
<title>2072773900192&#45;&gt;2072804062320</title>
<path fill="none" stroke="black" d="M174.87,-601.11C183.52,-596.95 192.59,-591.59 199.75,-585 220.84,-565.61 237.56,-537.97 248.9,-515.5"/>
<polygon fill="black" stroke="black" points="251.99,-517.15 253.21,-506.63 245.69,-514.09 251.99,-517.15"/>
</g>
<!-- 2072773898560 -->
<g id="node8" class="node">
<title>2072773898560</title>
<polygon fill="white" stroke="black" points="192.62,-576 97.12,-576 97.12,-540 192.62,-540 192.62,-576"/>
<text xml:space="preserve" text-anchor="middle" x="144.88" y="-552.98" font-family="Times New Roman,serif" font-size="12.00">CHANGE END</text>
</g>
<!-- 2072773898560&#45;&gt;2072804062320 -->
<g id="edge35" class="edge">
<title>2072773898560&#45;&gt;2072804062320</title>
<path fill="none" stroke="black" d="M185.29,-539.53C190.25,-536.83 195.18,-533.96 199.75,-531 211.69,-523.26 223.96,-513.72 234.64,-504.83"/>
<polygon fill="black" stroke="black" points="236.68,-507.68 242.04,-498.54 232.15,-502.35 236.68,-507.68"/>
</g>
<!-- 2072804062416 -->
<g id="node9" class="node">
<title>2072804062416</title>
<polygon fill="white" stroke="black" points="174.62,-522 115.12,-522 115.12,-486 174.62,-486 174.62,-522"/>
<text xml:space="preserve" text-anchor="middle" x="144.88" y="-498.98" font-family="Times New Roman,serif" font-size="12.00">BILLED</text>
</g>
<!-- 2072804062416&#45;&gt;2072804062320 -->
<g id="edge24" class="edge">
<title>2072804062416&#45;&gt;2072804062320</title>
<path fill="none" stroke="black" d="M174.89,-497.46C189.98,-494.07 208.67,-489.86 225.17,-486.14"/>
<polygon fill="black" stroke="black" points="225.7,-489.61 234.69,-484 224.16,-482.78 225.7,-489.61"/>
</g>
<!-- 2072804052048 -->
<g id="node10" class="node">
<title>2072804052048</title>
<polygon fill="white" stroke="black" points="179.5,-468 110.25,-468 110.25,-432 179.5,-432 179.5,-468"/>
<text xml:space="preserve" text-anchor="middle" x="144.88" y="-444.98" font-family="Times New Roman,serif" font-size="12.00">CODE OK</text>
</g>
<!-- 2072804052048&#45;&gt;2072804062320 -->
<g id="edge36" class="edge">
<title>2072804052048&#45;&gt;2072804062320</title>
<path fill="none" stroke="black" d="M179.91,-457.66C194.03,-460.85 210.52,-464.56 225.26,-467.88"/>
<polygon fill="black" stroke="black" points="224.12,-471.21 234.64,-469.99 225.65,-464.38 224.12,-471.21"/>
</g>
<!-- 2072804050800 -->
<g id="node11" class="node">
<title>2072804050800</title>
<polygon fill="white" stroke="black" points="199.75,-414 90,-414 90,-378 199.75,-378 199.75,-414"/>
<text xml:space="preserve" text-anchor="middle" x="144.88" y="-390.98" font-family="Times New Roman,serif" font-size="12.00">CHANGE DIAGN</text>
</g>
<!-- 2072804050800&#45;&gt;2072804062320 -->
<g id="edge30" class="edge">
<title>2072804050800&#45;&gt;2072804062320</title>
<path fill="none" stroke="black" d="M185.29,-414.47C190.25,-417.17 195.18,-420.04 199.75,-423 211.69,-430.74 223.96,-440.28 234.64,-449.17"/>
<polygon fill="black" stroke="black" points="232.15,-451.65 242.04,-455.46 236.68,-446.32 232.15,-451.65"/>
</g>
<!-- 2072804053200 -->
<g id="node12" class="node">
<title>2072804053200</title>
<polygon fill="white" stroke="black" points="179.12,-360 110.62,-360 110.62,-324 179.12,-324 179.12,-360"/>
<text xml:space="preserve" text-anchor="middle" x="144.88" y="-336.98" font-family="Times New Roman,serif" font-size="12.00">MANUAL</text>
</g>
<!-- 2072804053200&#45;&gt;2072804062320 -->
<g id="edge28" class="edge">
<title>2072804053200&#45;&gt;2072804062320</title>
<path fill="none" stroke="black" d="M179.36,-355.14C186.58,-358.93 193.82,-363.55 199.75,-369 220.84,-388.39 237.56,-416.03 248.9,-438.5"/>
<polygon fill="black" stroke="black" points="245.69,-439.91 253.21,-447.37 251.99,-436.85 245.69,-439.91"/>
</g>
<!-- 2072804054256 -->
<g id="node13" class="node">
<title>2072804054256</title>
<polygon fill="white" stroke="black" points="176.5,-306 113.25,-306 113.25,-270 176.5,-270 176.5,-306"/>
<text xml:space="preserve" text-anchor="middle" x="144.88" y="-282.98" font-family="Times New Roman,serif" font-size="12.00">REOPEN</text>
</g>
<!-- 2072804054256&#45;&gt;2072804062320 -->
<g id="edge33" class="edge">
<title>2072804054256&#45;&gt;2072804062320</title>
<path fill="none" stroke="black" d="M176.95,-298.89C185.18,-302.94 193.5,-308.24 199.75,-315 231.11,-348.89 248.5,-399.67 257.45,-435.32"/>
<polygon fill="black" stroke="black" points="254,-435.93 259.72,-444.85 260.81,-434.31 254,-435.93"/>
</g>
<!-- 2072804055600 -->
<g id="node14" class="node">
<title>2072804055600</title>
<polygon fill="white" stroke="black" points="173.5,-252 116.25,-252 116.25,-216 173.5,-216 173.5,-252"/>
<text xml:space="preserve" text-anchor="middle" x="144.88" y="-228.97" font-family="Times New Roman,serif" font-size="12.00">EMPTY</text>
</g>
<!-- 2072804055600&#45;&gt;2072804062320 -->
<g id="edge23" class="edge">
<title>2072804055600&#45;&gt;2072804062320</title>
<path fill="none" stroke="black" d="M173.99,-242.96C183.3,-247.14 193,-253.01 199.75,-261 241.85,-310.85 257.11,-387.15 262.63,-434.46"/>
<polygon fill="black" stroke="black" points="259.14,-434.75 263.67,-444.32 266.1,-434.01 259.14,-434.75"/>
</g>
<!-- 2072804057232 -->
<g id="node15" class="node">
<title>2072804057232</title>
<polygon fill="white" stroke="black" points="178.38,-198 111.38,-198 111.38,-162 178.38,-162 178.38,-198"/>
<text xml:space="preserve" text-anchor="middle" x="144.88" y="-174.97" font-family="Times New Roman,serif" font-size="12.00">JOIN&#45;PAT</text>
</g>
<!-- 2072804057232&#45;&gt;2072804062320 -->
<g id="edge31" class="edge">
<title>2072804057232&#45;&gt;2072804062320</title>
<path fill="none" stroke="black" d="M178.74,-190.88C186.59,-194.86 194.27,-200.13 199.75,-207 252.93,-273.72 264.14,-377.08 265.98,-434.64"/>
<polygon fill="black" stroke="black" points="262.47,-434.42 266.2,-444.34 269.47,-434.26 262.47,-434.42"/>
</g>
<!-- 2072804057520 -->
<g id="node16" class="node">
<title>2072804057520</title>
<polygon fill="white" stroke="black" points="177.25,-144 112.5,-144 112.5,-108 177.25,-108 177.25,-144"/>
<text xml:space="preserve" text-anchor="middle" x="144.88" y="-120.97" font-family="Times New Roman,serif" font-size="12.00">STORNO</text>
</g>
<!-- 2072804057520&#45;&gt;2072804062320 -->
<g id="edge19" class="edge">
<title>2072804057520&#45;&gt;2072804062320</title>
<path fill="none" stroke="black" d="M177.51,-136.04C185.85,-140.09 194.09,-145.61 199.75,-153 233.28,-196.78 253.66,-357.35 261.74,-434.74"/>
<polygon fill="black" stroke="black" points="258.23,-434.88 262.73,-444.47 265.2,-434.17 258.23,-434.88"/>
</g>
<!-- 2072773899856 -->
<g id="node17" class="node">
<title>2072773899856</title>
<polygon fill="white" stroke="black" points="190.75,-90 99,-90 99,-54 190.75,-54 190.75,-90"/>
<text xml:space="preserve" text-anchor="middle" x="144.88" y="-66.97" font-family="Times New Roman,serif" font-size="12.00">CODE ERROR</text>
</g>
<!-- 2072773899856&#45;&gt;2072804062320 -->
<g id="edge25" class="edge">
<title>2072773899856&#45;&gt;2072804062320</title>
<path fill="none" stroke="black" d="M190.88,-90.06C194.22,-92.67 197.25,-95.64 199.75,-99 238.9,-151.64 256.88,-347.01 263.08,-434.34"/>
<polygon fill="black" stroke="black" points="259.58,-434.43 263.76,-444.16 266.57,-433.95 259.58,-434.43"/>
</g>
<!-- 2072773895056 -->
<g id="node18" class="node">
<title>2072773895056</title>
<polygon fill="white" stroke="black" points="171.88,-36 117.88,-36 117.88,0 171.88,0 171.88,-36"/>
<text xml:space="preserve" text-anchor="middle" x="144.88" y="-12.97" font-family="Times New Roman,serif" font-size="12.00">NEW</text>
</g>
<!-- 2072773895056&#45;&gt;2072804062320 -->
<g id="edge22" class="edge">
<title>2072773895056&#45;&gt;2072804062320</title>
<path fill="none" stroke="black" d="M172.13,-25.36C182.28,-29.51 193.04,-35.78 199.75,-45 244.63,-106.69 259.73,-338.07 264.14,-434.45"/>
<polygon fill="black" stroke="black" points="260.63,-434.43 264.57,-444.27 267.63,-434.12 260.63,-434.43"/>
</g>
<!-- 2072804059392 -->
<g id="node19" class="node">
<title>2072804059392</title>
<ellipse fill="white" stroke="black" cx="27" cy="-477" rx="27" ry="27"/>
<text xml:space="preserve" text-anchor="start" x="16.88" y="-461.95" font-family="Times New Roman,serif" font-size="34.00">●</text>
</g>
<!-- 2072804059392&#45;&gt;2072804049312 -->
<g id="edge14" class="edge">
<title>2072804059392&#45;&gt;2072804049312</title>
<path fill="none" stroke="black" d="M28.68,-504.23C31.26,-588.54 42.88,-843.61 90,-909 92.82,-912.92 96.37,-916.3 100.3,-919.21"/>
<polygon fill="black" stroke="black" points="98.36,-922.12 108.7,-924.39 102.03,-916.16 98.36,-922.12"/>
</g>
<!-- 2072804059392&#45;&gt;2072804053056 -->
<g id="edge16" class="edge">
<title>2072804059392&#45;&gt;2072804053056</title>
<path fill="none" stroke="black" d="M29.31,-504.33C33.48,-581.47 48.71,-798.89 90,-855 90.15,-855.2 90.3,-855.4 90.45,-855.6"/>
<polygon fill="black" stroke="black" points="87.75,-857.85 97.27,-862.5 92.73,-852.93 87.75,-857.85"/>
</g>
<!-- 2072804059392&#45;&gt;2072804053920 -->
<g id="edge9" class="edge">
<title>2072804059392&#45;&gt;2072804053920</title>
<path fill="none" stroke="black" d="M30.12,-504.12C36,-573.27 54.45,-754.01 90,-801 91.03,-802.36 92.14,-803.65 93.32,-804.88"/>
<polygon fill="black" stroke="black" points="90.94,-807.45 100.86,-811.18 95.43,-802.08 90.94,-807.45"/>
</g>
<!-- 2072804059392&#45;&gt;2072804055936 -->
<g id="edge12" class="edge">
<title>2072804059392&#45;&gt;2072804055936</title>
<path fill="none" stroke="black" d="M31.22,-503.77C38.95,-564.22 60.14,-708.99 90,-747 93.8,-751.83 98.69,-755.87 103.97,-759.22"/>
<polygon fill="black" stroke="black" points="101.97,-762.12 112.43,-763.81 105.31,-755.96 101.97,-762.12"/>
</g>
<!-- 2072804059392&#45;&gt;2072804056416 -->
<g id="edge2" class="edge">
<title>2072804059392&#45;&gt;2072804056416</title>
<path fill="none" stroke="black" d="M28.97,-504.09C31.92,-548.44 43.65,-637.17 90,-693 91.87,-695.25 93.98,-697.34 96.25,-699.26"/>
<polygon fill="black" stroke="black" points="94.22,-702.11 104.4,-705.04 98.26,-696.4 94.22,-702.11"/>
</g>
<!-- 2072804059392&#45;&gt;2072770210624 -->
<g id="edge11" class="edge">
<title>2072804059392&#45;&gt;2072770210624</title>
<path fill="none" stroke="black" d="M32.13,-503.96C38.73,-538.93 54.73,-600.05 90,-639 94.84,-644.34 100.98,-648.77 107.36,-652.38"/>
<polygon fill="black" stroke="black" points="105.58,-655.4 116.1,-656.73 108.7,-649.14 105.58,-655.4"/>
</g>
<!-- 2072804059392&#45;&gt;2072773900192 -->
<g id="edge10" class="edge">
<title>2072804059392&#45;&gt;2072773900192</title>
<path fill="none" stroke="black" d="M37.39,-502.05C47.37,-525.9 65.17,-561.54 90,-585 94.42,-589.18 99.61,-592.85 104.99,-596.03"/>
<polygon fill="black" stroke="black" points="102.96,-598.91 113.43,-600.52 106.24,-592.73 102.96,-598.91"/>
</g>
<!-- 2072804059392&#45;&gt;2072773898560 -->
<g id="edge7" class="edge">
<title>2072804059392&#45;&gt;2072773898560</title>
<path fill="none" stroke="black" d="M46.8,-495.6C58.6,-506.69 74.47,-520.59 90,-531 91.38,-531.93 92.81,-532.85 94.25,-533.75"/>
<polygon fill="black" stroke="black" points="92.38,-536.71 102.78,-538.74 95.92,-530.67 92.38,-536.71"/>
</g>
<!-- 2072804059392&#45;&gt;2072804062416 -->
<g id="edge8" class="edge">
<title>2072804059392&#45;&gt;2072804062416</title>
<path fill="none" stroke="black" d="M53.72,-482.99C68.45,-486.43 87.26,-490.81 103.89,-494.68"/>
<polygon fill="black" stroke="black" points="102.96,-498.06 113.5,-496.92 104.55,-491.24 102.96,-498.06"/>
</g>
<!-- 2072804059392&#45;&gt;2072804052048 -->
<g id="edge5" class="edge">
<title>2072804059392&#45;&gt;2072804052048</title>
<path fill="none" stroke="black" d="M53.72,-471.01C67.02,-467.91 83.65,-464.03 98.99,-460.46"/>
<polygon fill="black" stroke="black" points="99.45,-463.94 108.4,-458.27 97.86,-457.13 99.45,-463.94"/>
</g>
<!-- 2072804059392&#45;&gt;2072804050800 -->
<g id="edge17" class="edge">
<title>2072804059392&#45;&gt;2072804050800</title>
<path fill="none" stroke="black" d="M46.8,-458.4C58.6,-447.31 74.47,-433.41 90,-423 91.38,-422.07 92.81,-421.15 94.25,-420.25"/>
<polygon fill="black" stroke="black" points="95.92,-423.33 102.78,-415.26 92.38,-417.29 95.92,-423.33"/>
</g>
<!-- 2072804059392&#45;&gt;2072804053200 -->
<g id="edge15" class="edge">
<title>2072804059392&#45;&gt;2072804053200</title>
<path fill="none" stroke="black" d="M37.39,-451.95C47.37,-428.1 65.17,-392.46 90,-369 93.2,-365.97 96.81,-363.21 100.6,-360.71"/>
<polygon fill="black" stroke="black" points="102.12,-363.88 108.97,-355.79 98.58,-357.84 102.12,-363.88"/>
</g>
<!-- 2072804059392&#45;&gt;2072804054256 -->
<g id="edge18" class="edge">
<title>2072804059392&#45;&gt;2072804054256</title>
<path fill="none" stroke="black" d="M32.13,-450.04C38.73,-415.07 54.73,-353.95 90,-315 93.71,-310.9 98.19,-307.35 102.95,-304.28"/>
<polygon fill="black" stroke="black" points="104.65,-307.34 111.67,-299.41 101.23,-301.23 104.65,-307.34"/>
</g>
<!-- 2072804059392&#45;&gt;2072804055600 -->
<g id="edge4" class="edge">
<title>2072804059392&#45;&gt;2072804055600</title>
<path fill="none" stroke="black" d="M28.97,-449.91C31.92,-405.56 43.65,-316.83 90,-261 94.32,-255.79 99.9,-251.49 105.83,-247.97"/>
<polygon fill="black" stroke="black" points="107.32,-251.14 114.62,-243.46 104.12,-244.91 107.32,-251.14"/>
</g>
<!-- 2072804059392&#45;&gt;2072804057232 -->
<g id="edge13" class="edge">
<title>2072804059392&#45;&gt;2072804057232</title>
<path fill="none" stroke="black" d="M31.22,-450.23C38.95,-389.78 60.14,-245.01 90,-207 93.14,-203 97.03,-199.55 101.26,-196.58"/>
<polygon fill="black" stroke="black" points="102.84,-199.72 109.65,-191.6 99.26,-193.7 102.84,-199.72"/>
</g>
<!-- 2072804059392&#45;&gt;2072804057520 -->
<g id="edge3" class="edge">
<title>2072804059392&#45;&gt;2072804057520</title>
<path fill="none" stroke="black" d="M30.12,-449.88C36,-380.73 54.45,-199.99 90,-153 93.34,-148.59 97.59,-144.85 102.24,-141.69"/>
<polygon fill="black" stroke="black" points="103.93,-144.76 110.87,-136.75 100.45,-138.69 103.93,-144.76"/>
</g>
<!-- 2072804059392&#45;&gt;2072773899856 -->
<g id="edge6" class="edge">
<title>2072804059392&#45;&gt;2072773899856</title>
<path fill="none" stroke="black" d="M29.31,-449.67C33.48,-372.53 48.71,-155.11 90,-99 90.23,-98.68 90.47,-98.37 90.71,-98.06"/>
<polygon fill="black" stroke="black" points="93.11,-100.61 97.76,-91.09 88.19,-95.64 93.11,-100.61"/>
</g>
<!-- 2072804059392&#45;&gt;2072773895056 -->
<g id="edge1" class="edge">
<title>2072804059392&#45;&gt;2072773895056</title>
<path fill="none" stroke="black" d="M28.68,-449.77C31.26,-365.46 42.88,-110.39 90,-45 94.48,-38.78 100.8,-33.91 107.55,-30.13"/>
<polygon fill="black" stroke="black" points="108.7,-33.46 116.21,-25.99 105.68,-27.15 108.7,-33.46"/>
</g>
</g>
</svg>
