<?xml version="1.0" encoding="UTF-8" standalone="no"?>
<!DOCTYPE svg PUBLIC "-//W3C//DTD SVG 1.1//EN"
 "http://www.w3.org/Graphics/SVG/1.1/DTD/svg11.dtd">
<!-- Generated by graphviz version 14.1.0 (20251206.1807)
 -->
<!-- Title: imported_1767004941.8874016 Pages: 1 -->
<svg width="974pt" height="601pt"
 viewBox="0.00 0.00 974.00 601.00" xmlns="http://www.w3.org/2000/svg" xmlns:xlink="http://www.w3.org/1999/xlink">
<g id="graph0" class="graph" transform="scale(1 1) rotate(0) translate(4 597)">
<title>imported_1767004941.8874016</title>
<polygon fill="white" stroke="none" points="-4,4 -4,-597 969.75,-597 969.75,4 -4,4"/>
<!-- 2203790686880 -->
<g id="node1" class="node">
<title>2203790686880</title>
<polygon fill="white" stroke="black" points="201.12,-593 131.12,-593 131.12,-557 201.12,-557 201.12,-593"/>
<text xml:space="preserve" text-anchor="middle" x="166.12" y="-569.98" font-family="Times New Roman,serif" font-size="12.00">Leucocytes</text>
</g>
<!-- 2203781799360 -->
<g id="node20" class="node">
<title>2203781799360</title>
<ellipse fill="white" stroke="black" cx="934.75" cy="-321" rx="27" ry="27"/>
<ellipse fill="none" stroke="black" cx="934.75" cy="-321" rx="31" ry="31"/>
<text xml:space="preserve" text-anchor="start" x="925" y="-307.1" font-family="Times New Roman,serif" font-size="32.00">■</text>
</g>
<!-- 2203790686880&#45;&gt;2203781799360 -->
<g id="edge11" class="edge">
<title>2203790686880&#45;&gt;2203781799360</title>
<path fill="none" stroke="black" d="M201.46,-578.61C243.99,-582.75 318.69,-589 382.88,-589 382.88,-589 382.88,-589 714.62,-589 785.69,-589 817.57,-593.32 867.75,-543 915.85,-494.76 929.19,-413.14 932.71,-363.45"/>
<polygon fill="black" stroke="black" points="936.2,-363.85 933.3,-353.66 929.21,-363.44 936.2,-363.85"/>
</g>
<!-- 2203784784224 -->
<g id="node2" class="node">
<title>2203784784224</title>
<polygon fill="white" stroke="black" points="215,-460 117.25,-460 117.25,-424 215,-424 215,-460"/>
<text xml:space="preserve" text-anchor="middle" x="166.12" y="-436.98" font-family="Times New Roman,serif" font-size="12.00">ER Sepsis Triage</text>
</g>
<!-- 2203790682896 -->
<g id="node18" class="node">
<title>2203790682896</title>
<ellipse fill="white" stroke="black" cx="278" cy="-442" rx="27" ry="27"/>
</g>
<!-- 2203784784224&#45;&gt;2203790682896 -->
<g id="edge7" class="edge">
<title>2203784784224&#45;&gt;2203790682896</title>
<path fill="none" stroke="black" d="M215.32,-442C223.36,-442 231.6,-442 239.32,-442"/>
<polygon fill="black" stroke="black" points="239.06,-445.5 249.06,-442 239.06,-438.5 239.06,-445.5"/>
</g>
<!-- 2203784784224&#45;&gt;2203781799360 -->
<g id="edge12" class="edge">
<title>2203784784224&#45;&gt;2203781799360</title>
<path fill="none" stroke="black" d="M206.48,-460.41C223.69,-468.14 241.98,-475.85 251,-478 401.31,-513.89 443.47,-500 598,-500 598,-500 598,-500 714.62,-500 787.56,-500 812.82,-488.97 867.75,-441 892.2,-419.65 909.34,-386.95 920.01,-361.08"/>
<polygon fill="black" stroke="black" points="923.23,-362.45 923.64,-351.87 916.72,-359.89 923.23,-362.45"/>
</g>
<!-- 2203784774336 -->
<g id="node3" class="node">
<title>2203784774336</title>
<polygon fill="white" stroke="black" points="645.25,-326 552.75,-326 552.75,-290 645.25,-290 645.25,-326"/>
<text xml:space="preserve" text-anchor="middle" x="599" y="-302.98" font-family="Times New Roman,serif" font-size="12.00">ER Registration</text>
</g>
<!-- 2203784775008 -->
<g id="node4" class="node">
<title>2203784775008</title>
<polygon fill="white" stroke="black" points="305,-561 251,-561 251,-525 305,-525 305,-561"/>
<text xml:space="preserve" text-anchor="middle" x="278" y="-537.98" font-family="Times New Roman,serif" font-size="12.00">CRP</text>
</g>
<!-- 2203784775008&#45;&gt;2203781799360 -->
<g id="edge9" class="edge">
<title>2203784775008&#45;&gt;2203781799360</title>
<path fill="none" stroke="black" d="M305.49,-542.17C345.27,-541 422.83,-539 488.75,-539 488.75,-539 488.75,-539 714.62,-539 783.58,-539 815.08,-558.51 867.75,-514 912.07,-476.55 926.69,-407.97 931.48,-363.46"/>
<polygon fill="black" stroke="black" points="934.95,-363.93 932.4,-353.64 927.98,-363.27 934.95,-363.93"/>
</g>
<!-- 2203784785712 -->
<g id="node5" class="node">
<title>2203784785712</title>
<polygon fill="white" stroke="black" points="415.88,-405 351.88,-405 351.88,-369 415.88,-369 415.88,-405"/>
<text xml:space="preserve" text-anchor="middle" x="383.88" y="-381.98" font-family="Times New Roman,serif" font-size="12.00">IV Liquid</text>
</g>
<!-- 2203781806896 -->
<g id="node19" class="node">
<title>2203781806896</title>
<ellipse fill="white" stroke="black" cx="489.75" cy="-407" rx="27" ry="27"/>
</g>
<!-- 2203784785712&#45;&gt;2203781806896 -->
<g id="edge8" class="edge">
<title>2203784785712&#45;&gt;2203781806896</title>
<path fill="none" stroke="black" d="M416.32,-393.05C427.52,-395.21 440.23,-397.66 451.84,-399.89"/>
<polygon fill="black" stroke="black" points="451.02,-403.3 461.5,-401.75 452.35,-396.43 451.02,-403.3"/>
</g>
<!-- 2203784785712&#45;&gt;2203781799360 -->
<g id="edge13" class="edge">
<title>2203784785712&#45;&gt;2203781799360</title>
<path fill="none" stroke="black" d="M395.86,-368.65C409.07,-348.26 433.22,-315.98 462.75,-299 498.11,-278.66 512.16,-285.02 552.75,-281 593.66,-276.95 604.35,-276.86 645.25,-281 706.97,-287.25 720.57,-300.32 782,-309 819.13,-314.25 861.71,-317.37 892.3,-319.1"/>
<polygon fill="black" stroke="black" points="891.71,-322.57 901.89,-319.62 892.09,-315.58 891.71,-322.57"/>
</g>
<!-- 2203784778800 -->
<g id="node6" class="node">
<title>2203784778800</title>
<polygon fill="white" stroke="black" points="746,-36 681.25,-36 681.25,0 746,0 746,-36"/>
<text xml:space="preserve" text-anchor="middle" x="713.62" y="-12.97" font-family="Times New Roman,serif" font-size="12.00">ER Triage</text>
</g>
<!-- 2203784778800&#45;&gt;2203781799360 -->
<g id="edge10" class="edge">
<title>2203784778800&#45;&gt;2203781799360</title>
<path fill="none" stroke="black" d="M746.39,-15.45C780.92,-14.53 835.45,-18.74 867.75,-50 900.23,-81.43 920.44,-211.16 929,-279.08"/>
<polygon fill="black" stroke="black" points="925.49,-279.22 930.18,-288.72 932.44,-278.37 925.49,-279.22"/>
</g>
<!-- 2203784776352 -->
<g id="node7" class="node">
<title>2203784776352</title>
<polygon fill="white" stroke="black" points="630.62,-434 567.38,-434 567.38,-398 630.62,-398 630.62,-434"/>
<text xml:space="preserve" text-anchor="middle" x="599" y="-410.98" font-family="Times New Roman,serif" font-size="12.00">Release B</text>
</g>
<!-- 2203784776352&#45;&gt;2203781799360 -->
<g id="edge18" class="edge">
<title>2203784776352&#45;&gt;2203781799360</title>
<path fill="none" stroke="black" d="M630.74,-416.24C682.06,-415.55 787.48,-409.47 867.75,-374 880.77,-368.25 893.39,-359.26 904.04,-350.31"/>
<polygon fill="black" stroke="black" points="906.17,-353.1 911.36,-343.87 901.54,-347.85 906.17,-353.1"/>
</g>
<!-- 2203781795376 -->
<g id="node8" class="node">
<title>2203781795376</title>
<polygon fill="white" stroke="black" points="426.75,-460 341,-460 341,-424 426.75,-424 426.75,-460"/>
<text xml:space="preserve" text-anchor="middle" x="383.88" y="-436.98" font-family="Times New Roman,serif" font-size="12.00">IV Antibiotics</text>
</g>
<!-- 2203781795376&#45;&gt;2203781799360 -->
<g id="edge17" class="edge">
<title>2203781795376&#45;&gt;2203781799360</title>
<path fill="none" stroke="black" d="M427.22,-448.33C470.15,-454.19 538.54,-462 598,-462 598,-462 598,-462 714.62,-462 787.88,-462 808.56,-444.16 867.75,-401 884.38,-388.88 899.31,-371.63 910.75,-356.26"/>
<polygon fill="black" stroke="black" points="913.53,-358.38 916.52,-348.22 907.85,-354.3 913.53,-358.38"/>
</g>
<!-- 2203781803728 -->
<g id="node22" class="node">
<title>2203781803728</title>
<ellipse fill="white" stroke="black" cx="489.75" cy="-335" rx="27" ry="27"/>
</g>
<!-- 2203781795376&#45;&gt;2203781803728 -->
<g id="edge20" class="edge">
<title>2203781795376&#45;&gt;2203781803728</title>
<path fill="none" stroke="black" d="M415.04,-423.53C419.13,-420.54 423.16,-417.33 426.75,-414 435.45,-405.94 452.41,-384.14 466.39,-365.48"/>
<polygon fill="black" stroke="black" points="469.1,-367.7 472.27,-357.59 463.49,-363.52 469.1,-367.7"/>
</g>
<!-- 2203784788592 -->
<g id="node9" class="node">
<title>2203784788592</title>
<polygon fill="white" stroke="black" points="631,-380 567,-380 567,-344 631,-344 631,-380"/>
<text xml:space="preserve" text-anchor="middle" x="599" y="-356.98" font-family="Times New Roman,serif" font-size="12.00">Release A</text>
</g>
<!-- 2203784788592&#45;&gt;2203781799360 -->
<g id="edge19" class="edge">
<title>2203784788592&#45;&gt;2203781799360</title>
<path fill="none" stroke="black" d="M631.11,-365.34C681.65,-369.83 784.32,-375.01 867.75,-354 877.86,-351.45 888.21,-347.19 897.63,-342.56"/>
<polygon fill="black" stroke="black" points="899.21,-345.68 906.46,-337.95 895.98,-339.48 899.21,-345.68"/>
</g>
<!-- 2203781796192 -->
<g id="node21" class="node">
<title>2203781796192</title>
<ellipse fill="white" stroke="black" cx="713.62" cy="-216" rx="27" ry="27"/>
</g>
<!-- 2203784788592&#45;&gt;2203781796192 -->
<g id="edge21" class="edge">
<title>2203784788592&#45;&gt;2203781796192</title>
<path fill="none" stroke="black" d="M631.27,-346.28C636.28,-342.97 641.16,-339.19 645.25,-335 668.77,-310.93 686.9,-277.03 698.4,-251.57"/>
<polygon fill="black" stroke="black" points="701.52,-253.18 702.31,-242.61 695.1,-250.38 701.52,-253.18"/>
</g>
<!-- 2203784789024 -->
<g id="node10" class="node">
<title>2203784789024</title>
<polygon fill="white" stroke="black" points="858.75,-274 791,-274 791,-238 858.75,-238 858.75,-274"/>
<text xml:space="preserve" text-anchor="middle" x="824.88" y="-250.97" font-family="Times New Roman,serif" font-size="12.00">Return ER</text>
</g>
<!-- 2203784789024&#45;&gt;2203781799360 -->
<g id="edge26" class="edge">
<title>2203784789024&#45;&gt;2203781799360</title>
<path fill="none" stroke="black" d="M856.5,-274.45C869.53,-282.31 884.81,-291.51 898.33,-299.66"/>
<polygon fill="black" stroke="black" points="896.13,-302.42 906.5,-304.58 899.74,-296.42 896.13,-302.42"/>
</g>
<!-- 2203781800992 -->
<g id="node11" class="node">
<title>2203781800992</title>
<polygon fill="white" stroke="black" points="867.75,-220 782,-220 782,-184 867.75,-184 867.75,-220"/>
<text xml:space="preserve" text-anchor="middle" x="824.88" y="-196.97" font-family="Times New Roman,serif" font-size="12.00">Admission NC</text>
</g>
<!-- 2203781800992&#45;&gt;2203781799360 -->
<g id="edge29" class="edge">
<title>2203781800992&#45;&gt;2203781799360</title>
<path fill="none" stroke="black" d="M857.06,-220.2C860.83,-222.94 864.49,-225.9 867.75,-229 884.93,-245.35 900.58,-266.72 912.32,-284.76"/>
<polygon fill="black" stroke="black" points="909.3,-286.53 917.62,-293.1 915.21,-282.78 909.3,-286.53"/>
</g>
<!-- 2203781795040 -->
<g id="node12" class="node">
<title>2203781795040</title>
<polygon fill="white" stroke="black" points="859.12,-166 790.62,-166 790.62,-130 859.12,-130 859.12,-166"/>
<text xml:space="preserve" text-anchor="middle" x="824.88" y="-142.97" font-family="Times New Roman,serif" font-size="12.00">LacticAcid</text>
</g>
<!-- 2203781795040&#45;&gt;2203781799360 -->
<g id="edge27" class="edge">
<title>2203781795040&#45;&gt;2203781799360</title>
<path fill="none" stroke="black" d="M858.52,-166.28C861.87,-168.94 865.04,-171.85 867.75,-175 894.31,-205.82 912.06,-249.08 922.41,-280.5"/>
<polygon fill="black" stroke="black" points="918.94,-281.16 925.3,-289.64 925.62,-279.05 918.94,-281.16"/>
</g>
<!-- 2203781801952 -->
<g id="node13" class="node">
<title>2203781801952</title>
<polygon fill="white" stroke="black" points="630.62,-234 567.38,-234 567.38,-198 630.62,-198 630.62,-234"/>
<text xml:space="preserve" text-anchor="middle" x="599" y="-210.97" font-family="Times New Roman,serif" font-size="12.00">Release C</text>
</g>
<!-- 2203781801952&#45;&gt;2203781799360 -->
<g id="edge30" class="edge">
<title>2203781801952&#45;&gt;2203781799360</title>
<path fill="none" stroke="black" d="M630.89,-230.72C645.92,-237.62 664.34,-245.68 681.25,-252 754.11,-279.24 842.42,-300.9 892.95,-312.26"/>
<polygon fill="black" stroke="black" points="892.04,-315.65 902.56,-314.4 893.56,-308.82 892.04,-315.65"/>
</g>
<!-- 2203781801952&#45;&gt;2203781796192 -->
<g id="edge34" class="edge">
<title>2203781801952&#45;&gt;2203781796192</title>
<path fill="none" stroke="black" d="M631.07,-216C644.6,-216 660.59,-216 674.8,-216"/>
<polygon fill="black" stroke="black" points="674.72,-219.5 684.72,-216 674.72,-212.5 674.72,-219.5"/>
</g>
<!-- 2203784787296 -->
<g id="node14" class="node">
<title>2203784787296</title>
<polygon fill="white" stroke="black" points="630.25,-175 567.75,-175 567.75,-139 630.25,-139 630.25,-175"/>
<text xml:space="preserve" text-anchor="middle" x="599" y="-151.97" font-family="Times New Roman,serif" font-size="12.00">Release E</text>
</g>
<!-- 2203784787296&#45;&gt;2203781799360 -->
<g id="edge31" class="edge">
<title>2203784787296&#45;&gt;2203781799360</title>
<path fill="none" stroke="black" d="M630.66,-140.22C684.21,-113.43 795.91,-69.06 867.75,-121 917.19,-156.75 930.22,-230.86 933.3,-278.14"/>
<polygon fill="black" stroke="black" points="929.8,-278.23 933.81,-288.03 936.79,-277.87 929.8,-278.23"/>
</g>
<!-- 2203784787296&#45;&gt;2203781796192 -->
<g id="edge32" class="edge">
<title>2203784787296&#45;&gt;2203781796192</title>
<path fill="none" stroke="black" d="M630.48,-172.97C645.51,-180.84 663.68,-190.36 679.1,-198.44"/>
<polygon fill="black" stroke="black" points="677.45,-201.52 687.93,-203.06 680.7,-195.32 677.45,-201.52"/>
</g>
<!-- 2203784778368 -->
<g id="node15" class="node">
<title>2203784778368</title>
<polygon fill="white" stroke="black" points="81.25,-495 0,-495 0,-459 81.25,-459 81.25,-495"/>
<text xml:space="preserve" text-anchor="middle" x="40.62" y="-471.98" font-family="Times New Roman,serif" font-size="12.00">Admission IC</text>
</g>
<!-- 2203784784560 -->
<g id="node16" class="node">
<title>2203784784560</title>
<polygon fill="white" stroke="black" points="631,-110 567,-110 567,-74 631,-74 631,-110"/>
<text xml:space="preserve" text-anchor="middle" x="599" y="-86.97" font-family="Times New Roman,serif" font-size="12.00">Release D</text>
</g>
<!-- 2203784784560&#45;&gt;2203781799360 -->
<g id="edge28" class="edge">
<title>2203784784560&#45;&gt;2203781799360</title>
<path fill="none" stroke="black" d="M631.44,-81.16C685.7,-64.63 797.8,-40.22 867.75,-93 897.43,-115.4 918.07,-219.52 927.66,-279.02"/>
<polygon fill="black" stroke="black" points="924.18,-279.45 929.19,-288.79 931.1,-278.37 924.18,-279.45"/>
</g>
<!-- 2203784784560&#45;&gt;2203781796192 -->
<g id="edge33" class="edge">
<title>2203784784560&#45;&gt;2203781796192</title>
<path fill="none" stroke="black" d="M623.84,-110.45C631,-116.4 638.69,-123.21 645.25,-130 661.82,-147.14 678.37,-168.19 690.91,-185.17"/>
<polygon fill="black" stroke="black" points="687.84,-186.89 696.56,-192.91 693.49,-182.77 687.84,-186.89"/>
</g>
<!-- 2203784568928 -->
<g id="node17" class="node">
<title>2203784568928</title>
<ellipse fill="white" stroke="black" cx="40.62" cy="-414" rx="27" ry="27"/>
<text xml:space="preserve" text-anchor="start" x="30.5" y="-398.95" font-family="Times New Roman,serif" font-size="34.00">●</text>
</g>
<!-- 2203784568928&#45;&gt;2203790686880 -->
<g id="edge4" class="edge">
<title>2203784568928&#45;&gt;2203790686880</title>
<path fill="none" stroke="black" d="M62.55,-430.16C69.1,-435.93 75.99,-442.79 81.25,-450 104,-481.17 94.94,-497.52 117.25,-529 122.2,-535.98 128.3,-542.79 134.48,-548.92"/>
<polygon fill="black" stroke="black" points="132.07,-551.46 141.74,-555.8 136.88,-546.38 132.07,-551.46"/>
</g>
<!-- 2203784568928&#45;&gt;2203784784224 -->
<g id="edge2" class="edge">
<title>2203784568928&#45;&gt;2203784784224</title>
<path fill="none" stroke="black" d="M67.21,-419.8C78.53,-422.37 92.35,-425.5 106,-428.59"/>
<polygon fill="black" stroke="black" points="104.85,-431.92 115.38,-430.72 106.4,-425.1 104.85,-431.92"/>
</g>
<!-- 2203784568928&#45;&gt;2203784774336 -->
<g id="edge5" class="edge">
<title>2203784568928&#45;&gt;2203784774336</title>
<path fill="none" stroke="black" d="M55.17,-391.08C86.96,-340.55 171.71,-224 277,-224 277,-224 277,-224 384.88,-224 450.46,-224 519.98,-258.85 561.16,-283.66"/>
<polygon fill="black" stroke="black" points="559.11,-286.51 569.46,-288.77 562.78,-280.55 559.11,-286.51"/>
</g>
<!-- 2203784568928&#45;&gt;2203784775008 -->
<g id="edge6" class="edge">
<title>2203784568928&#45;&gt;2203784775008</title>
<path fill="none" stroke="black" d="M62.38,-430.8C77.17,-442.33 97.79,-457.57 117.25,-469 157.74,-492.79 207.16,-514.68 240.22,-528.38"/>
<polygon fill="black" stroke="black" points="238.78,-531.57 249.36,-532.13 241.44,-525.1 238.78,-531.57"/>
</g>
<!-- 2203784568928&#45;&gt;2203784785712 -->
<g id="edge3" class="edge">
<title>2203784568928&#45;&gt;2203784785712</title>
<path fill="none" stroke="black" d="M67.84,-411.93C126.45,-407.29 268.6,-396.04 340.19,-390.38"/>
<polygon fill="black" stroke="black" points="340.26,-393.88 349.95,-389.61 339.71,-386.9 340.26,-393.88"/>
</g>
<!-- 2203784568928&#45;&gt;2203784778800 -->
<g id="edge1" class="edge">
<title>2203784568928&#45;&gt;2203784778800</title>
<path fill="none" stroke="black" d="M44.76,-386.89C56.64,-298.44 107.17,-24 277,-24 277,-24 277,-24 490.75,-24 553.01,-24 625.05,-21.61 669.74,-19.85"/>
<polygon fill="black" stroke="black" points="669.67,-23.35 679.52,-19.45 669.39,-16.36 669.67,-23.35"/>
</g>
<!-- 2203790682896&#45;&gt;2203781795376 -->
<g id="edge16" class="edge">
<title>2203790682896&#45;&gt;2203781795376</title>
<path fill="none" stroke="black" d="M305.48,-442C312.84,-442 321.1,-442 329.41,-442"/>
<polygon fill="black" stroke="black" points="329.19,-445.5 339.19,-442 329.19,-438.5 329.19,-445.5"/>
</g>
<!-- 2203781806896&#45;&gt;2203784776352 -->
<g id="edge15" class="edge">
<title>2203781806896&#45;&gt;2203784776352</title>
<path fill="none" stroke="black" d="M516.99,-409.2C528.69,-410.18 542.77,-411.37 555.89,-412.47"/>
<polygon fill="black" stroke="black" points="555.32,-415.93 565.58,-413.28 555.9,-408.96 555.32,-415.93"/>
</g>
<!-- 2203781806896&#45;&gt;2203784788592 -->
<g id="edge14" class="edge">
<title>2203781806896&#45;&gt;2203784788592</title>
<path fill="none" stroke="black" d="M515.09,-396.79C527.3,-391.66 542.44,-385.31 556.42,-379.44"/>
<polygon fill="black" stroke="black" points="557.56,-382.76 565.43,-375.67 554.85,-376.31 557.56,-382.76"/>
</g>
<!-- 2203781796192&#45;&gt;2203784789024 -->
<g id="edge25" class="edge">
<title>2203781796192&#45;&gt;2203784789024</title>
<path fill="none" stroke="black" d="M739.42,-225.08C751.56,-229.52 766.53,-235.01 780.49,-240.11"/>
<polygon fill="black" stroke="black" points="778.88,-243.25 789.47,-243.4 781.29,-236.68 778.88,-243.25"/>
</g>
<!-- 2203781803728&#45;&gt;2203784774336 -->
<g id="edge22" class="edge">
<title>2203781803728&#45;&gt;2203784774336</title>
<path fill="none" stroke="black" d="M516.44,-328.53C524.02,-326.62 532.64,-324.46 541.36,-322.26"/>
<polygon fill="black" stroke="black" points="542.08,-325.69 550.93,-319.85 540.37,-318.9 542.08,-325.69"/>
</g>
<!-- 2203781803728&#45;&gt;2203784776352 -->
<g id="edge23" class="edge">
<title>2203781803728&#45;&gt;2203784776352</title>
<path fill="none" stroke="black" d="M510.1,-353.45C521.97,-364.35 537.73,-378.11 552.75,-389 554.47,-390.25 556.25,-391.49 558.07,-392.72"/>
<polygon fill="black" stroke="black" points="555.77,-395.4 566.07,-397.9 559.57,-389.53 555.77,-395.4"/>
</g>
<!-- 2203781803728&#45;&gt;2203784788592 -->
<g id="edge24" class="edge">
<title>2203781803728&#45;&gt;2203784788592</title>
<path fill="none" stroke="black" d="M516.44,-341.47C528.25,-344.44 542.57,-348.05 555.9,-351.4"/>
<polygon fill="black" stroke="black" points="554.76,-354.72 565.32,-353.77 556.47,-347.94 554.76,-354.72"/>
</g>
</g>
</svg>
