<?xml version="1.0" encoding="UTF-8" standalone="no"?>
<!DOCTYPE svg PUBLIC "-//W3C//DTD SVG 1.1//EN"
 "http://www.w3.org/Graphics/SVG/1.1/DTD/svg11.dtd">
<!-- Generated by graphviz version 14.1.0 (20251206.1807)
 -->
<!-- Title: imported_1767004896.1412277 Pages: 1 -->
<svg width="1119pt" height="236pt"
 viewBox="0.00 0.00 1119.00 236.00" xmlns="http://www.w3.org/2000/svg" xmlns:xlink="http://www.w3.org/1999/xlink">
<g id="graph0" class="graph" transform="scale(1 1) rotate(0) translate(4 232)">
<title>imported_1767004896.1412277</title>
<polygon fill="white" stroke="none" points="-4,4 -4,-232 1115,-232 1115,4 -4,4"/>
<!-- 2203781800992 -->
<g id="node1" class="node">
<title>2203781800992</title>
<polygon fill="white" stroke="black" points="199,-45 90,-45 90,-9 199,-9 199,-45"/>
<text xml:space="preserve" text-anchor="middle" x="144.5" y="-21.98" font-family="Times New Roman,serif" font-size="12.00">Submit Application</text>
</g>
<!-- 2203781800224 -->
<g id="node8" class="node">
<title>2203781800224</title>
<ellipse fill="white" stroke="black" cx="262" cy="-95" rx="27" ry="27"/>
</g>
<!-- 2203781800992&#45;&gt;2203781800224 -->
<g id="edge2" class="edge">
<title>2203781800992&#45;&gt;2203781800224</title>
<path fill="none" stroke="black" d="M176.76,-45.4C192.8,-54.85 212.33,-66.34 228.54,-75.89"/>
<polygon fill="black" stroke="black" points="226.45,-78.72 236.84,-80.78 230,-72.69 226.45,-78.72"/>
</g>
<!-- 2203781798880 -->
<g id="node9" class="node">
<title>2203781798880</title>
<ellipse fill="white" stroke="black" cx="871.25" cy="-93" rx="27" ry="27"/>
</g>
<!-- 2203781800992&#45;&gt;2203781798880 -->
<g id="edge3" class="edge">
<title>2203781800992&#45;&gt;2203781798880</title>
<path fill="none" stroke="black" d="M199.47,-16.56C243.45,-8.96 307.25,0 363.5,0 363.5,0 363.5,0 681.25,0 743.35,0 806.23,-40.93 841.53,-68.48"/>
<polygon fill="black" stroke="black" points="839.14,-71.05 849.13,-74.56 843.51,-65.58 839.14,-71.05"/>
</g>
<!-- 2203781800704 -->
<g id="node2" class="node">
<title>2203781800704</title>
<polygon fill="white" stroke="black" points="404,-146 325,-146 325,-110 404,-110 404,-146"/>
<text xml:space="preserve" text-anchor="middle" x="364.5" y="-122.97" font-family="Times New Roman,serif" font-size="12.00">Credit Check</text>
</g>
<!-- 2203781793312 -->
<g id="node11" class="node">
<title>2203781793312</title>
<ellipse fill="white" stroke="black" cx="573.62" cy="-161" rx="27" ry="27"/>
</g>
<!-- 2203781800704&#45;&gt;2203781793312 -->
<g id="edge7" class="edge">
<title>2203781800704&#45;&gt;2203781793312</title>
<path fill="none" stroke="black" d="M404.46,-134.21C442,-140.19 498.39,-149.17 535.35,-155.06"/>
<polygon fill="black" stroke="black" points="534.7,-158.5 545.13,-156.62 535.8,-151.59 534.7,-158.5"/>
</g>
<!-- 2203781802288 -->
<g id="node13" class="node">
<title>2203781802288</title>
<ellipse fill="white" stroke="black" cx="467" cy="-100" rx="27" ry="27"/>
</g>
<!-- 2203781800704&#45;&gt;2203781802288 -->
<g id="edge8" class="edge">
<title>2203781800704&#45;&gt;2203781802288</title>
<path fill="none" stroke="black" d="M404.36,-117.17C412.71,-114.85 421.51,-112.4 429.76,-110.1"/>
<polygon fill="black" stroke="black" points="430.42,-113.54 439.12,-107.49 428.55,-106.8 430.42,-113.54"/>
</g>
<!-- 2203781792592 -->
<g id="node3" class="node">
<title>2203781792592</title>
<polygon fill="white" stroke="black" points="1021,-111 938.25,-111 938.25,-75 1021,-75 1021,-111"/>
<text xml:space="preserve" text-anchor="middle" x="979.62" y="-87.97" font-family="Times New Roman,serif" font-size="12.00">Initial Review</text>
</g>
<!-- 2203781800032 -->
<g id="node10" class="node">
<title>2203781800032</title>
<ellipse fill="white" stroke="black" cx="1084" cy="-65" rx="27" ry="27"/>
</g>
<!-- 2203781792592&#45;&gt;2203781800032 -->
<g id="edge9" class="edge">
<title>2203781792592&#45;&gt;2203781800032</title>
<path fill="none" stroke="black" d="M1021.38,-81.85C1029.72,-79.57 1038.44,-77.19 1046.61,-74.95"/>
<polygon fill="black" stroke="black" points="1047.52,-78.33 1056.24,-72.32 1045.68,-71.58 1047.52,-78.33"/>
</g>
<!-- 2203781795376 -->
<g id="node12" class="node">
<title>2203781795376</title>
<ellipse fill="white" stroke="black" cx="1084" cy="-182" rx="27" ry="27"/>
</g>
<!-- 2203781792592&#45;&gt;2203781795376 -->
<g id="edge6" class="edge">
<title>2203781792592&#45;&gt;2203781795376</title>
<path fill="none" stroke="black" d="M1001.84,-111.44C1017.1,-124.71 1037.85,-142.75 1054.55,-157.26"/>
<polygon fill="black" stroke="black" points="1051.87,-159.58 1061.72,-163.5 1056.47,-154.3 1051.87,-159.58"/>
</g>
<!-- 2203781792640 -->
<g id="node4" class="node">
<title>2203781792640</title>
<polygon fill="white" stroke="black" points="804.25,-179 743.25,-179 743.25,-143 804.25,-143 804.25,-179"/>
<text xml:space="preserve" text-anchor="middle" x="773.75" y="-155.97" font-family="Times New Roman,serif" font-size="12.00">Rejection</text>
</g>
<!-- 2203781807808 -->
<g id="node15" class="node">
<title>2203781807808</title>
<ellipse fill="white" stroke="black" cx="871.25" cy="-169" rx="27" ry="27"/>
<ellipse fill="none" stroke="black" cx="871.25" cy="-169" rx="31" ry="31"/>
<text xml:space="preserve" text-anchor="start" x="861.5" y="-155.1" font-family="Times New Roman,serif" font-size="32.00">■</text>
</g>
<!-- 2203781792640&#45;&gt;2203781807808 -->
<g id="edge15" class="edge">
<title>2203781792640&#45;&gt;2203781807808</title>
<path fill="none" stroke="black" d="M804.7,-163.51C812.36,-164.15 820.74,-164.85 828.86,-165.53"/>
<polygon fill="black" stroke="black" points="828.31,-169 838.56,-166.35 828.89,-162.02 828.31,-169"/>
</g>
<!-- 2203781798832 -->
<g id="node5" class="node">
<title>2203781798832</title>
<polygon fill="white" stroke="black" points="617.25,-116 530,-116 530,-80 617.25,-80 617.25,-116"/>
<text xml:space="preserve" text-anchor="middle" x="573.62" y="-92.97" font-family="Times New Roman,serif" font-size="12.00">Expert Review</text>
</g>
<!-- 2203781794128 -->
<g id="node14" class="node">
<title>2203781794128</title>
<ellipse fill="white" stroke="black" cx="680.25" cy="-102" rx="27" ry="27"/>
</g>
<!-- 2203781798832&#45;&gt;2203781794128 -->
<g id="edge14" class="edge">
<title>2203781798832&#45;&gt;2203781794128</title>
<path fill="none" stroke="black" d="M617.48,-99.64C625.43,-99.94 633.67,-100.26 641.45,-100.55"/>
<polygon fill="black" stroke="black" points="641.17,-104.05 651.29,-100.93 641.43,-97.05 641.17,-104.05"/>
</g>
<!-- 2203781800416 -->
<g id="node6" class="node">
<title>2203781800416</title>
<polygon fill="white" stroke="black" points="803.5,-120 744,-120 744,-84 803.5,-84 803.5,-120"/>
<text xml:space="preserve" text-anchor="middle" x="773.75" y="-96.97" font-family="Times New Roman,serif" font-size="12.00">Approval</text>
</g>
<!-- 2203781800416&#45;&gt;2203781798880 -->
<g id="edge18" class="edge">
<title>2203781800416&#45;&gt;2203781798880</title>
<path fill="none" stroke="black" d="M803.92,-99.25C813.05,-98.39 823.25,-97.43 832.86,-96.52"/>
<polygon fill="black" stroke="black" points="833.04,-100.02 842.67,-95.6 832.38,-93.05 833.04,-100.02"/>
</g>
<!-- 2203781800416&#45;&gt;2203781807808 -->
<g id="edge19" class="edge">
<title>2203781800416&#45;&gt;2203781807808</title>
<path fill="none" stroke="black" d="M801.1,-120.49C811.88,-128.05 824.5,-136.9 835.99,-144.96"/>
<polygon fill="black" stroke="black" points="833.87,-147.75 844.06,-150.63 837.89,-142.02 833.87,-147.75"/>
</g>
<!-- 2203781795040 -->
<g id="node7" class="node">
<title>2203781795040</title>
<ellipse fill="white" stroke="black" cx="27" cy="-27" rx="27" ry="27"/>
<text xml:space="preserve" text-anchor="start" x="16.88" y="-11.95" font-family="Times New Roman,serif" font-size="34.00">●</text>
</g>
<!-- 2203781795040&#45;&gt;2203781800992 -->
<g id="edge1" class="edge">
<title>2203781795040&#45;&gt;2203781800992</title>
<path fill="none" stroke="black" d="M54.5,-27C61.73,-27 69.9,-27 78.29,-27"/>
<polygon fill="black" stroke="black" points="78.27,-30.5 88.27,-27 78.27,-23.5 78.27,-30.5"/>
</g>
<!-- 2203781800224&#45;&gt;2203781800704 -->
<g id="edge5" class="edge">
<title>2203781800224&#45;&gt;2203781800704</title>
<path fill="none" stroke="black" d="M288.1,-103.24C295.95,-105.82 304.91,-108.76 313.84,-111.7"/>
<polygon fill="black" stroke="black" points="312.62,-114.98 323.21,-114.77 314.8,-108.33 312.62,-114.98"/>
</g>
<!-- 2203781798880&#45;&gt;2203781792592 -->
<g id="edge4" class="edge">
<title>2203781798880&#45;&gt;2203781792592</title>
<path fill="none" stroke="black" d="M898.54,-93C907.12,-93 916.97,-93 926.76,-93"/>
<polygon fill="black" stroke="black" points="926.62,-96.5 936.62,-93 926.62,-89.5 926.62,-96.5"/>
</g>
<!-- 2203781800032&#45;&gt;2203781798832 -->
<g id="edge12" class="edge">
<title>2203781800032&#45;&gt;2203781798832</title>
<path fill="none" stroke="black" d="M1057.18,-59.54C1017.58,-51.65 939.39,-38 872.25,-38 772.75,-38 772.75,-38 772.75,-38 719.58,-38 661.7,-58.04 622.31,-74.95"/>
<polygon fill="black" stroke="black" points="621.09,-71.67 613.34,-78.9 623.91,-78.07 621.09,-71.67"/>
</g>
<!-- 2203781793312&#45;&gt;2203781792640 -->
<g id="edge11" class="edge">
<title>2203781793312&#45;&gt;2203781792640</title>
<path fill="none" stroke="black" d="M600.93,-161C634.3,-161 692.2,-161 731.47,-161"/>
<polygon fill="black" stroke="black" points="731.25,-164.5 741.25,-161 731.25,-157.5 731.25,-164.5"/>
</g>
<!-- 2203781795376&#45;&gt;2203781800704 -->
<g id="edge10" class="edge">
<title>2203781795376&#45;&gt;2203781800704</title>
<path fill="none" stroke="black" d="M1058.08,-191.09C1019.03,-204.49 940.78,-228 872.25,-228 572.62,-228 572.62,-228 572.62,-228 503.87,-228 433.89,-182.76 395.45,-153.13"/>
<polygon fill="black" stroke="black" points="398.04,-150.72 388.02,-147.28 393.71,-156.22 398.04,-150.72"/>
</g>
<!-- 2203781802288&#45;&gt;2203781798832 -->
<g id="edge13" class="edge">
<title>2203781802288&#45;&gt;2203781798832</title>
<path fill="none" stroke="black" d="M494.4,-99.5C501.73,-99.36 509.96,-99.2 518.26,-99.04"/>
<polygon fill="black" stroke="black" points="518.1,-102.54 528.03,-98.85 517.96,-95.54 518.1,-102.54"/>
</g>
<!-- 2203781794128&#45;&gt;2203781792640 -->
<g id="edge16" class="edge">
<title>2203781794128&#45;&gt;2203781792640</title>
<path fill="none" stroke="black" d="M703.4,-116.28C712.79,-122.34 724.02,-129.58 734.67,-136.45"/>
<polygon fill="black" stroke="black" points="732.65,-139.31 742.95,-141.78 736.44,-133.42 732.65,-139.31"/>
</g>
<!-- 2203781794128&#45;&gt;2203781800416 -->
<g id="edge17" class="edge">
<title>2203781794128&#45;&gt;2203781800416</title>
<path fill="none" stroke="black" d="M707.72,-102C715.39,-102 723.96,-102 732.28,-102"/>
<polygon fill="black" stroke="black" points="732.27,-105.5 742.27,-102 732.27,-98.5 732.27,-105.5"/>
</g>
</g>
</svg>
