<?xml version="1.0" encoding="UTF-8" standalone="no"?>
<!DOCTYPE svg PUBLIC "-//W3C//DTD SVG 1.1//EN"
 "http://www.w3.org/Graphics/SVG/1.1/DTD/svg11.dtd">
<!-- Generated by graphviz version 14.1.0 (20251206.1807)
 -->
<!-- Title: imported_1766822283.2069564 Pages: 1 -->
<svg width="306pt" height="962pt"
 viewBox="0.00 0.00 306.00 962.00" xmlns="http://www.w3.org/2000/svg" xmlns:xlink="http://www.w3.org/1999/xlink">
<g id="graph0" class="graph" transform="scale(1 1) rotate(0) translate(4 958)">
<title>imported_1766822283.2069564</title>
<polygon fill="white" stroke="none" points="-4,4 -4,-958 301.75,-958 301.75,4 -4,4"/>
<!-- 2601192204832 -->
<g id="node1" class="node">
<title>2601192204832</title>
<polygon fill="white" stroke="black" points="187.38,-954 102.38,-954 102.38,-918 187.38,-918 187.38,-954"/>
<text xml:space="preserve" text-anchor="middle" x="144.88" y="-930.98" font-family="Times New Roman,serif" font-size="12.00">SET STATUS</text>
</g>
<!-- 2601192204976 -->
<g id="node20" class="node">
<title>2601192204976</title>
<ellipse fill="white" stroke="black" cx="266.75" cy="-477" rx="27" ry="27"/>
<ellipse fill="none" stroke="black" cx="266.75" cy="-477" rx="31" ry="31"/>
<text xml:space="preserve" text-anchor="start" x="257" y="-463.1" font-family="Times New Roman,serif" font-size="32.00">■</text>
</g>
<!-- 2601192204832&#45;&gt;2601192204976 -->
<g id="edge22" class="edge">
<title>2601192204832&#45;&gt;2601192204976</title>
<path fill="none" stroke="black" d="M187.63,-920.45C192.27,-917.27 196.49,-913.48 199.75,-909 244.63,-847.31 259.73,-615.93 264.14,-519.55"/>
<polygon fill="black" stroke="black" points="267.63,-519.88 264.57,-509.73 260.63,-519.57 267.63,-519.88"/>
</g>
<!-- 2601192205312 -->
<g id="node2" class="node">
<title>2601192205312</title>
<polygon fill="white" stroke="black" points="171.88,-900 117.88,-900 117.88,-864 171.88,-864 171.88,-900"/>
<text xml:space="preserve" text-anchor="middle" x="144.88" y="-876.98" font-family="Times New Roman,serif" font-size="12.00">FIN</text>
</g>
<!-- 2601192205312&#45;&gt;2601192204976 -->
<g id="edge30" class="edge">
<title>2601192205312&#45;&gt;2601192204976</title>
<path fill="none" stroke="black" d="M172.31,-874.45C182.36,-870.29 193.01,-864.07 199.75,-855 238.9,-802.36 256.88,-606.99 263.08,-519.66"/>
<polygon fill="black" stroke="black" points="266.57,-520.05 263.76,-509.84 259.58,-519.57 266.57,-520.05"/>
</g>
<!-- 2601192205024 -->
<g id="node3" class="node">
<title>2601192205024</title>
<polygon fill="white" stroke="black" points="183.62,-846 106.12,-846 106.12,-810 183.62,-810 183.62,-846"/>
<text xml:space="preserve" text-anchor="middle" x="144.88" y="-822.98" font-family="Times New Roman,serif" font-size="12.00">CODE NOK</text>
</g>
<!-- 2601192205024&#45;&gt;2601192204976 -->
<g id="edge20" class="edge">
<title>2601192205024&#45;&gt;2601192204976</title>
<path fill="none" stroke="black" d="M183.92,-814.52C189.94,-810.93 195.55,-806.48 199.75,-801 233.28,-757.22 253.66,-596.65 261.74,-519.26"/>
<polygon fill="black" stroke="black" points="265.2,-519.83 262.73,-509.53 258.23,-519.12 265.2,-519.83"/>
</g>
<!-- 2601192205600 -->
<g id="node4" class="node">
<title>2601192205600</title>
<polygon fill="white" stroke="black" points="171.88,-792 117.88,-792 117.88,-756 171.88,-756 171.88,-792"/>
<text xml:space="preserve" text-anchor="middle" x="144.88" y="-768.98" font-family="Times New Roman,serif" font-size="12.00">NEW</text>
</g>
<!-- 2601192205600&#45;&gt;2601192204976 -->
<g id="edge26" class="edge">
<title>2601192205600&#45;&gt;2601192204976</title>
<path fill="none" stroke="black" d="M172.29,-766.1C182.22,-761.91 192.77,-755.75 199.75,-747 252.93,-680.28 264.14,-576.92 265.98,-519.36"/>
<polygon fill="black" stroke="black" points="269.47,-519.74 266.2,-509.66 262.47,-519.58 269.47,-519.74"/>
</g>
<!-- 2601192205888 -->
<g id="node5" class="node">
<title>2601192205888</title>
<polygon fill="white" stroke="black" points="175.75,-738 114,-738 114,-702 175.75,-702 175.75,-738"/>
<text xml:space="preserve" text-anchor="middle" x="144.88" y="-714.98" font-family="Times New Roman,serif" font-size="12.00">DELETE</text>
</g>
<!-- 2601192205888&#45;&gt;2601192204976 -->
<g id="edge24" class="edge">
<title>2601192205888&#45;&gt;2601192204976</title>
<path fill="none" stroke="black" d="M176.23,-710.01C184.83,-705.91 193.54,-700.35 199.75,-693 241.85,-643.15 257.11,-566.85 262.63,-519.54"/>
<polygon fill="black" stroke="black" points="266.1,-519.99 263.67,-509.68 259.14,-519.25 266.1,-519.99"/>
</g>
<!-- 2601192206080 -->
<g id="node6" class="node">
<title>2601192206080</title>
<polygon fill="white" stroke="black" points="192.62,-684 97.12,-684 97.12,-648 192.62,-648 192.62,-684"/>
<text xml:space="preserve" text-anchor="middle" x="144.88" y="-660.98" font-family="Times New Roman,serif" font-size="12.00">CHANGE END</text>
</g>
<!-- 2601192206080&#45;&gt;2601192204976 -->
<g id="edge29" class="edge">
<title>2601192206080&#45;&gt;2601192204976</title>
<path fill="none" stroke="black" d="M189.88,-647.52C193.48,-644.98 196.84,-642.15 199.75,-639 231.11,-605.11 248.5,-554.33 257.45,-518.68"/>
<polygon fill="black" stroke="black" points="260.81,-519.69 259.72,-509.15 254,-518.07 260.81,-519.69"/>
</g>
<!-- 2601192206272 -->
<g id="node7" class="node">
<title>2601192206272</title>
<polygon fill="white" stroke="black" points="178.38,-630 111.38,-630 111.38,-594 178.38,-594 178.38,-630"/>
<text xml:space="preserve" text-anchor="middle" x="144.88" y="-606.98" font-family="Times New Roman,serif" font-size="12.00">JOIN&#45;PAT</text>
</g>
<!-- 2601192206272&#45;&gt;2601192204976 -->
<g id="edge36" class="edge">
<title>2601192206272&#45;&gt;2601192204976</title>
<path fill="none" stroke="black" d="M178.8,-599.15C186.21,-595.31 193.67,-590.59 199.75,-585 220.84,-565.61 237.56,-537.97 248.9,-515.5"/>
<polygon fill="black" stroke="black" points="251.99,-517.15 253.21,-506.63 245.69,-514.09 251.99,-517.15"/>
</g>
<!-- 2601192206464 -->
<g id="node8" class="node">
<title>2601192206464</title>
<polygon fill="white" stroke="black" points="199.75,-576 90,-576 90,-540 199.75,-540 199.75,-576"/>
<text xml:space="preserve" text-anchor="middle" x="144.88" y="-552.98" font-family="Times New Roman,serif" font-size="12.00">CHANGE DIAGN</text>
</g>
<!-- 2601192206464&#45;&gt;2601192204976 -->
<g id="edge19" class="edge">
<title>2601192206464&#45;&gt;2601192204976</title>
<path fill="none" stroke="black" d="M185.29,-539.53C190.25,-536.83 195.18,-533.96 199.75,-531 211.69,-523.26 223.96,-513.72 234.64,-504.83"/>
<polygon fill="black" stroke="black" points="236.68,-507.68 242.04,-498.54 232.15,-502.35 236.68,-507.68"/>
</g>
<!-- 2601192206656 -->
<g id="node9" class="node">
<title>2601192206656</title>
<polygon fill="white" stroke="black" points="193.38,-522 96.38,-522 96.38,-486 193.38,-486 193.38,-522"/>
<text xml:space="preserve" text-anchor="middle" x="144.88" y="-498.98" font-family="Times New Roman,serif" font-size="12.00">ZDBC_BEHAN</text>
</g>
<!-- 2601192206656&#45;&gt;2601192204976 -->
<g id="edge21" class="edge">
<title>2601192206656&#45;&gt;2601192204976</title>
<path fill="none" stroke="black" d="M193.6,-493.25C204.03,-490.9 214.99,-488.43 225.12,-486.15"/>
<polygon fill="black" stroke="black" points="225.67,-489.62 234.65,-484 224.13,-482.79 225.67,-489.62"/>
</g>
<!-- 2601192206848 -->
<g id="node10" class="node">
<title>2601192206848</title>
<polygon fill="white" stroke="black" points="174.62,-468 115.12,-468 115.12,-432 174.62,-432 174.62,-468"/>
<text xml:space="preserve" text-anchor="middle" x="144.88" y="-444.98" font-family="Times New Roman,serif" font-size="12.00">BILLED</text>
</g>
<!-- 2601192206848&#45;&gt;2601192204976 -->
<g id="edge35" class="edge">
<title>2601192206848&#45;&gt;2601192204976</title>
<path fill="none" stroke="black" d="M174.89,-456.54C189.98,-459.93 208.67,-464.14 225.17,-467.86"/>
<polygon fill="black" stroke="black" points="224.16,-471.22 234.69,-470 225.7,-464.39 224.16,-471.22"/>
</g>
<!-- 2601192205168 -->
<g id="node11" class="node">
<title>2601192205168</title>
<polygon fill="white" stroke="black" points="177.25,-414 112.5,-414 112.5,-378 177.25,-378 177.25,-414"/>
<text xml:space="preserve" text-anchor="middle" x="144.88" y="-390.98" font-family="Times New Roman,serif" font-size="12.00">STORNO</text>
</g>
<!-- 2601192205168&#45;&gt;2601192204976 -->
<g id="edge34" class="edge">
<title>2601192205168&#45;&gt;2601192204976</title>
<path fill="none" stroke="black" d="M177.58,-410.43C185.03,-414.21 192.81,-418.5 199.75,-423 211.69,-430.74 223.96,-440.28 234.64,-449.17"/>
<polygon fill="black" stroke="black" points="232.15,-451.65 242.04,-455.46 236.68,-446.32 232.15,-451.65"/>
</g>
<!-- 2601192205456 -->
<g id="node12" class="node">
<title>2601192205456</title>
<polygon fill="white" stroke="black" points="174.62,-360 115.12,-360 115.12,-324 174.62,-324 174.62,-360"/>
<text xml:space="preserve" text-anchor="middle" x="144.88" y="-336.98" font-family="Times New Roman,serif" font-size="12.00">REJECT</text>
</g>
<!-- 2601192205456&#45;&gt;2601192204976 -->
<g id="edge32" class="edge">
<title>2601192205456&#45;&gt;2601192204976</title>
<path fill="none" stroke="black" d="M174.87,-352.89C183.52,-357.05 192.59,-362.41 199.75,-369 220.84,-388.39 237.56,-416.03 248.9,-438.5"/>
<polygon fill="black" stroke="black" points="245.69,-439.91 253.21,-447.37 251.99,-436.85 245.69,-439.91"/>
</g>
<!-- 2601192205744 -->
<g id="node13" class="node">
<title>2601192205744</title>
<polygon fill="white" stroke="black" points="179.5,-306 110.25,-306 110.25,-270 179.5,-270 179.5,-306"/>
<text xml:space="preserve" text-anchor="middle" x="144.88" y="-282.98" font-family="Times New Roman,serif" font-size="12.00">CODE OK</text>
</g>
<!-- 2601192205744&#45;&gt;2601192204976 -->
<g id="edge33" class="edge">
<title>2601192205744&#45;&gt;2601192204976</title>
<path fill="none" stroke="black" d="M179.76,-300.32C187.04,-304.16 194.21,-309.01 199.75,-315 231.11,-348.89 248.5,-399.67 257.45,-435.32"/>
<polygon fill="black" stroke="black" points="254,-435.93 259.72,-444.85 260.81,-434.31 254,-435.93"/>
</g>
<!-- 2601192206032 -->
<g id="node14" class="node">
<title>2601192206032</title>
<polygon fill="white" stroke="black" points="179.12,-252 110.62,-252 110.62,-216 179.12,-216 179.12,-252"/>
<text xml:space="preserve" text-anchor="middle" x="144.88" y="-228.97" font-family="Times New Roman,serif" font-size="12.00">MANUAL</text>
</g>
<!-- 2601192206032&#45;&gt;2601192204976 -->
<g id="edge27" class="edge">
<title>2601192206032&#45;&gt;2601192204976</title>
<path fill="none" stroke="black" d="M179.6,-245.67C187.06,-249.57 194.35,-254.61 199.75,-261 241.85,-310.85 257.11,-387.15 262.63,-434.46"/>
<polygon fill="black" stroke="black" points="259.14,-434.75 263.67,-444.32 266.1,-434.01 259.14,-434.75"/>
</g>
<!-- 2601192206224 -->
<g id="node15" class="node">
<title>2601192206224</title>
<polygon fill="white" stroke="black" points="176.5,-198 113.25,-198 113.25,-162 176.5,-162 176.5,-198"/>
<text xml:space="preserve" text-anchor="middle" x="144.88" y="-174.97" font-family="Times New Roman,serif" font-size="12.00">REOPEN</text>
</g>
<!-- 2601192206224&#45;&gt;2601192204976 -->
<g id="edge23" class="edge">
<title>2601192206224&#45;&gt;2601192204976</title>
<path fill="none" stroke="black" d="M176.77,-189.91C185.29,-193.99 193.82,-199.56 199.75,-207 252.93,-273.72 264.14,-377.08 265.98,-434.64"/>
<polygon fill="black" stroke="black" points="262.47,-434.42 266.2,-444.34 269.47,-434.26 262.47,-434.42"/>
</g>
<!-- 2601192206416 -->
<g id="node16" class="node">
<title>2601192206416</title>
<polygon fill="white" stroke="black" points="173.5,-144 116.25,-144 116.25,-108 173.5,-108 173.5,-144"/>
<text xml:space="preserve" text-anchor="middle" x="144.88" y="-120.97" font-family="Times New Roman,serif" font-size="12.00">EMPTY</text>
</g>
<!-- 2601192206416&#45;&gt;2601192204976 -->
<g id="edge25" class="edge">
<title>2601192206416&#45;&gt;2601192204976</title>
<path fill="none" stroke="black" d="M173.86,-134.36C183.39,-138.52 193.26,-144.53 199.75,-153 233.28,-196.78 253.66,-357.35 261.74,-434.74"/>
<polygon fill="black" stroke="black" points="258.23,-434.88 262.73,-444.47 265.2,-434.17 258.23,-434.88"/>
</g>
<!-- 2601192206608 -->
<g id="node17" class="node">
<title>2601192206608</title>
<polygon fill="white" stroke="black" points="179.5,-90 110.25,-90 110.25,-54 179.5,-54 179.5,-90"/>
<text xml:space="preserve" text-anchor="middle" x="144.88" y="-66.97" font-family="Times New Roman,serif" font-size="12.00">RELEASE</text>
</g>
<!-- 2601192206608&#45;&gt;2601192204976 -->
<g id="edge31" class="edge">
<title>2601192206608&#45;&gt;2601192204976</title>
<path fill="none" stroke="black" d="M179.89,-83.07C187.44,-87 194.69,-92.2 199.75,-99 238.9,-151.64 256.88,-347.01 263.08,-434.34"/>
<polygon fill="black" stroke="black" points="259.58,-434.43 263.76,-444.16 266.57,-433.95 259.58,-434.43"/>
</g>
<!-- 2601192206704 -->
<g id="node18" class="node">
<title>2601192206704</title>
<polygon fill="white" stroke="black" points="190.75,-36 99,-36 99,0 190.75,0 190.75,-36"/>
<text xml:space="preserve" text-anchor="middle" x="144.88" y="-12.97" font-family="Times New Roman,serif" font-size="12.00">CODE ERROR</text>
</g>
<!-- 2601192206704&#45;&gt;2601192204976 -->
<g id="edge28" class="edge">
<title>2601192206704&#45;&gt;2601192204976</title>
<path fill="none" stroke="black" d="M190.96,-36C194.28,-38.63 197.29,-41.62 199.75,-45 244.63,-106.69 259.73,-338.07 264.14,-434.45"/>
<polygon fill="black" stroke="black" points="260.63,-434.43 264.57,-444.27 267.63,-434.12 260.63,-434.43"/>
</g>
<!-- 2601192204784 -->
<g id="node19" class="node">
<title>2601192204784</title>
<ellipse fill="white" stroke="black" cx="27" cy="-477" rx="27" ry="27"/>
<text xml:space="preserve" text-anchor="start" x="16.88" y="-461.95" font-family="Times New Roman,serif" font-size="34.00">●</text>
</g>
<!-- 2601192204784&#45;&gt;2601192204832 -->
<g id="edge17" class="edge">
<title>2601192204784&#45;&gt;2601192204832</title>
<path fill="none" stroke="black" d="M28.68,-504.23C31.26,-588.54 42.88,-843.61 90,-909 91.11,-910.55 92.34,-912.01 93.66,-913.39"/>
<polygon fill="black" stroke="black" points="91.02,-915.75 100.93,-919.5 95.53,-910.39 91.02,-915.75"/>
</g>
<!-- 2601192204784&#45;&gt;2601192205312 -->
<g id="edge12" class="edge">
<title>2601192204784&#45;&gt;2601192205312</title>
<path fill="none" stroke="black" d="M29.31,-504.33C33.48,-581.47 48.71,-798.89 90,-855 94.5,-861.11 100.78,-865.93 107.46,-869.7"/>
<polygon fill="black" stroke="black" points="105.5,-872.64 116.03,-873.83 108.54,-866.33 105.5,-872.64"/>
</g>
<!-- 2601192204784&#45;&gt;2601192205024 -->
<g id="edge6" class="edge">
<title>2601192204784&#45;&gt;2601192205024</title>
<path fill="none" stroke="black" d="M30.12,-504.12C36,-573.27 54.45,-754.01 90,-801 91.95,-803.58 94.22,-805.93 96.7,-808.07"/>
<polygon fill="black" stroke="black" points="94.38,-810.72 104.55,-813.68 98.44,-805.02 94.38,-810.72"/>
</g>
<!-- 2601192204784&#45;&gt;2601192205600 -->
<g id="edge15" class="edge">
<title>2601192204784&#45;&gt;2601192205600</title>
<path fill="none" stroke="black" d="M31.22,-503.77C38.95,-564.22 60.14,-708.99 90,-747 94.54,-752.78 100.64,-757.42 107.11,-761.11"/>
<polygon fill="black" stroke="black" points="105.52,-764.23 116.04,-765.49 108.6,-757.94 105.52,-764.23"/>
</g>
<!-- 2601192204784&#45;&gt;2601192205888 -->
<g id="edge5" class="edge">
<title>2601192204784&#45;&gt;2601192205888</title>
<path fill="none" stroke="black" d="M28.97,-504.09C31.92,-548.44 43.65,-637.17 90,-693 93.79,-697.56 98.54,-701.43 103.64,-704.68"/>
<polygon fill="black" stroke="black" points="101.94,-707.74 112.4,-709.48 105.31,-701.6 101.94,-707.74"/>
</g>
<!-- 2601192204784&#45;&gt;2601192206080 -->
<g id="edge13" class="edge">
<title>2601192204784&#45;&gt;2601192206080</title>
<path fill="none" stroke="black" d="M32.13,-503.96C38.73,-538.93 54.73,-600.05 90,-639 90.36,-639.4 90.73,-639.79 91.1,-640.18"/>
<polygon fill="black" stroke="black" points="88.76,-642.78 98.64,-646.6 93.3,-637.45 88.76,-642.78"/>
</g>
<!-- 2601192204784&#45;&gt;2601192206272 -->
<g id="edge10" class="edge">
<title>2601192204784&#45;&gt;2601192206272</title>
<path fill="none" stroke="black" d="M37.39,-502.05C47.37,-525.9 65.17,-561.54 90,-585 93.42,-588.23 97.31,-591.16 101.38,-593.8"/>
<polygon fill="black" stroke="black" points="99.4,-596.7 109.81,-598.66 102.89,-590.63 99.4,-596.7"/>
</g>
<!-- 2601192204784&#45;&gt;2601192206464 -->
<g id="edge3" class="edge">
<title>2601192204784&#45;&gt;2601192206464</title>
<path fill="none" stroke="black" d="M46.8,-495.6C58.6,-506.69 74.47,-520.59 90,-531 91.38,-531.93 92.81,-532.85 94.25,-533.75"/>
<polygon fill="black" stroke="black" points="92.38,-536.71 102.78,-538.74 95.92,-530.67 92.38,-536.71"/>
</g>
<!-- 2601192204784&#45;&gt;2601192206656 -->
<g id="edge1" class="edge">
<title>2601192204784&#45;&gt;2601192206656</title>
<path fill="none" stroke="black" d="M53.72,-482.99C63.12,-485.18 74.18,-487.76 85.27,-490.34"/>
<polygon fill="black" stroke="black" points="84.31,-493.71 94.84,-492.57 85.9,-486.9 84.31,-493.71"/>
</g>
<!-- 2601192204784&#45;&gt;2601192206848 -->
<g id="edge2" class="edge">
<title>2601192204784&#45;&gt;2601192206848</title>
<path fill="none" stroke="black" d="M53.72,-471.01C68.45,-467.57 87.26,-463.19 103.89,-459.32"/>
<polygon fill="black" stroke="black" points="104.55,-462.76 113.5,-457.08 102.96,-455.94 104.55,-462.76"/>
</g>
<!-- 2601192204784&#45;&gt;2601192205168 -->
<g id="edge11" class="edge">
<title>2601192204784&#45;&gt;2601192205168</title>
<path fill="none" stroke="black" d="M46.8,-458.4C58.6,-447.31 74.47,-433.41 90,-423 93.86,-420.41 98.01,-417.91 102.22,-415.54"/>
<polygon fill="black" stroke="black" points="103.57,-418.79 110.74,-410.99 100.27,-412.61 103.57,-418.79"/>
</g>
<!-- 2601192204784&#45;&gt;2601192205456 -->
<g id="edge18" class="edge">
<title>2601192204784&#45;&gt;2601192205456</title>
<path fill="none" stroke="black" d="M37.39,-451.95C47.37,-428.1 65.17,-392.46 90,-369 94.42,-364.82 99.61,-361.15 104.99,-357.97"/>
<polygon fill="black" stroke="black" points="106.24,-361.27 113.43,-353.48 102.96,-355.09 106.24,-361.27"/>
</g>
<!-- 2601192204784&#45;&gt;2601192205744 -->
<g id="edge8" class="edge">
<title>2601192204784&#45;&gt;2601192205744</title>
<path fill="none" stroke="black" d="M32.13,-450.04C38.73,-415.07 54.73,-353.95 90,-315 93,-311.69 96.49,-308.74 100.23,-306.11"/>
<polygon fill="black" stroke="black" points="101.88,-309.2 108.61,-301.02 98.24,-303.22 101.88,-309.2"/>
</g>
<!-- 2601192204784&#45;&gt;2601192206032 -->
<g id="edge9" class="edge">
<title>2601192204784&#45;&gt;2601192206032</title>
<path fill="none" stroke="black" d="M28.97,-449.91C31.92,-405.56 43.65,-316.83 90,-261 93.04,-257.33 96.71,-254.11 100.68,-251.3"/>
<polygon fill="black" stroke="black" points="102.31,-254.41 109.06,-246.24 98.69,-248.42 102.31,-254.41"/>
</g>
<!-- 2601192204784&#45;&gt;2601192206224 -->
<g id="edge4" class="edge">
<title>2601192204784&#45;&gt;2601192206224</title>
<path fill="none" stroke="black" d="M31.22,-450.23C38.95,-389.78 60.14,-245.01 90,-207 93.58,-202.44 98.14,-198.59 103.09,-195.35"/>
<polygon fill="black" stroke="black" points="104.57,-198.53 111.59,-190.6 101.15,-192.42 104.57,-198.53"/>
</g>
<!-- 2601192204784&#45;&gt;2601192206416 -->
<g id="edge16" class="edge">
<title>2601192204784&#45;&gt;2601192206416</title>
<path fill="none" stroke="black" d="M30.12,-449.88C36,-380.73 54.45,-199.99 90,-153 94.12,-147.55 99.65,-143.12 105.6,-139.55"/>
<polygon fill="black" stroke="black" points="107.17,-142.68 114.48,-135.01 103.99,-136.44 107.17,-142.68"/>
</g>
<!-- 2601192204784&#45;&gt;2601192206608 -->
<g id="edge14" class="edge">
<title>2601192204784&#45;&gt;2601192206608</title>
<path fill="none" stroke="black" d="M29.31,-449.67C33.48,-372.53 48.71,-155.11 90,-99 92.83,-95.16 96.35,-91.83 100.24,-88.96"/>
<polygon fill="black" stroke="black" points="101.86,-92.07 108.52,-83.83 98.18,-86.12 101.86,-92.07"/>
</g>
<!-- 2601192204784&#45;&gt;2601192206704 -->
<g id="edge7" class="edge">
<title>2601192204784&#45;&gt;2601192206704</title>
<path fill="none" stroke="black" d="M28.68,-449.77C31.26,-365.46 42.88,-110.39 90,-45 90.23,-44.68 90.46,-44.37 90.7,-44.06"/>
<polygon fill="black" stroke="black" points="93.11,-46.6 97.69,-37.05 88.15,-41.66 93.11,-46.6"/>
</g>
</g>
</svg>
